<svg id="sewing_x5F_string" enable-background="new 0 0 300 300" height="512" viewBox="0 0 300 300" width="512" xmlns="http://www.w3.org/2000/svg"><path d="m262.55 117.278-75.961-75.961c-6.46-6.459-16.969-6.459-23.427 0-3.265 3.265-5.028 7.782-4.839 12.396l.469 11.366-89.846 89.846-11.366-.469c-4.61-.178-9.132 1.573-12.396 4.839-6.459 6.459-6.459 16.968 0 23.427l75.961 75.961c3.229 3.229 7.471 4.845 11.713 4.845s8.485-1.615 11.715-4.845c3.264-3.266 5.027-7.784 4.838-12.396l-.469-11.367 3.169-3.169c4.417 3.096 11.973 7.252 20.732 7.252.742 0 1.494-.03 2.252-.093 8.515-.706 16.042-5.346 22.374-13.787 16.734-22.313 27.337-18.208 27.445-18.161l-.114-.054 3.578-7.156c-1.63-.812-16.512-7.159-37.31 20.57-4.889 6.519-10.471 10.089-16.59 10.611-6.576.558-12.697-2.421-16.601-4.949l80.91-80.909 11.366.469c.227.009.451.014.677.014 4.376 0 8.615-1.747 11.72-4.853 6.459-6.46 6.459-16.968 0-23.427zm-97.744 90.463c-8.727-10.797-17.859-24.083-26.128-36.946 3.358 2.071 6.696 4.087 9.949 6.02 6.422 8.806 13.728 17.468 21.904 25.202zm-40.716-19.201c15.061 11.958 28.375 21.41 34.353 25.565l-6.766 6.766c-10.96-10.901-20.089-21.965-27.587-32.331zm-34.152-43.294c.52 1.229 1.134 2.635 1.845 4.202-1.012-1.02-2.008-2.04-2.986-3.061zm26.597-26.597c3.333 8.205 10.53 24.541 21.453 42.278-3.098-1.947-6.176-3.923-9.18-5.904-8.602-14.096-15.268-25.905-17.941-30.706zm28.798 5.923c2.866 4.893 6.091 10.223 9.622 15.796-14.843-12.441-26.496-23.841-31.384-28.753l.704-.704c3.774 2.54 11.251 7.503 21.058 13.661zm-15.293-19.427 2.912-2.912c1.02 1.96 2.355 4.485 3.975 7.462-2.793-1.824-5.118-3.365-6.887-4.55zm-17.319 38.584c-4.544-3.455-8.481-6.766-11.479-9.786l3.742-3.742c1.767 3.16 4.427 7.854 7.737 13.528zm-15.973-3c6.375 6.102 15.791 13.058 26.097 19.936 6.553 10.695 14.161 22.588 22.018 33.776-10.322-7.707-23.118-17.707-35.458-28.519-6.56-11.328-10.638-20.351-12.657-25.193zm71.259 47.267c4.344 2.436 8.006 4.444 10.66 5.884l-2.479 2.479c-2.831-2.671-5.558-5.471-8.181-8.363zm-13.785-17.191c-10.747-15.018-18.951-30.459-24.396-41.961 9.908 9.278 24.044 21.746 39.81 33.31 5.597 7.781 11.615 15.543 17.93 22.828l-2.993 2.993c-4.901-2.648-16.783-9.149-30.351-17.17zm36.368 5.388c1.208.726 2.419 1.436 3.631 2.133l-.984.984c-.888-1.03-1.77-2.07-2.647-3.117zm-15.263-19.824c-5.508-7.713-10.591-15.423-15.121-22.663 8.716 5.231 18.378 10.811 28.408 16.228 4.483 6.383 9.453 12.784 14.955 19.046l-3.48 3.48c-8.376-4.692-16.756-10.248-24.762-16.091zm29.868 2.164c1.977.98 3.956 1.944 5.933 2.887l-1.888 1.888c-1.382-1.582-2.731-3.174-4.045-4.775zm-11.047-14.705c-3.426-4.981-6.554-9.948-9.397-14.812 10.808 7.285 23.145 14.96 36.561 22.219l-4.175 4.175c-7.683-3.598-15.429-7.533-22.989-11.582zm-14.853-8.215c-10.335-5.89-19.933-11.703-28.053-16.777-6.118-10.534-10.432-18.782-12.352-22.541l1.318-1.318c2.358 2.102 13.17 11.575 29.711 23.641 2.748 5.453 5.863 11.16 9.376 16.995zm-33.42-46.303 7.121-7.121c.788.808 1.729 1.761 2.817 2.845 1.675 4.966 3.957 11.156 6.949 18.177-8.981-6.994-14.902-12.142-16.887-13.901zm14.963-14.964 1.109-1.109 42.958 42.958c-18.712-13.475-33.861-27.467-42.098-35.537-.899-2.716-1.549-4.86-1.969-6.312zm-77.705 77.706c6.105 6.36 12.876 12.724 19.812 18.843 9.268 15.858 23.211 35.877 43.075 55.632l-.234.234-68.682-68.681zm55.782 100.975c-3.339 3.338-8.773 3.34-12.114 0l-75.961-75.961c-3.34-3.34-3.34-8.774 0-12.114 1.605-1.605 3.798-2.509 6.061-2.509.116 0 .233.003.35.008l13.467.556 70.144 70.144.556 13.467c.096 2.383-.816 4.72-2.503 6.409zm88.309-107.703c-19.737-10.522-37.191-22.033-50.88-31.927-2.781-5.618-5.157-10.916-7.16-15.73 14.477 13.021 36.011 30.409 60.442 43.619l.13-.241.874.874zm29.669-10.276c-1.688 1.688-4.033 2.602-6.41 2.501l-13.467-.556-70.144-70.145-.556-13.466c-.099-2.386.813-4.722 2.501-6.41 3.338-3.34 8.772-3.342 12.114 0l75.961 75.961c3.341 3.341 3.341 8.775.001 12.115z"/><path d="m56.606 57.402c2.209 0 4-1.791 4-4v-12c0-2.209-1.791-4-4-4s-4 1.791-4 4v12c0 2.209 1.791 4 4 4z"/><path d="m56.606 65.402c-2.209 0-4 1.791-4 4v12c0 2.209 1.791 4 4 4s4-1.791 4-4v-12c0-2.209-1.791-4-4-4z"/><path d="m52.606 61.402c0-2.209-1.791-4-4-4h-12c-2.209 0-4 1.791-4 4s1.791 4 4 4h12c2.209 0 4-1.791 4-4z"/><path d="m64.606 65.402h12c2.209 0 4-1.791 4-4s-1.791-4-4-4h-12c-2.209 0-4 1.791-4 4s1.791 4 4 4z"/><path d="m230.606 229.402c-7.72 0-14 6.28-14 14s6.28 14 14 14 14-6.28 14-14-6.28-14-14-14zm0 20c-3.309 0-6-2.691-6-6s2.691-6 6-6 6 2.691 6 6-2.691 6-6 6z"/><circle cx="116.607" cy="49.402" r="4"/><circle cx="260.607" cy="185.402" r="4"/><circle cx="40.607" cy="121.402" r="4"/></svg>