<svg xmlns="http://www.w3.org/2000/svg" width="73.029" height="73.029" viewBox="0 0 73.029 73.029">
  <g id="Group_11429" data-name="Group 11429" transform="translate(-2111.687 1082.514)">
    <g id="Path_8453" data-name="Path 8453" transform="translate(2111.687 -1082.514)" fill="none">
      <path d="M36.514,0A36.514,36.514,0,1,1,0,36.514,36.514,36.514,0,0,1,36.514,0Z" stroke="none"/>
      <path d="M 36.51427841186523 1.5 C 31.78672409057617 1.5 27.20136642456055 2.425567626953125 22.88560104370117 4.2509765625 C 18.71630096435547 6.014442443847656 14.97157669067383 8.539314270019531 11.75544357299805 11.75544357299805 C 8.539314270019531 14.97157669067383 6.014442443847656 18.71630096435547 4.2509765625 22.88560104370117 C 2.425567626953125 27.20136642456055 1.5 31.78672409057617 1.5 36.51427841186523 C 1.5 41.24183654785156 2.425567626953125 45.82717895507812 4.2509765625 50.1429443359375 C 6.014442443847656 54.3122444152832 8.539314270019531 58.05696868896484 11.75544357299805 61.27310943603516 C 14.97157669067383 64.48924255371094 18.71630096435547 67.01411437988281 22.88560104370117 68.77758026123047 C 27.20136642456055 70.60298919677734 31.78672409057617 71.52855682373047 36.51427841186523 71.52855682373047 C 41.24183654785156 71.52855682373047 45.82717895507812 70.60298919677734 50.1429443359375 68.77758026123047 C 54.3122444152832 67.01411437988281 58.05696868896484 64.48924255371094 61.27310943603516 61.27310943603516 C 64.48924255371094 58.05696868896484 67.01411437988281 54.3122444152832 68.77758026123047 50.1429443359375 C 70.60298919677734 45.82717895507812 71.52855682373047 41.24183654785156 71.52855682373047 36.51427841186523 C 71.52855682373047 31.78672409057617 70.60298919677734 27.20136642456055 68.77758026123047 22.88560104370117 C 67.01411437988281 18.71630096435547 64.48924255371094 14.97157669067383 61.27310943603516 11.75544357299805 C 58.05696868896484 8.539314270019531 54.3122444152832 6.014442443847656 50.1429443359375 4.2509765625 C 45.82717895507812 2.425567626953125 41.24183654785156 1.5 36.51427841186523 1.5 M 36.51427841186523 0 C 56.68054580688477 0 73.02855682373047 16.34799957275391 73.02855682373047 36.51427841186523 C 73.02855682373047 56.68054580688477 56.68054580688477 73.02855682373047 36.51427841186523 73.02855682373047 C 16.34799957275391 73.02855682373047 0 56.68054580688477 0 36.51427841186523 C 0 16.34799957275391 16.34799957275391 0 36.51427841186523 0 Z" stroke="none" fill="#000"/>
    </g>
    <g id="Group_11407" data-name="Group 11407" transform="translate(2125.713 -1069.137)">
      <path id="Path_8259" data-name="Path 8259" d="M15.6,55.641a65.579,65.579,0,0,0-9.432,9.448l12.583-6.3Z" transform="translate(-6.165 -29.729)"/>
      <path id="Path_8260" data-name="Path 8260" d="M68.941,18.034a5.464,5.464,0,0,0-7.293-.389c-1.633.436-5.973,3.636-7.377,3.959.336-1.451,3.737-6.039,3.986-7.526a5.472,5.472,0,1,0-5.1,2.074l-2.24,3.275.76.76,1.174,1.173L53.892,22.4l1.552,1.553,1.006,1.005,3.238-2.214a5.461,5.461,0,1,0,9.254-4.711ZM53.732,12.945a2.489,2.489,0,1,1,2.489-2.489A2.488,2.488,0,0,1,53.732,12.945Zm11.2,11.475a2.489,2.489,0,1,1,2.489-2.489A2.489,2.489,0,0,1,64.931,24.42Z" transform="translate(-26.7 -5.286)"/>
      <path id="Path_8261" data-name="Path 8261" d="M22.742,78.707a65.418,65.418,0,0,0,9.449-9.431l-3.153-3.152Z" transform="translate(-14.212 -34.818)"/>
      <path id="Path_8262" data-name="Path 8262" d="M30.606,37.248,29,35.642l6.7-6.7-1.551-1.552-5.595,5.594a1.566,1.566,0,1,1-2.214-2.214l5.594-5.594-.54-.54-.7-.7L25.1,29.528a1.566,1.566,0,0,1-2.215-2.214l5.6-5.594L27.24,20.48l-5.594,5.593a1.565,1.565,0,1,1-2.214-2.214l5.594-5.594-1.241-1.24L18.192,22.62a1.566,1.566,0,0,1-2.214-2.214l5.594-5.594-1.665-1.666-8.818,8.817a2.993,2.993,0,0,0,0,4.231l7.782,7.782,3.406,3.406,1.463,1.462,3.407,3.407L39.394,54.5a2.992,2.992,0,0,0,4.232-4.232Z" transform="translate(-8.13 -9.102)"/>
    </g>
  </g>
</svg>
