<svg xmlns="http://www.w3.org/2000/svg" width="73.029" height="73.029" viewBox="0 0 73.029 73.029">
  <g id="Group_11432" data-name="Group 11432" transform="translate(-2005.687 743.722)">
    <g id="noun_Bell_Hotel_1792956" data-name="noun_Bell Hotel_1792956" transform="translate(2012.132 -738.725)">
      <g id="Group_11395" data-name="Group 11395" transform="translate(2 10)">
        <path id="Path_8422" data-name="Path 8422" d="M30.242,15.168V12.552h2.552a1.276,1.276,0,1,0,0-2.552H25.138a1.276,1.276,0,0,0,0,2.552H27.69v2.616A22.975,22.975,0,0,0,6,38.07H51.932a22.975,22.975,0,0,0-21.69-22.9Zm-5.1,10.143c-1.87,0-5.332.892-6.446,4.231a1.275,1.275,0,1,1-2.42-.807,9.189,9.189,0,0,1,8.865-5.976,1.276,1.276,0,1,1,0,2.552Z" transform="translate(-0.896 -10)"/>
        <path id="Path_8423" data-name="Path 8423" d="M55.588,34H4.552a2.552,2.552,0,0,0,0,5.1H55.588a2.552,2.552,0,0,0,0-5.1Z" transform="translate(-2 -3.378)"/>
      </g>
    </g>
    <g id="Path_8451" data-name="Path 8451" transform="translate(2005.687 -743.722)" fill="none">
      <path d="M36.514,0A36.514,36.514,0,1,1,0,36.514,36.514,36.514,0,0,1,36.514,0Z" stroke="none"/>
      <path d="M 36.51427841186523 1.5 C 31.78672409057617 1.5 27.20136642456055 2.425567626953125 22.88560104370117 4.2509765625 C 18.71630096435547 6.014442443847656 14.97157669067383 8.539314270019531 11.75544357299805 11.75544357299805 C 8.539314270019531 14.97157669067383 6.014442443847656 18.71630096435547 4.2509765625 22.88560104370117 C 2.425567626953125 27.20136642456055 1.5 31.78672409057617 1.5 36.51427841186523 C 1.5 41.24183654785156 2.425567626953125 45.82717895507812 4.2509765625 50.1429443359375 C 6.014442443847656 54.3122444152832 8.539314270019531 58.05696868896484 11.75544357299805 61.27310943603516 C 14.97157669067383 64.48924255371094 18.71630096435547 67.01411437988281 22.88560104370117 68.77758026123047 C 27.20136642456055 70.60298919677734 31.78672409057617 71.52855682373047 36.51427841186523 71.52855682373047 C 41.24183654785156 71.52855682373047 45.82717895507812 70.60298919677734 50.1429443359375 68.77758026123047 C 54.3122444152832 67.01411437988281 58.05696868896484 64.48924255371094 61.27310943603516 61.27310943603516 C 64.48924255371094 58.05696868896484 67.01411437988281 54.3122444152832 68.77758026123047 50.1429443359375 C 70.60298919677734 45.82717895507812 71.52855682373047 41.24183654785156 71.52855682373047 36.51427841186523 C 71.52855682373047 31.78672409057617 70.60298919677734 27.20136642456055 68.77758026123047 22.88560104370117 C 67.01411437988281 18.71630096435547 64.48924255371094 14.97157669067383 61.27310943603516 11.75544357299805 C 58.05696868896484 8.539314270019531 54.3122444152832 6.014442443847656 50.1429443359375 4.2509765625 C 45.82717895507812 2.425567626953125 41.24183654785156 1.5 36.51427841186523 1.5 M 36.51427841186523 0 C 56.68054580688477 0 73.02855682373047 16.34799957275391 73.02855682373047 36.51427841186523 C 73.02855682373047 56.68054580688477 56.68054580688477 73.02855682373047 36.51427841186523 73.02855682373047 C 16.34799957275391 73.02855682373047 0 56.68054580688477 0 36.51427841186523 C 0 16.34799957275391 16.34799957275391 0 36.51427841186523 0 Z" stroke="none" fill="#000"/>
    </g>
  </g>
</svg>
