<svg xmlns="http://www.w3.org/2000/svg" width="73.029" height="73.029" viewBox="0 0 73.029 73.029">
  <g id="Group_11383" data-name="Group 11383" transform="translate(-42 -739)">
    <g id="Path_8264" data-name="Path 8264" transform="translate(42 739)" fill="none">
      <path d="M36.514,0A36.514,36.514,0,1,1,0,36.514,36.514,36.514,0,0,1,36.514,0Z" stroke="none"/>
      <path d="M 36.51427841186523 1.5 C 31.78672409057617 1.5 27.20136642456055 2.425567626953125 22.88560104370117 4.2509765625 C 18.71630096435547 6.014442443847656 14.97157669067383 8.539314270019531 11.75544357299805 11.75544357299805 C 8.539314270019531 14.97157669067383 6.014442443847656 18.71630096435547 4.2509765625 22.88560104370117 C 2.425567626953125 27.20136642456055 1.5 31.78672409057617 1.5 36.51427841186523 C 1.5 41.24183654785156 2.425567626953125 45.82717895507812 4.2509765625 50.1429443359375 C 6.014442443847656 54.3122444152832 8.539314270019531 58.05696868896484 11.75544357299805 61.27310943603516 C 14.97157669067383 64.48924255371094 18.71630096435547 67.01411437988281 22.88560104370117 68.77758026123047 C 27.20136642456055 70.60298919677734 31.78672409057617 71.52855682373047 36.51427841186523 71.52855682373047 C 41.24183654785156 71.52855682373047 45.82717895507812 70.60298919677734 50.1429443359375 68.77758026123047 C 54.3122444152832 67.01411437988281 58.05696868896484 64.48924255371094 61.27310943603516 61.27310943603516 C 64.48924255371094 58.05696868896484 67.01411437988281 54.3122444152832 68.77758026123047 50.1429443359375 C 70.60298919677734 45.82717895507812 71.52855682373047 41.24183654785156 71.52855682373047 36.51427841186523 C 71.52855682373047 31.78672409057617 70.60298919677734 27.20136642456055 68.77758026123047 22.88560104370117 C 67.01411437988281 18.71630096435547 64.48924255371094 14.97157669067383 61.27310943603516 11.75544357299805 C 58.05696868896484 8.539314270019531 54.3122444152832 6.014442443847656 50.1429443359375 4.2509765625 C 45.82717895507812 2.425567626953125 41.24183654785156 1.5 36.51427841186523 1.5 M 36.51427841186523 0 C 56.68054580688477 0 73.02855682373047 16.34799957275391 73.02855682373047 36.51427841186523 C 73.02855682373047 56.68054580688477 56.68054580688477 73.02855682373047 36.51427841186523 73.02855682373047 C 16.34799957275391 73.02855682373047 0 56.68054580688477 0 36.51427841186523 C 0 16.34799957275391 16.34799957275391 0 36.51427841186523 0 Z" stroke="none" fill="#000"/>
    </g>
    <g id="Group_11348" data-name="Group 11348" transform="translate(56.309 752.679)">
      <path id="Path_8341" data-name="Path 8341" d="M46.418,32H36.631A1.631,1.631,0,0,0,35,33.631v10.6a1.631,1.631,0,0,0,1.631,1.631h9.787a1.631,1.631,0,0,0,1.631-1.631v-10.6A1.631,1.631,0,0,0,46.418,32ZM44.787,42.6H38.262v-7.34h6.524Z" transform="translate(-10.35 -9.164)"/>
      <path id="Path_8342" data-name="Path 8342" d="M49.146,15.8,48.183,5.476A1.631,1.631,0,0,0,46.552,4H7.405A1.631,1.631,0,0,0,5.774,5.476l-.954,10.3a7.017,7.017,0,0,0,.954,4.4.787.787,0,0,0,0,.139V48.04a1.631,1.631,0,0,0,1.631,1.631H46.552a1.631,1.631,0,0,0,1.631-1.631V20.311a.786.786,0,0,0,0-.139A7.029,7.029,0,0,0,49.146,15.8ZM28.61,7.262h6.524v9.787a3.262,3.262,0,1,1-6.524,0Zm-9.787,9.289V7.262h6.524v9.787a3.262,3.262,0,1,1-6.524,0ZM8.066,16.1,8.89,7.262h6.671v9.289a3.76,3.76,0,0,1-6.524,2.5A3.717,3.717,0,0,1,8.066,16.1ZM23.716,46.409H14.745V30.1h8.971Zm21.2,0H26.979V28.467a1.631,1.631,0,0,0-1.631-1.631H13.114a1.631,1.631,0,0,0-1.631,1.631V46.409H9.036V23a6.989,6.989,0,0,0,8.017-1.8,6.523,6.523,0,0,0,9.925.147A6.526,6.526,0,0,0,36.9,21.2,6.989,6.989,0,0,0,44.921,23Zm0-27.354a3.76,3.76,0,0,1-6.524-2.5V7.262h6.671l.816,8.873a3.719,3.719,0,0,1-.922,2.92Z" transform="translate(-4.776 -4)"/>
    </g>
  </g>
</svg>
