<svg xmlns="http://www.w3.org/2000/svg" width="73.029" height="73.029" viewBox="0 0 73.029 73.029">
  <g id="Group_11431" data-name="Group 11431" transform="translate(-2111.687 743.722)">
    <g id="noun_fork_and_knife_978644" data-name="noun_fork and knife_978644" transform="translate(2107.024 -737.725)">
      <g id="Group_11396" data-name="Group 11396" transform="translate(28.9 5)">
        <path id="Path_8424" data-name="Path 8424" d="M64.255,7.49V6.622a1.872,1.872,0,0,0-.232-.984A1.928,1.928,0,0,0,62.4,5c-4.17,0-5.5,6.544-5.5,10.771,0,3.475.753,12.219,3.243,15.231L59.68,55.9c0,.695,1.216,1.274,2.78,1.274,1.506,0,2.78-.579,2.78-1.274Z" transform="translate(-40.685 -5)"/>
        <path id="Path_8425" data-name="Path 8425" d="M42.162,15.771h0l-.579-4-.927-5.965A.953.953,0,0,0,39.671,5h-.405l-.174,9.092h0a.463.463,0,1,1-.927,0h0L37.992,5h-.927l-.174,9.092h0a.463.463,0,0,1-.927,0h0L35.791,5h-.927l-.174,9.092h0a.463.463,0,0,1-.927,0h0L33.591,5h-.927l-.174,9.092h0a.463.463,0,1,1-.927,0h0L31.39,5h-.058a1,1,0,0,0-.984.811l-.869,5.907-.579,4h0c0,3.417,1.679,6.312,4.517,7.239L32.78,55.846h0c0,.695,1.216,1.274,2.78,1.274,1.506,0,2.78-.579,2.78-1.274h0l-.695-32.894c2.838-.927,4.517-3.764,4.517-7.181Z" transform="translate(-28.9 -5)"/>
      </g>
    </g>
    <g id="Path_8452" data-name="Path 8452" transform="translate(2111.687 -743.722)" fill="none">
      <path d="M36.514,0A36.514,36.514,0,1,1,0,36.514,36.514,36.514,0,0,1,36.514,0Z" stroke="none"/>
      <path d="M 36.51427841186523 1.5 C 31.78672409057617 1.5 27.20136642456055 2.425567626953125 22.88560104370117 4.2509765625 C 18.71630096435547 6.014442443847656 14.97157669067383 8.539314270019531 11.75544357299805 11.75544357299805 C 8.539314270019531 14.97157669067383 6.014442443847656 18.71630096435547 4.2509765625 22.88560104370117 C 2.425567626953125 27.20136642456055 1.5 31.78672409057617 1.5 36.51427841186523 C 1.5 41.24183654785156 2.425567626953125 45.82717895507812 4.2509765625 50.1429443359375 C 6.014442443847656 54.3122444152832 8.539314270019531 58.05696868896484 11.75544357299805 61.27310943603516 C 14.97157669067383 64.48924255371094 18.71630096435547 67.01411437988281 22.88560104370117 68.77758026123047 C 27.20136642456055 70.60298919677734 31.78672409057617 71.52855682373047 36.51427841186523 71.52855682373047 C 41.24183654785156 71.52855682373047 45.82717895507812 70.60298919677734 50.1429443359375 68.77758026123047 C 54.3122444152832 67.01411437988281 58.05696868896484 64.48924255371094 61.27310943603516 61.27310943603516 C 64.48924255371094 58.05696868896484 67.01411437988281 54.3122444152832 68.77758026123047 50.1429443359375 C 70.60298919677734 45.82717895507812 71.52855682373047 41.24183654785156 71.52855682373047 36.51427841186523 C 71.52855682373047 31.78672409057617 70.60298919677734 27.20136642456055 68.77758026123047 22.88560104370117 C 67.01411437988281 18.71630096435547 64.48924255371094 14.97157669067383 61.27310943603516 11.75544357299805 C 58.05696868896484 8.539314270019531 54.3122444152832 6.014442443847656 50.1429443359375 4.2509765625 C 45.82717895507812 2.425567626953125 41.24183654785156 1.5 36.51427841186523 1.5 M 36.51427841186523 0 C 56.68054580688477 0 73.02855682373047 16.34799957275391 73.02855682373047 36.51427841186523 C 73.02855682373047 56.68054580688477 56.68054580688477 73.02855682373047 36.51427841186523 73.02855682373047 C 16.34799957275391 73.02855682373047 0 56.68054580688477 0 36.51427841186523 C 0 16.34799957275391 16.34799957275391 0 36.51427841186523 0 Z" stroke="none" fill="#000"/>
    </g>
  </g>
</svg>
