<svg xmlns="http://www.w3.org/2000/svg" width="73.029" height="73.029" viewBox="0 0 73.029 73.029">
  <g id="Group_11435" data-name="Group 11435" transform="translate(-1896 743.722)">
    <g id="Group_11405" data-name="Group 11405" transform="translate(1908.232 -728.725)">
      <path id="Path_8441" data-name="Path 8441" d="M1251.03,1677l10.16,4.313v5.161h33.141l-5.264,14.8h-27.876v1.347c0,2.092,1.3,4.779,3.678,4.779h27.986a5.714,5.714,0,0,1,5.711,5.718h-2.635a3.08,3.08,0,0,0-3.076-3.082h-27.986c-3.885,0-6.307-3.827-6.307-7.414v-19.568l-8.56-3.633Zm10.16,12.1v3.451h28.187l1.224-3.451Zm0,6.087v3.451h26.024l1.224-3.451Z" transform="translate(-1250 -1677)"/>
      <path id="Path_8442" data-name="Path 8442" d="M3337.228,7018a4.225,4.225,0,1,1-4.228,4.229A4.224,4.224,0,0,1,3337.228,7018Zm0,2.635a1.593,1.593,0,1,0,1.593,1.593A1.592,1.592,0,0,0,3337.228,7020.635Z" transform="translate(-3319.512 -6983.416)"/>
      <path id="Path_8443" data-name="Path 8443" d="M6480.228,7018a4.225,4.225,0,1,1-4.228,4.229A4.22,4.22,0,0,1,6480.228,7018Zm0,2.635a1.593,1.593,0,1,0,1.593,1.593A1.592,1.592,0,0,0,6480.228,7020.635Z" transform="translate(-6442.16 -6983.416)"/>
    </g>
    <g id="Path_8450" data-name="Path 8450" transform="translate(1896 -743.722)" fill="none">
      <path d="M36.514,0A36.514,36.514,0,1,1,0,36.514,36.514,36.514,0,0,1,36.514,0Z" stroke="none"/>
      <path d="M 36.51427841186523 1.5 C 31.78672409057617 1.5 27.20136642456055 2.425567626953125 22.88560104370117 4.2509765625 C 18.71630096435547 6.014442443847656 14.97157669067383 8.539314270019531 11.75544357299805 11.75544357299805 C 8.539314270019531 14.97157669067383 6.014442443847656 18.71630096435547 4.2509765625 22.88560104370117 C 2.425567626953125 27.20136642456055 1.5 31.78672409057617 1.5 36.51427841186523 C 1.5 41.24183654785156 2.425567626953125 45.82717895507812 4.2509765625 50.1429443359375 C 6.014442443847656 54.3122444152832 8.539314270019531 58.05696868896484 11.75544357299805 61.27310943603516 C 14.97157669067383 64.48924255371094 18.71630096435547 67.01411437988281 22.88560104370117 68.77758026123047 C 27.20136642456055 70.60298919677734 31.78672409057617 71.52855682373047 36.51427841186523 71.52855682373047 C 41.24183654785156 71.52855682373047 45.82717895507812 70.60298919677734 50.1429443359375 68.77758026123047 C 54.3122444152832 67.01411437988281 58.05696868896484 64.48924255371094 61.27310943603516 61.27310943603516 C 64.48924255371094 58.05696868896484 67.01411437988281 54.3122444152832 68.77758026123047 50.1429443359375 C 70.60298919677734 45.82717895507812 71.52855682373047 41.24183654785156 71.52855682373047 36.51427841186523 C 71.52855682373047 31.78672409057617 70.60298919677734 27.20136642456055 68.77758026123047 22.88560104370117 C 67.01411437988281 18.71630096435547 64.48924255371094 14.97157669067383 61.27310943603516 11.75544357299805 C 58.05696868896484 8.539314270019531 54.3122444152832 6.014442443847656 50.1429443359375 4.2509765625 C 45.82717895507812 2.425567626953125 41.24183654785156 1.5 36.51427841186523 1.5 M 36.51427841186523 0 C 56.68054580688477 0 73.02855682373047 16.34799957275391 73.02855682373047 36.51427841186523 C 73.02855682373047 56.68054580688477 56.68054580688477 73.02855682373047 36.51427841186523 73.02855682373047 C 16.34799957275391 73.02855682373047 0 56.68054580688477 0 36.51427841186523 C 0 16.34799957275391 16.34799957275391 0 36.51427841186523 0 Z" stroke="none" fill="#000"/>
    </g>
  </g>
</svg>
