<svg xmlns="http://www.w3.org/2000/svg" width="73.029" height="73.029" viewBox="0 0 73.029 73.029">
  <g id="Group_11427" data-name="Group 11427" transform="translate(-2005.687 974.029)">
    <g id="noun_Popcorn_1134810" transform="translate(2014.646 -961.198)">
      <g id="Group_11404" data-name="Group 11404" transform="translate(8.151 0.198)">
        <path id="Path_8440" data-name="Path 8440" d="M13.973,45.671a1.139,1.139,0,0,0,1.125.962H38.731a3.611,3.611,0,0,0,3.722-3.079L46.5,17.266c.011-.025.026-.045.036-.071a6.194,6.194,0,0,0,.422-2.247,6.4,6.4,0,0,0-1.73-4.427,6.105,6.105,0,0,0-.482-.455,1.114,1.114,0,0,0,.32-.4,3.84,3.84,0,0,0-.994-4.524A6.152,6.152,0,0,0,38.87,3.7,3.942,3.942,0,0,0,37,.829a5.134,5.134,0,0,0-5.381.283A3.634,3.634,0,0,0,30.5,2.344a4.624,4.624,0,0,0-4.567.272l-.01.007,0-.005A6.588,6.588,0,0,0,23.77,1.093,6.254,6.254,0,0,0,21.244.566a6.38,6.38,0,0,0-4.673,2.05,7.224,7.224,0,0,0-1.954,5c0,.222.009.43.026.637s.038.38.065.552a4.482,4.482,0,0,0-.758-.191A4.8,4.8,0,0,0,9.631,10.1a5.589,5.589,0,0,0-.083,7.486ZM11.938,18.115h5.779l.865,9.655a1.057,1.057,0,0,0,.075.261,4.938,4.938,0,0,0-2.27,3.848c0,1.578,1.008,3.066,2.834,4.242l.939,8.235H16.072Zm14.923,0v7.309A17.42,17.42,0,0,0,20.782,26.8L20,18.115h6.858ZM22.454,44.356l-.8-7.047A18.679,18.679,0,0,0,28,38.364a18.7,18.7,0,0,0,6.35-1.054l-.8,7.046H22.454Zm12.7-9.9A14.825,14.825,0,0,1,28,36.088a14.828,14.828,0,0,1-7.149-1.634c-1.39-.784-2.187-1.723-2.187-2.575s.8-1.791,2.187-2.577A14.828,14.828,0,0,1,28,27.669,14.827,14.827,0,0,1,35.149,29.3c1.39.785,2.187,1.724,2.187,2.577S36.539,33.669,35.149,34.455Zm.07-7.655a17.414,17.414,0,0,0-6.08-1.375V18.115H36ZM40.2,43.27a1.362,1.362,0,0,1-1.464,1.086H35.84l.939-8.235c1.826-1.177,2.834-2.664,2.834-4.242a4.933,4.933,0,0,0-2.27-3.847c.03-.084.941-9.916.941-9.916h5.785ZM32.93,2.971a2.891,2.891,0,0,1,2.894-.19,2.19,2.19,0,0,1,.794,2.363,1.138,1.138,0,0,0,1.665,1.147,3.819,3.819,0,0,1,4.236.512,1.609,1.609,0,0,1,.469,1.929,1.123,1.123,0,0,0-.081.284,5.529,5.529,0,0,0-4.068.175l-.012.005A5.194,5.194,0,0,0,37,6.935a4.546,4.546,0,0,0-3.658-.722,5.419,5.419,0,0,0-.9-2.207c0-.018,0-.035-.007-.053C32.4,3.818,32.317,3.406,32.93,2.971ZM11.288,11.66a2.588,2.588,0,0,1,2.293-.8,2.337,2.337,0,0,1,.4.1l1.8.626a1.138,1.138,0,0,0,1.495-1.266L16.965,8.5c-.021-.133-.072-.728-.072-.887a4.962,4.962,0,0,1,1.333-3.436,4.14,4.14,0,0,1,4.63-1,4.32,4.32,0,0,1,1.41,1l.653.691a1.138,1.138,0,0,0,1.441.176l.8-.514a2.418,2.418,0,0,1,2.971.253A3.072,3.072,0,0,1,31.094,6.6l.184,1.156a1.137,1.137,0,0,0,1.364.934l.319-.07c1.323-.294,1.893-.387,2.747.2a2.912,2.912,0,0,1,1.026,1.282l.446,1.057a1.138,1.138,0,0,0,1.514.6l1.073-.479a3.384,3.384,0,0,1,3.808.815,4.138,4.138,0,0,1,1.107,2.863,3.873,3.873,0,0,1-.116.889H24.116A4.258,4.258,0,0,1,22.111,14.6a2.411,2.411,0,0,1-.511-1.667,2.755,2.755,0,0,1,2.692-2.6,2.128,2.128,0,0,1,1.58.66,2.019,2.019,0,0,1,.445.743,1.139,1.139,0,0,0,2.158-.728,4.327,4.327,0,0,0-.937-1.566A4.386,4.386,0,0,0,24.287,8.06a5.029,5.029,0,0,0-4.96,4.731,4.564,4.564,0,0,0,.888,3.047H11.072a3.294,3.294,0,0,1,.216-4.177Z" transform="translate(-8.151 -0.198)"/>
      </g>
    </g>
    <g id="Path_8444" data-name="Path 8444" transform="translate(2005.687 -974.029)" fill="none">
      <path d="M36.514,0A36.514,36.514,0,1,1,0,36.514,36.514,36.514,0,0,1,36.514,0Z" stroke="none"/>
      <path d="M 36.51427841186523 1.5 C 31.78672409057617 1.5 27.20136642456055 2.425567626953125 22.88560104370117 4.2509765625 C 18.71630096435547 6.014442443847656 14.97157669067383 8.539314270019531 11.75544357299805 11.75544357299805 C 8.539314270019531 14.97157669067383 6.014442443847656 18.71630096435547 4.2509765625 22.88560104370117 C 2.425567626953125 27.20136642456055 1.5 31.78672409057617 1.5 36.51427841186523 C 1.5 41.24183654785156 2.425567626953125 45.82717895507812 4.2509765625 50.1429443359375 C 6.014442443847656 54.3122444152832 8.539314270019531 58.05696868896484 11.75544357299805 61.27310943603516 C 14.97157669067383 64.48924255371094 18.71630096435547 67.01411437988281 22.88560104370117 68.77758026123047 C 27.20136642456055 70.60298919677734 31.78672409057617 71.52855682373047 36.51427841186523 71.52855682373047 C 41.24183654785156 71.52855682373047 45.82717895507812 70.60298919677734 50.1429443359375 68.77758026123047 C 54.3122444152832 67.01411437988281 58.05696868896484 64.48924255371094 61.27310943603516 61.27310943603516 C 64.48924255371094 58.05696868896484 67.01411437988281 54.3122444152832 68.77758026123047 50.1429443359375 C 70.60298919677734 45.82717895507812 71.52855682373047 41.24183654785156 71.52855682373047 36.51427841186523 C 71.52855682373047 31.78672409057617 70.60298919677734 27.20136642456055 68.77758026123047 22.88560104370117 C 67.01411437988281 18.71630096435547 64.48924255371094 14.97157669067383 61.27310943603516 11.75544357299805 C 58.05696868896484 8.539314270019531 54.3122444152832 6.014442443847656 50.1429443359375 4.2509765625 C 45.82717895507812 2.425567626953125 41.24183654785156 1.5 36.51427841186523 1.5 M 36.51427841186523 0 C 56.68054580688477 0 73.02855682373047 16.34799957275391 73.02855682373047 36.51427841186523 C 73.02855682373047 56.68054580688477 56.68054580688477 73.02855682373047 36.51427841186523 73.02855682373047 C 16.34799957275391 73.02855682373047 0 56.68054580688477 0 36.51427841186523 C 0 16.34799957275391 16.34799957275391 0 36.51427841186523 0 Z" stroke="none" fill="#000"/>
    </g>
  </g>
</svg>
