<svg xmlns="http://www.w3.org/2000/svg" width="73.029" height="73.029" viewBox="0 0 73.029 73.029">
  <g id="Group_11426" data-name="Group 11426" transform="translate(-1895.687 974.029)">
    <g id="Group_11406" data-name="Group 11406" transform="translate(779.087 -214.031)">
      <path id="Path_8394" data-name="Path 8394" d="M325.972,488.866H306.406a1.306,1.306,0,1,0,0,2.612h19.566a1.306,1.306,0,0,0,0-2.612Zm-17.3-3.17a1.309,1.309,0,0,0,1.306-1.306V468.506a1.306,1.306,0,1,0-2.612,0V484.39A1.309,1.309,0,0,0,308.673,485.7Zm7.634,0a1.309,1.309,0,0,0,1.306-1.306V468.506a1.306,1.306,0,1,0-2.612,0V484.39A1.309,1.309,0,0,0,316.307,485.7Zm7.853,0a1.309,1.309,0,0,0,1.306-1.306V468.506a1.306,1.306,0,1,0-2.612,0V484.39A1.3,1.3,0,0,0,324.16,485.7Z" transform="translate(835.049 -1196.096)"/>
      <path id="Path_8395" data-name="Path 8395" d="M212.116,83.351H207.03V82.189a.781.781,0,0,1,.351-.662,5.736,5.736,0,0,0,2.75-4.8,5.956,5.956,0,0,0-4.453-5.592.792.792,0,0,1-.454-.362,4.791,4.791,0,0,0-4.136-2.215h-.069a.794.794,0,0,1-.713-.391A8.734,8.734,0,0,0,192.6,63.9a8.907,8.907,0,0,0-7.047,3.262.8.8,0,0,1-.932.242,5.275,5.275,0,0,0-1.95-.374,5.065,5.065,0,0,0-3.509,1.375.755.755,0,0,1-.616.2,5.221,5.221,0,0,0-.736-.052A4.8,4.8,0,0,0,172.8,73.1v8.468a4.521,4.521,0,0,0,2.675,4.021.788.788,0,0,1,.449.713v25.745a3.418,3.418,0,0,0,3.417,3.417h24.278a3.418,3.418,0,0,0,3.417-3.417v-5.022h5.086a2.62,2.62,0,0,0,2.618-2.618V85.968A2.628,2.628,0,0,0,212.116,83.351Zm-8.5,29.5H179.335a.8.8,0,0,1-.8-.8V86.728a.8.8,0,0,1,.616-.777,5.018,5.018,0,0,0,2.963-2.071.819.819,0,0,1,.932-.345,5.2,5.2,0,0,0,1.432.207,5.048,5.048,0,0,0,2.675-.759.788.788,0,0,1,.788-.023,4.4,4.4,0,0,0,2.048.506,4.178,4.178,0,0,0,3.509-1.824.812.812,0,0,1,1-.288,7.136,7.136,0,0,0,2.842.587,7.279,7.279,0,0,0,2.06-.3.831.831,0,0,1,.662.075,7.089,7.089,0,0,0,3.515.92h.029a.822.822,0,0,1,.823.823v28.587a.824.824,0,0,1-.817.8Zm3.4-34.529a4.362,4.362,0,0,1-3.452,1.7c-1.553,0-2.29-1.444-3.337-1.444s-1.5.719-2.894.742c-.834,0-2.215-1.386-4.136-.909a2.264,2.264,0,0,0-1.576,1.266,1.744,1.744,0,0,1-1.64,1.162c-.57,0-1.11-1.2-2.508-1.162s-2.2,1.444-3,1.444a2.374,2.374,0,0,1-1.921-.949l-.915-1.26a.8.8,0,0,0-1.45.466v2.192a2.05,2.05,0,0,1-1.651,1.829,2.842,2.842,0,0,1-.736.1,2.624,2.624,0,0,1-1.881-.759,1.691,1.691,0,0,1-.506-1.168V73.1a2.223,2.223,0,0,1,2.387-1.927,2.678,2.678,0,0,1,1.1.23l.443.19a.807.807,0,0,0,1.041-.38l.213-.431a2.286,2.286,0,0,1,2.065-1.133,2.371,2.371,0,0,1,1.9.869l.57.759a.8.8,0,0,0,1.4-.219l.311-.892a6,6,0,0,1,5.753-3.647,5.842,5.842,0,0,1,5.839,3.952l.15.541a.8.8,0,0,0,1.064.535l.524-.2a2.547,2.547,0,0,1,.909-.167,2.064,2.064,0,0,1,2.065,1.346l.086.328a.808.808,0,0,0,.662.593l.334.046a3.513,3.513,0,0,1,3.279,3.239A2.832,2.832,0,0,1,207.013,78.317Zm.017,26.09V85.968h5.086v18.438Z" transform="translate(959.738 -815.998)"/>
    </g>
    <g id="Path_8449" data-name="Path 8449" transform="translate(1895.687 -974.029)" fill="none">
      <path d="M36.514,0A36.514,36.514,0,1,1,0,36.514,36.514,36.514,0,0,1,36.514,0Z" stroke="none"/>
      <path d="M 36.51427841186523 1.5 C 31.78672409057617 1.5 27.20136642456055 2.425567626953125 22.88560104370117 4.2509765625 C 18.71630096435547 6.014442443847656 14.97157669067383 8.539314270019531 11.75544357299805 11.75544357299805 C 8.539314270019531 14.97157669067383 6.014442443847656 18.71630096435547 4.2509765625 22.88560104370117 C 2.425567626953125 27.20136642456055 1.5 31.78672409057617 1.5 36.51427841186523 C 1.5 41.24183654785156 2.425567626953125 45.82717895507812 4.2509765625 50.1429443359375 C 6.014442443847656 54.3122444152832 8.539314270019531 58.05696868896484 11.75544357299805 61.27310943603516 C 14.97157669067383 64.48924255371094 18.71630096435547 67.01411437988281 22.88560104370117 68.77758026123047 C 27.20136642456055 70.60298919677734 31.78672409057617 71.52855682373047 36.51427841186523 71.52855682373047 C 41.24183654785156 71.52855682373047 45.82717895507812 70.60298919677734 50.1429443359375 68.77758026123047 C 54.3122444152832 67.01411437988281 58.05696868896484 64.48924255371094 61.27310943603516 61.27310943603516 C 64.48924255371094 58.05696868896484 67.01411437988281 54.3122444152832 68.77758026123047 50.1429443359375 C 70.60298919677734 45.82717895507812 71.52855682373047 41.24183654785156 71.52855682373047 36.51427841186523 C 71.52855682373047 31.78672409057617 70.60298919677734 27.20136642456055 68.77758026123047 22.88560104370117 C 67.01411437988281 18.71630096435547 64.48924255371094 14.97157669067383 61.27310943603516 11.75544357299805 C 58.05696868896484 8.539314270019531 54.3122444152832 6.014442443847656 50.1429443359375 4.2509765625 C 45.82717895507812 2.425567626953125 41.24183654785156 1.5 36.51427841186523 1.5 M 36.51427841186523 0 C 56.68054580688477 0 73.02855682373047 16.34799957275391 73.02855682373047 36.51427841186523 C 73.02855682373047 56.68054580688477 56.68054580688477 73.02855682373047 36.51427841186523 73.02855682373047 C 16.34799957275391 73.02855682373047 0 56.68054580688477 0 36.51427841186523 C 0 16.34799957275391 16.34799957275391 0 36.51427841186523 0 Z" stroke="none" fill="#000"/>
    </g>
  </g>
</svg>
