<svg xmlns="http://www.w3.org/2000/svg" width="73.029" height="73.029" viewBox="0 0 73.029 73.029">
  <g id="Group_11434" data-name="Group 11434" transform="translate(-1896 857)">
    <g id="noun_Lotus_2242188" transform="translate(1900.595 -852.37)">
      <g id="Group_11400" data-name="Group 11400">
        <path id="Path_8432" data-name="Path 8432" d="M33.027,39.867a23.872,23.872,0,0,1,.509,5.5,17.242,17.242,0,0,1,5.189-4.609h0a.982.982,0,0,1,.462-.26,26.337,26.337,0,0,1,10.494-2.9c1.851-4.1,2.367-9.146,1.509-15.03A34.769,34.769,0,0,0,42.223,27C37.312,30.463,34.223,34.79,33.027,39.867ZM48,26.292h2a15.238,15.238,0,0,1-2.168,7.555l-1.664-1.11A13.31,13.31,0,0,0,48,26.292Z"/>
        <path id="Path_8433" data-name="Path 8433" d="M32,36.5a24.185,24.185,0,0,1,8.493-10.683c-1.9-6.28-6.584-10.888-8.345-12.447-4.063,4.289-6.714,8.653-7.923,12.992A23.833,23.833,0,0,1,32,36.5ZM31,18.292h2v2H31Zm0,4h2v2H31Zm0,4h2v2H31Z"/>
        <path id="Path_8434" data-name="Path 8434" d="M33.323,49.688a30.31,30.31,0,0,0,10.283,1.371c7.487-.409,12.86-4.115,15.989-11.019C55.06,39.269,38.713,37.433,33.323,49.688Z"/>
        <path id="Path_8435" data-name="Path 8435" d="M30.464,45.37a23.822,23.822,0,0,1,.51-5.5,21.426,21.426,0,0,0-8.492-12.345h0a34.439,34.439,0,0,0-9.672-4.95c-.858,5.884-.342,10.927,1.509,15.031C19.974,38.056,26.413,39.93,30.464,45.37ZM16,26.291a13.4,13.4,0,0,0,1.832,6.446l-1.664,1.11A15.238,15.238,0,0,1,14,26.292Z"/>
        <path id="Path_8436" data-name="Path 8436" d="M30.677,49.688C25.286,37.432,8.938,39.268,4.405,40.04c3.129,6.9,8.5,10.61,15.989,11.019a30.251,30.251,0,0,0,10.283-1.371Z"/>
      </g>
    </g>
    <g id="Path_8448" data-name="Path 8448" transform="translate(1896 -857)" fill="none">
      <path d="M36.514,0A36.514,36.514,0,1,1,0,36.514,36.514,36.514,0,0,1,36.514,0Z" stroke="none"/>
      <path d="M 36.51427841186523 1.5 C 31.78672409057617 1.5 27.20136642456055 2.425567626953125 22.88560104370117 4.2509765625 C 18.71630096435547 6.014442443847656 14.97157669067383 8.539314270019531 11.75544357299805 11.75544357299805 C 8.539314270019531 14.97157669067383 6.014442443847656 18.71630096435547 4.2509765625 22.88560104370117 C 2.425567626953125 27.20136642456055 1.5 31.78672409057617 1.5 36.51427841186523 C 1.5 41.24183654785156 2.425567626953125 45.82717895507812 4.2509765625 50.1429443359375 C 6.014442443847656 54.3122444152832 8.539314270019531 58.05696868896484 11.75544357299805 61.27310943603516 C 14.97157669067383 64.48924255371094 18.71630096435547 67.01411437988281 22.88560104370117 68.77758026123047 C 27.20136642456055 70.60298919677734 31.78672409057617 71.52855682373047 36.51427841186523 71.52855682373047 C 41.24183654785156 71.52855682373047 45.82717895507812 70.60298919677734 50.1429443359375 68.77758026123047 C 54.3122444152832 67.01411437988281 58.05696868896484 64.48924255371094 61.27310943603516 61.27310943603516 C 64.48924255371094 58.05696868896484 67.01411437988281 54.3122444152832 68.77758026123047 50.1429443359375 C 70.60298919677734 45.82717895507812 71.52855682373047 41.24183654785156 71.52855682373047 36.51427841186523 C 71.52855682373047 31.78672409057617 70.60298919677734 27.20136642456055 68.77758026123047 22.88560104370117 C 67.01411437988281 18.71630096435547 64.48924255371094 14.97157669067383 61.27310943603516 11.75544357299805 C 58.05696868896484 8.539314270019531 54.3122444152832 6.014442443847656 50.1429443359375 4.2509765625 C 45.82717895507812 2.425567626953125 41.24183654785156 1.5 36.51427841186523 1.5 M 36.51427841186523 0 C 56.68054580688477 0 73.02855682373047 16.34799957275391 73.02855682373047 36.51427841186523 C 73.02855682373047 56.68054580688477 56.68054580688477 73.02855682373047 36.51427841186523 73.02855682373047 C 16.34799957275391 73.02855682373047 0 56.68054580688477 0 36.51427841186523 C 0 16.34799957275391 16.34799957275391 0 36.51427841186523 0 Z" stroke="none" fill="#000"/>
    </g>
  </g>
</svg>
