<svg xmlns="http://www.w3.org/2000/svg" width="73.029" height="73.029" viewBox="0 0 73.029 73.029">
  <g id="Group_11430" data-name="Group 11430" transform="translate(-2111.687 857.029)">
    <g id="noun_beauty_2139440" transform="translate(2120.69 -846.119)">
      <path id="Path_8420" data-name="Path 8420" d="M51.443,42.588a10.582,10.582,0,0,0-2.559-6.914l-1.814.981a8.582,8.582,0,0,1,2.373,5.933v7.933a5.39,5.39,0,0,1-3.925,5.173,16.636,16.636,0,0,1-8.965,0,5.389,5.389,0,0,1-3.925-5.173V44.469l-3.554,1.923a13.192,13.192,0,0,0-1.059,5.184V65.337H54.055V51.575a13.247,13.247,0,0,0-2.613-7.894Z" transform="translate(-11.496 -16.354)"/>
      <path id="Path_8421" data-name="Path 8421" d="M2.862,0H43.813a2.862,2.862,0,0,1,2.862,2.862V5.388A2.862,2.862,0,0,1,43.813,8.25H2.862A2.862,2.862,0,0,1,0,5.388V2.862A2.862,2.862,0,0,1,2.862,0Z" transform="translate(5.023 25.177) rotate(-28.414)"/>
    </g>
    <g id="Path_8446" data-name="Path 8446" transform="translate(2111.687 -857.029)" fill="none">
      <path d="M36.514,0A36.514,36.514,0,1,1,0,36.514,36.514,36.514,0,0,1,36.514,0Z" stroke="none"/>
      <path d="M 36.51427841186523 1.5 C 31.78672409057617 1.5 27.20136642456055 2.425567626953125 22.88560104370117 4.2509765625 C 18.71630096435547 6.014442443847656 14.97157669067383 8.539314270019531 11.75544357299805 11.75544357299805 C 8.539314270019531 14.97157669067383 6.014442443847656 18.71630096435547 4.2509765625 22.88560104370117 C 2.425567626953125 27.20136642456055 1.5 31.78672409057617 1.5 36.51427841186523 C 1.5 41.24183654785156 2.425567626953125 45.82717895507812 4.2509765625 50.1429443359375 C 6.014442443847656 54.3122444152832 8.539314270019531 58.05696868896484 11.75544357299805 61.27310943603516 C 14.97157669067383 64.48924255371094 18.71630096435547 67.01411437988281 22.88560104370117 68.77758026123047 C 27.20136642456055 70.60298919677734 31.78672409057617 71.52855682373047 36.51427841186523 71.52855682373047 C 41.24183654785156 71.52855682373047 45.82717895507812 70.60298919677734 50.1429443359375 68.77758026123047 C 54.3122444152832 67.01411437988281 58.05696868896484 64.48924255371094 61.27310943603516 61.27310943603516 C 64.48924255371094 58.05696868896484 67.01411437988281 54.3122444152832 68.77758026123047 50.1429443359375 C 70.60298919677734 45.82717895507812 71.52855682373047 41.24183654785156 71.52855682373047 36.51427841186523 C 71.52855682373047 31.78672409057617 70.60298919677734 27.20136642456055 68.77758026123047 22.88560104370117 C 67.01411437988281 18.71630096435547 64.48924255371094 14.97157669067383 61.27310943603516 11.75544357299805 C 58.05696868896484 8.539314270019531 54.3122444152832 6.014442443847656 50.1429443359375 4.2509765625 C 45.82717895507812 2.425567626953125 41.24183654785156 1.5 36.51427841186523 1.5 M 36.51427841186523 0 C 56.68054580688477 0 73.02855682373047 16.34799957275391 73.02855682373047 36.51427841186523 C 73.02855682373047 56.68054580688477 56.68054580688477 73.02855682373047 36.51427841186523 73.02855682373047 C 16.34799957275391 73.02855682373047 0 56.68054580688477 0 36.51427841186523 C 0 16.34799957275391 16.34799957275391 0 36.51427841186523 0 Z" stroke="none" fill="#000"/>
    </g>
  </g>
</svg>
