<svg xmlns="http://www.w3.org/2000/svg" width="73.029" height="73.029" viewBox="0 0 73.029 73.029">
  <g id="Group_11433" data-name="Group 11433" transform="translate(-2005.687 857.029)">
    <g id="noun_Gym_835270" transform="translate(2014.844 -847)">
      <g id="Group_11399" data-name="Group 11399" transform="translate(5 5)">
        <g id="Group_11398" data-name="Group 11398">
          <g id="Group_11397" data-name="Group 11397">
            <rect id="Rectangle_1661" data-name="Rectangle 1661" width="18.975" height="8.578" transform="translate(32.098 18.68) rotate(135)"/>
            <path id="Path_8426" data-name="Path 8426" d="M9.516,50.918a2.975,2.975,0,0,0,.195,4.189l1.578,1.578a4.387,4.387,0,0,1,.337.3l10.7,10.7a4.493,4.493,0,0,1,.3.337L24.208,69.6A2.837,2.837,0,1,0,28.2,65.609l-14.5-14.5A2.974,2.974,0,0,0,9.516,50.918Z" transform="translate(-6.884 -27.717)"/>
            <path id="Path_8427" data-name="Path 8427" d="M5.485,66.316a1.9,1.9,0,0,0,.144,2.678l10.7,10.7a1.8,1.8,0,1,0,2.535-2.535l-10.7-10.7A1.9,1.9,0,0,0,5.485,66.316Z" transform="translate(-5 -35.609)"/>
            <path id="Path_8428" data-name="Path 8428" d="M56.987,11.625a4.492,4.492,0,0,1-.3-.337L55.106,9.71a2.975,2.975,0,0,0-4.189-.195,2.975,2.975,0,0,0,.195,4.189l14.5,14.5A2.837,2.837,0,1,0,69.6,24.207l-1.578-1.578a4.387,4.387,0,0,1-.337-.3Z" transform="translate(-27.716 -6.883)"/>
            <path id="Path_8429" data-name="Path 8429" d="M66.316,5.485a1.9,1.9,0,0,0,.144,2.679l10.7,10.7a1.8,1.8,0,1,0,2.535-2.535l-10.7-10.7A1.9,1.9,0,0,0,66.316,5.485Z" transform="translate(-35.609 -5)"/>
            <path id="Path_8430" data-name="Path 8430" d="M11.482,85.114a1.674,1.674,0,0,1,.025,2.367h0a1.674,1.674,0,0,1-2.367-.025l-.916-.916A1.674,1.674,0,0,1,8.2,84.173h0a1.674,1.674,0,0,1,2.367.025Z" transform="translate(-6.369 -44.598)"/>
            <path id="Path_8431" data-name="Path 8431" d="M84.645,11.952a1.674,1.674,0,0,0,2.367.025h0a1.674,1.674,0,0,0-.025-2.367l-.916-.916A1.674,1.674,0,0,0,83.7,8.669h0a1.674,1.674,0,0,0,.025,2.367Z" transform="translate(-44.363 -6.606)"/>
          </g>
        </g>
      </g>
    </g>
    <g id="Path_8447" data-name="Path 8447" transform="translate(2005.687 -857.029)" fill="none">
      <path d="M36.514,0A36.514,36.514,0,1,1,0,36.514,36.514,36.514,0,0,1,36.514,0Z" stroke="none"/>
      <path d="M 36.51427841186523 1.5 C 31.78672409057617 1.5 27.20136642456055 2.425567626953125 22.88560104370117 4.2509765625 C 18.71630096435547 6.014442443847656 14.97157669067383 8.539314270019531 11.75544357299805 11.75544357299805 C 8.539314270019531 14.97157669067383 6.014442443847656 18.71630096435547 4.2509765625 22.88560104370117 C 2.425567626953125 27.20136642456055 1.5 31.78672409057617 1.5 36.51427841186523 C 1.5 41.24183654785156 2.425567626953125 45.82717895507812 4.2509765625 50.1429443359375 C 6.014442443847656 54.3122444152832 8.539314270019531 58.05696868896484 11.75544357299805 61.27310943603516 C 14.97157669067383 64.48924255371094 18.71630096435547 67.01411437988281 22.88560104370117 68.77758026123047 C 27.20136642456055 70.60298919677734 31.78672409057617 71.52855682373047 36.51427841186523 71.52855682373047 C 41.24183654785156 71.52855682373047 45.82717895507812 70.60298919677734 50.1429443359375 68.77758026123047 C 54.3122444152832 67.01411437988281 58.05696868896484 64.48924255371094 61.27310943603516 61.27310943603516 C 64.48924255371094 58.05696868896484 67.01411437988281 54.3122444152832 68.77758026123047 50.1429443359375 C 70.60298919677734 45.82717895507812 71.52855682373047 41.24183654785156 71.52855682373047 36.51427841186523 C 71.52855682373047 31.78672409057617 70.60298919677734 27.20136642456055 68.77758026123047 22.88560104370117 C 67.01411437988281 18.71630096435547 64.48924255371094 14.97157669067383 61.27310943603516 11.75544357299805 C 58.05696868896484 8.539314270019531 54.3122444152832 6.014442443847656 50.1429443359375 4.2509765625 C 45.82717895507812 2.425567626953125 41.24183654785156 1.5 36.51427841186523 1.5 M 36.51427841186523 0 C 56.68054580688477 0 73.02855682373047 16.34799957275391 73.02855682373047 36.51427841186523 C 73.02855682373047 56.68054580688477 56.68054580688477 73.02855682373047 36.51427841186523 73.02855682373047 C 16.34799957275391 73.02855682373047 0 56.68054580688477 0 36.51427841186523 C 0 16.34799957275391 16.34799957275391 0 36.51427841186523 0 Z" stroke="none" fill="#000"/>
    </g>
  </g>
</svg>
