<svg xmlns="http://www.w3.org/2000/svg" width="103.523" height="59.461" viewBox="0 0 103.523 59.461">
  <g id="Group_11442" data-name="Group 11442" transform="translate(-155.239 -547.385)">
    <text id="Login" transform="translate(182 583.615)" fill="#f27111" font-size="20" font-family="NunitoSans-Black, Nunito Sans" font-weight="800"><tspan x="0" y="0">Login</tspan></text>
    <path id="Path_7905" data-name="Path 7905" d="M1322.839,608.8l4.095-.619a23.348,23.348,0,0,0-.121-2.484c-.537-3.352-1.053-6.71-1.7-10.042a82.935,82.935,0,0,1-1.35-17.11c.032-2.231.052-4.466.189-6.691.144-2.326.366-4.652.658-6.964.286-2.265-.1-4.653,1.217-6.752.237-.378.151-.949.249-1.424a2,2,0,0,0-.847-2.079c-.813,0-1.67.015-2.527,0-1.356-.029-2.71-.11-4.064-.114a18.3,18.3,0,0,0-4.028.147,8.286,8.286,0,0,1-4.215-.4,4.55,4.55,0,0,0-1.4.11c-1.887.126-3.816.819-5.478-.508a7.218,7.218,0,0,1-3.8.662c-3.006-.149-6.024-.046-9.037-.085-2.962-.039-5.9,1.164-8.883.2a1.044,1.044,0,0,0-.57.079,3.26,3.26,0,0,1-2.27-.007,1.457,1.457,0,0,0-1.132-.054c-1.4.96-2.985.491-4.473.721-4.677.721-9.444.375-14.117,1.3a50.435,50.435,0,0,1-6.954.472,43.949,43.949,0,0,1-5.78.233,24.73,24.73,0,0,0-6.028.434,5.482,5.482,0,0,1-1.453.045c-2.689-.284-5.377-.574-8.061-.913-.86-.108-1.7-.38-2.55-.563a1.2,1.2,0,0,0-1.6,1.181c-.037.482.012.97.021,1.455.016.751.4,1.542-.227,2.215l-2.845.362a17.825,17.825,0,0,0-.326,2.158,12.18,12.18,0,0,0,.187,2.028c.121.863.367,1.718.408,2.582.158,3.366.253,6.736.379,10.1a47.132,47.132,0,0,0,.339,6.677,29.458,29.458,0,0,1,.4,6.944,19.108,19.108,0,0,0-.065,2.618c.373,4.295-.523,8.486-.983,12.714-1.226,1.718-.446,3.545-.435,5.341a3.333,3.333,0,0,0,.942.25,9.678,9.678,0,0,1,2.547-.242,4.763,4.763,0,0,0,2.545-.218,4.339,4.339,0,0,1,1.4.094,3.693,3.693,0,0,0,1.4.035,12.459,12.459,0,0,1,4.61-.355c1.638.027,3.283-.039,4.919-.159,2.9-.213,5.784-.647,8.679-.7,1.727-.028,3.5-.009,5.2.132,1.841.154,3.666-.025,5.483.157a3.577,3.577,0,0,0,2.515-.4,1.926,1.926,0,0,1,1.058-.061c1.054.062,2.116.088,3.158.246,1.9.288,3.811-.158,5.687.013a28.721,28.721,0,0,0,8.1-.091,5.647,5.647,0,0,1,2.844.133c.981.356,1.414-.266,2.24-.729.251,1.516,1.285.72,2.146.842a62.2,62.2,0,0,0,11.86.575c.857-.044,1.775.926,2.616-.157.127-.164.83-.1,1.087.1,1.124.85,2.407.564,3.643.665a28.691,28.691,0,0,0,7.549.067,1.639,1.639,0,0,1,.846.065c1.539.6,3.077.1,4.6-.032a5.328,5.328,0,0,0,1.7-.843c-.084-.675-.171-1.152-.2-1.634C1322.817,609.979,1322.839,609.416,1322.839,608.8Zm-73.1-49.283c.137-.034.312.087.469.14l-.405.59c-.187-.179-.4-.311-.386-.383A.539.539,0,0,1,1249.739,559.521Zm-21.353-.591c1.8.161,3.411.307,5.022.449,1.531.134,3.059.318,4.593.382,1.643.067,3.29-.019,4.934.038,1.44.051,2.917-.383,4.357.182a4.084,4.084,0,0,1-2.628.779,6.416,6.416,0,0,0-3.1.558c-.343.212-.926.017-1.4.045-2.295.143-4.588.36-6.885.424a22.313,22.313,0,0,1-3.979-.3c-.347-.052-.735-.579-.885-.972A5.257,5.257,0,0,1,1228.386,558.93Zm1.622,6.443a10.153,10.153,0,0,1-.434,1.55c-.129-.98-.2-1.339-.213-1.7a.977.977,0,0,1,.153-.477c.028-.053.238-.073.247-.055A1.57,1.57,0,0,1,1230.008,565.373Zm-.709,41.809c-.3.434-.769,1.027-1.14,1.675-.3.53-.737.68-1.186.413a1.2,1.2,0,0,1-.465-.932c.109-1.833.4-3.661.43-5.494.08-5.224.311-10.462.017-15.669q-.514-9.138-.658-18.279c-.015-1.061-.186-2.12-.23-3.182a5.317,5.317,0,0,1,.248-1.2l1.56.184c.515,1.385,1.051,2.732,1.5,4.106a3.467,3.467,0,0,1,.073,1.409c-.561,5.427-.25,10.868-.241,16.3a34.537,34.537,0,0,0,.613,4.9q.866,5.889,1.779,11.772c.119.76.4,1.5.553,2.254a14.067,14.067,0,0,1,.121,1.567Zm9.02,4.4c-.057.02-.147-.059-.221-.095l.14-.217.2.1C1238.4,611.452,1238.376,611.568,1238.319,611.587Zm2.286-1.722.044-.1.155.057Zm15.661.1c-.068-.117-.137-.234-.206-.35a3.886,3.886,0,0,1,.485-.151c.021,0,.073.148.111.228Zm1.489-.176a2.177,2.177,0,0,1-.2-.348c-.011-.029.109-.106.169-.161.073.115.146.228.22.343C1257.879,609.674,1257.818,609.73,1257.755,609.784Zm-2.794-4.318c-2.52.1-5.032.424-7.544.693-1.256.135-2.508.33-3.749.568a11.666,11.666,0,0,1-4.024.128,29.777,29.777,0,0,0-5.136.078,3.732,3.732,0,0,1-.442-3.142c.419-2.475.929-4.935,1.4-7.4a18.568,18.568,0,0,0,.347-1.985c.137-1.745.1-3.51.353-5.235.374-2.561-.164-5.026-.524-7.516a2.671,2.671,0,0,0-.647-1.282c-.018,3.127.723,6.194.214,9.328a37.173,37.173,0,0,1-2.192,9.063c-.318-.456-.577-.661-.614-.9-.6-3.934-1.37-7.857-1.694-11.816-.284-3.482-.061-7.007-.061-10.512a1.046,1.046,0,0,1,.02-.291c.32-1.1,1.017-2.255.87-3.288a16.143,16.143,0,0,1,.172-3.418c.072-1.16.016-2.328.016-3.679,1.867-.247,3.67-.482,5.472-.724,4.53-.609,9.056-1.263,13.592-1.82,3.953-.486,7.922-.844,11.879-1.293,5.888-.668,11.805-.845,17.713-1.2,8.061-.487,16.116-.963,24.192-1.117,5.154-.1,10.3-.419,15.456-.613a19.28,19.28,0,0,1,2.215.189c-.342,1.371-.626,2.585-.953,3.789-.942,3.473-2.018,6.915-2.81,10.42a42,42,0,0,0-.794,6.651,53.206,53.206,0,0,0,.248,10.769c.364,2.594.386,5.234.653,7.843.216,2.109.571,4.2.884,6.441a9.8,9.8,0,0,1-4.415.311c-3.3-.51-6.609-.188-9.91-.334-2.623-.116-5.257-.087-7.884-.022-2.408.059-4.81.114-7.222.057-3.492-.081-6.989,0-10.484.041-.674.007-1.345.159-2.02.2-1.251.068-2.5.1-3.755.148a15,15,0,0,0-2.622.113c-2.769.61-5.6.277-8.374.623C1260.169,605.653,1257.565,605.366,1254.961,605.466Zm65.49,4.5a16.777,16.777,0,0,1-3.738.276,16.405,16.405,0,0,0-4.639.09c-1.537.244-3.045-.22-4.616,0a19.231,19.231,0,0,1-4.911-.2,39.95,39.95,0,0,0-8.1-.247,1.469,1.469,0,0,1-.85-.1c-1.6-1.029-3.328-.446-5.009-.429a10.771,10.771,0,0,1-2.024,0,3.323,3.323,0,0,0-2.534.05c-.271.158-.743-.02-1.122-.056a9.656,9.656,0,0,0-2.543-.21,6.212,6.212,0,0,1-2.573-.036,5.7,5.7,0,0,0-1.7.051c-.287.024-.627.274-.84.182-2.466-1.059-4.986.681-7.445-.169a5.9,5.9,0,0,1-3.681-.085c-.5-.109-1.1.3-1.668.355a4.469,4.469,0,0,1-1.412-.186.6.6,0,0,1-.307-.443.642.642,0,0,1,.187-.5c.216-.18.517-.426.744-.391,1.261.19,2.527-.256,3.713-.13,2.128.227,4.231-.5,6.334.019a1.477,1.477,0,0,0,.863.027c1.505-.649,3.047-.257,4.582-.286,2.387-.045,4.77-.333,7.157-.455,1.726-.088,3.458-.068,5.187-.108a56.2,56.2,0,0,1,6.377-.115c3.649.34,7.314-.064,10.955.413,1.039.136,2.135-.248,3.195-.192,2.307.123,4.61.343,6.909.59.968.1,1.919.389,2.966-.8l1.036,2.6C1320.7,609.724,1320.585,609.951,1320.451,609.965Zm.8-6.643c-.4-3.471-1.318-6.869-1.376-10.392-.031-1.938-.4-3.87-.42-5.807-.017-2.031.2-4.066.327-6.1.145-2.223.292-4.445.478-6.664a17.451,17.451,0,0,1,.37-1.912h.354a9,9,0,0,1,.285,1.6c-.006,2.137-.038,4.275-.121,6.41-.16,4.078.723,8.071.97,12.117a51.473,51.473,0,0,0,1.221,6.273c.307,1.62.564,3.25.808,4.881.1.66-.356,1.075-1.049,1.047C1321.97,604.732,1321.373,604.357,1321.253,603.322Z" transform="translate(-1068.173 -6.488)" fill="#f27111" fill-rule="evenodd"/>
  </g>
</svg>
