<svg xmlns="http://www.w3.org/2000/svg" width="133.625" height="65" viewBox="0 0 133.625 65">
  <g id="Group_11445" data-name="Group 11445" transform="translate(-30 -132)">
    <path id="Path_8343" data-name="Path 8343" d="M991.505,289.006c2.338,1.938,5.085,2.545,7.846,3.1.665.133,1.36.114,2.03.228,8.873,1.514,17.447-.1,25.927-2.527a54.707,54.707,0,0,0,5.736-2.134,30.506,30.506,0,0,0,6.884-4.355,14.368,14.368,0,0,0,5.09-8.3,9.123,9.123,0,0,0-1.135-7.031,17.925,17.925,0,0,0-4.856-5.376,42.4,42.4,0,0,0-9.786-5.164c-6.818-2.639-13.821-4.716-20.833-6.739-3.449-1-7.008-1.616-10.529-2.353a98.531,98.531,0,0,0-12.676-2.042c-.13-.01-.247-.193-.492-.4,2.371-.785,4.7-1.425,6.921-2.326,2.518-1.022,4.97-2.222,7.394-3.457a15.8,15.8,0,0,0,2.85-2.025,2.869,2.869,0,0,0,.893-3.171,1.638,1.638,0,0,0-2.309-1.088,9.765,9.765,0,0,0-.983.628,55.7,55.7,0,0,1-11.536,5.526c-4.139,1.477-8.393,2.457-12.636,3.526a37.165,37.165,0,0,0-4.986,1.625,3.831,3.831,0,0,0-2.6,4.439c.46.312.926.657,1.418.958q8.6,5.235,17.209,10.457a10.788,10.788,0,0,0,1.795.949,1.534,1.534,0,0,0,1.9-.932,2.412,2.412,0,0,0-.317-2.736,10.533,10.533,0,0,0-1.982-1.683c-2.111-1.4-4.264-2.727-6.4-4.086-.729-.464-1.452-.937-2.163-1.4.206-.828.769-.545,1.19-.52a128.723,128.723,0,0,1,29.549,5.236q9.1,2.718,17.968,6.07a28.482,28.482,0,0,1,9.581,5.465,20.632,20.632,0,0,1,3.026,3.524,4.806,4.806,0,0,1-.108,5.741,17.732,17.732,0,0,1-6.518,5.715,52.138,52.138,0,0,1-14.6,4.956,61.884,61.884,0,0,1-7.478,1.224,44.723,44.723,0,0,1-16.734-1.868c-.186-.057-.356-.166-.543-.215a1.921,1.921,0,0,0-2.626,1.15A7.08,7.08,0,0,0,991.505,289.006Z" transform="translate(-881.661 -101.684)" fill="#cdffed" fill-rule="evenodd"/>
    <text id="Back" transform="translate(30 188)" fill="#cdffed" font-size="26" font-family="NunitoSans-ExtraBold, Nunito Sans" font-weight="800"><tspan x="0" y="0">Back</tspan></text>
  </g>
</svg>
