<svg xmlns="http://www.w3.org/2000/svg" width="113.226" height="59.461" viewBox="0 0 113.226 59.461">
  <g id="Group_11446" data-name="Group 11446" transform="translate(-150.387 -344.419)">
    <text id="Sign_up" data-name="Sign up" transform="translate(170.387 380.65)" fill="#f27111" font-size="20" font-family="NunitoSans-Black, Nunito Sans" font-weight="800"><tspan x="0" y="0">Sign up</tspan></text>
    <g id="Group_11326" data-name="Group 11326" transform="translate(-1073.024 -209.454)">
      <path id="Path_7905" data-name="Path 7905" d="M1332.159,608.8l4.479-.619a21.336,21.336,0,0,0-.132-2.484c-.587-3.352-1.152-6.71-1.862-10.042a76.006,76.006,0,0,1-1.476-17.11c.035-2.231.057-4.466.207-6.691.158-2.326.4-4.652.72-6.964.313-2.265-.107-4.653,1.331-6.752.259-.378.165-.949.272-1.424a1.924,1.924,0,0,0-.926-2.079c-.889,0-1.827.015-2.764,0-1.483-.029-2.964-.11-4.445-.114a21.87,21.87,0,0,0-4.406.147,9.864,9.864,0,0,1-4.61-.4,5.429,5.429,0,0,0-1.53.11c-2.064.126-4.174.819-5.991-.508a8.55,8.55,0,0,1-4.155.662c-3.288-.149-6.589-.046-9.884-.085-3.24-.039-6.45,1.164-9.716.2a1.24,1.24,0,0,0-.623.079,3.879,3.879,0,0,1-2.483-.007,1.732,1.732,0,0,0-1.238-.054c-1.527.96-3.265.491-4.892.721-5.115.721-10.329.375-15.44,1.3a60.253,60.253,0,0,1-7.606.472,52.543,52.543,0,0,1-6.322.233,29.529,29.529,0,0,0-6.593.434,6.551,6.551,0,0,1-1.589.045c-2.941-.284-5.881-.574-8.817-.913-.941-.108-1.858-.38-2.789-.563a1.3,1.3,0,0,0-1.748,1.181,14.026,14.026,0,0,0,.023,1.455c.017.751.436,1.542-.248,2.215l-3.112.362a16.4,16.4,0,0,0-.357,2.158,11.162,11.162,0,0,0,.2,2.028c.132.863.4,1.718.446,2.582.173,3.366.277,6.736.414,10.1a43.122,43.122,0,0,0,.371,6.677,26.981,26.981,0,0,1,.44,6.944,17.463,17.463,0,0,0-.071,2.618c.408,4.295-.572,8.486-1.075,12.714-1.341,1.718-.488,3.545-.476,5.341a3.923,3.923,0,0,0,1.03.25,11.544,11.544,0,0,1,2.786-.242,5.67,5.67,0,0,0,2.783-.218,5.179,5.179,0,0,1,1.536.094,4.411,4.411,0,0,0,1.531.035,14.862,14.862,0,0,1,5.042-.355c1.792.027,3.591-.039,5.38-.159,3.167-.213,6.326-.647,9.493-.7,1.889-.028,3.827-.009,5.684.132,2.014.154,4.01-.025,6,.157a4.23,4.23,0,0,0,2.751-.4,2.294,2.294,0,0,1,1.157-.061c1.153.062,2.314.088,3.454.246,2.083.288,4.168-.158,6.22.013a34.329,34.329,0,0,0,8.857-.091,6.733,6.733,0,0,1,3.11.133c1.073.356,1.547-.266,2.45-.729.275,1.516,1.406.72,2.347.842a74.34,74.34,0,0,0,12.972.575c.937-.044,1.941.926,2.861-.157.139-.164.908-.1,1.189.1,1.229.85,2.633.564,3.984.665a34.3,34.3,0,0,0,8.256.067,1.953,1.953,0,0,1,.925.065c1.683.6,3.365.1,5.03-.032a6.066,6.066,0,0,0,1.865-.843c-.092-.675-.187-1.152-.214-1.634C1332.135,609.979,1332.159,609.416,1332.159,608.8Zm-79.952-49.283c.15-.034.341.087.513.14l-.443.59c-.2-.179-.442-.311-.422-.383A.562.562,0,0,1,1252.207,559.521Zm-23.354-.591c1.971.161,3.731.307,5.493.449,1.675.134,3.346.318,5.024.382,1.8.067,3.6-.019,5.4.038,1.575.051,3.19-.383,4.765.182a4.77,4.77,0,0,1-2.874.779,7.6,7.6,0,0,0-3.389.558c-.375.212-1.013.017-1.528.045-2.51.143-5.018.36-7.53.424a26.645,26.645,0,0,1-4.352-.3c-.379-.052-.8-.579-.968-.972A4.815,4.815,0,0,1,1228.852,558.93Zm1.774,6.443a9.48,9.48,0,0,1-.475,1.55c-.141-.98-.217-1.339-.233-1.7a.921.921,0,0,1,.167-.477c.031-.053.26-.073.27-.055A1.489,1.489,0,0,1,1230.626,565.373Zm-.776,41.809c-.329.434-.841,1.027-1.247,1.675a.915.915,0,0,1-1.3.413,1.168,1.168,0,0,1-.509-.932c.119-1.833.44-3.661.47-5.494.088-5.224.34-10.462.019-15.669q-.562-9.138-.72-18.279c-.016-1.061-.2-2.12-.252-3.182a4.921,4.921,0,0,1,.271-1.2l1.706.184c.563,1.385,1.15,2.732,1.645,4.106a3.181,3.181,0,0,1,.08,1.409c-.614,5.427-.273,10.868-.264,16.3a31.728,31.728,0,0,0,.67,4.9q.947,5.889,1.946,11.772c.13.76.436,1.5.6,2.254a12.911,12.911,0,0,1,.132,1.567Zm9.865,4.4c-.062.02-.161-.059-.242-.095l.153-.217.22.1C1239.8,611.452,1239.779,611.568,1239.716,611.587Zm2.5-1.722.048-.1.169.057Zm17.129.1c-.074-.117-.15-.234-.225-.35a4.548,4.548,0,0,1,.53-.151c.023,0,.08.148.121.228Zm1.629-.176a2.144,2.144,0,0,1-.221-.348c-.012-.029.119-.106.185-.161.08.115.16.228.241.343C1261.11,609.674,1261.043,609.73,1260.974,609.784Zm-3.056-4.318c-2.756.1-5.5.424-8.251.693-1.374.135-2.743.33-4.1.568a13.935,13.935,0,0,1-4.4.128,35.608,35.608,0,0,0-5.617.078,3.461,3.461,0,0,1-.483-3.142c.458-2.475,1.016-4.935,1.53-7.4a17.1,17.1,0,0,0,.38-1.985c.15-1.745.11-3.51.386-5.235.409-2.561-.179-5.026-.573-7.516a2.592,2.592,0,0,0-.708-1.282c-.02,3.127.791,6.194.234,9.328a34.557,34.557,0,0,1-2.4,9.063c-.348-.456-.631-.661-.672-.9-.657-3.934-1.5-7.857-1.853-11.816-.311-3.482-.067-7.007-.067-10.512a.957.957,0,0,1,.022-.291c.35-1.1,1.112-2.255.952-3.288a14.769,14.769,0,0,1,.188-3.418c.079-1.16.017-2.328.017-3.679,2.042-.247,4.014-.482,5.985-.724,4.955-.609,9.9-1.263,14.866-1.82,4.324-.486,8.665-.844,12.993-1.293,6.44-.668,12.912-.845,19.373-1.2,8.817-.487,17.627-.963,26.46-1.117,5.637-.1,11.269-.419,16.9-.613a23.022,23.022,0,0,1,2.423.189c-.374,1.371-.685,2.585-1.042,3.789-1.03,3.473-2.207,6.915-3.073,10.42a38.56,38.56,0,0,0-.868,6.651,48.684,48.684,0,0,0,.271,10.769c.4,2.594.422,5.234.714,7.843.236,2.109.625,4.2.967,6.441a11.691,11.691,0,0,1-4.829.311c-3.609-.51-7.228-.188-10.839-.334-2.869-.116-5.75-.087-8.623-.022-2.634.059-5.261.114-7.9.057-3.819-.081-7.644,0-11.467.041-.737.007-1.471.159-2.209.2-1.368.068-2.739.1-4.107.148a17.931,17.931,0,0,0-2.868.113c-3.029.61-6.124.277-9.159.623C1263.614,605.653,1260.766,605.366,1257.918,605.466Zm71.629,4.5a20.032,20.032,0,0,1-4.088.276,19.607,19.607,0,0,0-5.074.09c-1.681.244-3.33-.22-5.049,0a22.98,22.98,0,0,1-5.371-.2,47.758,47.758,0,0,0-8.865-.247,1.746,1.746,0,0,1-.93-.1c-1.752-1.029-3.64-.446-5.479-.429a12.879,12.879,0,0,1-2.214,0,3.95,3.95,0,0,0-2.771.05c-.3.158-.813-.02-1.227-.056a11.525,11.525,0,0,0-2.781-.21,7.418,7.418,0,0,1-2.814-.036,6.814,6.814,0,0,0-1.865.051c-.314.024-.686.274-.919.182-2.7-1.059-5.453.681-8.143-.169a7.025,7.025,0,0,1-4.026-.085c-.551-.109-1.205.3-1.824.355a5.319,5.319,0,0,1-1.544-.186.555.555,0,0,1-.131-.945c.236-.18.565-.426.814-.391,1.379.19,2.764-.256,4.061-.13,2.327.227,4.628-.5,6.928.019a1.76,1.76,0,0,0,.944.027c1.646-.649,3.333-.257,5.012-.286,2.611-.045,5.217-.333,7.828-.455,1.888-.088,3.782-.068,5.673-.108a67.217,67.217,0,0,1,6.975-.115c3.991.34,8-.064,11.982.413,1.136.136,2.335-.248,3.494-.192,2.523.123,5.042.343,7.557.59,1.059.1,2.1.389,3.244-.8l1.133,2.6C1329.815,609.724,1329.693,609.951,1329.547,609.965Zm.877-6.643c-.439-3.471-1.442-6.869-1.505-10.392-.034-1.938-.441-3.87-.459-5.807-.019-2.031.214-4.066.358-6.1.158-2.223.319-4.445.523-6.664a16.15,16.15,0,0,1,.4-1.912h.387a8.3,8.3,0,0,1,.312,1.6c-.007,2.137-.042,4.275-.132,6.41-.175,4.078.791,8.071,1.061,12.117a47.576,47.576,0,0,0,1.335,6.273c.336,1.62.617,3.25.884,4.881.107.66-.39,1.075-1.147,1.047C1331.208,604.732,1330.555,604.357,1330.424,603.322Z" fill="#f27111" fill-rule="evenodd"/>
      <path id="Path_7906" data-name="Path 7906" d="M1233.094,575.869a1.884,1.884,0,0,0,.2.333c.02.024.139-.041.213-.063l-.191-.334Z" fill="#f27111" fill-rule="evenodd"/>
      <path id="Path_7907" data-name="Path 7907" d="M1232.512,574.177c-.02.08-.071.17-.051.238s.117.1.181.144c.016-.078.063-.166.042-.232S1232.573,574.226,1232.512,574.177Z" fill="#f27111" fill-rule="evenodd"/>
      <path id="Path_7908" data-name="Path 7908" d="M1234.118,578.173c0,.024.123.041.188.062a.626.626,0,0,0,.054-.222c-.005-.029-.118-.045-.182-.066A.7.7,0,0,0,1234.118,578.173Z" fill="#f27111" fill-rule="evenodd"/>
    </g>
  </g>
</svg>
