<svg xmlns="http://www.w3.org/2000/svg" width="16.999" height="13.6" viewBox="0 0 16.999 13.6">
  <path id="Icon_awesome-eye-slash" data-name="Icon awesome-eye-slash" d="M8.5,10.624A3.811,3.811,0,0,1,4.7,7.089L1.918,4.936A8.853,8.853,0,0,0,.942,6.412a.859.859,0,0,0,0,.775A8.519,8.519,0,0,0,8.5,11.9a8.25,8.25,0,0,0,2.069-.278L9.19,10.555a3.828,3.828,0,0,1-.691.069Zm8.336,1.543L13.9,9.9a8.8,8.8,0,0,0,2.158-2.711.859.859,0,0,0,0-.775A8.519,8.519,0,0,0,8.5,1.7a8.185,8.185,0,0,0-3.913,1L1.208.089a.425.425,0,0,0-.6.075L.09.835a.425.425,0,0,0,.075.6L15.792,13.51a.425.425,0,0,0,.6-.075l.522-.671a.425.425,0,0,0-.075-.6ZM11.955,8.4l-1.044-.807A2.517,2.517,0,0,0,7.827,4.35a1.266,1.266,0,0,1,.247.749,1.239,1.239,0,0,1-.041.266L6.079,3.854A3.78,3.78,0,0,1,8.5,2.975,3.823,3.823,0,0,1,12.325,6.8a3.734,3.734,0,0,1-.369,1.6Z" transform="translate(0 0)" fill="#f27111" opacity="0.4"/>
</svg>
