<svg xmlns="http://www.w3.org/2000/svg" width="73.029" height="73.029" viewBox="0 0 73.029 73.029">
  <g id="Group_11428" data-name="Group 11428" transform="translate(-2111.687 974.029)">
    <g id="noun_Mascara_575319" transform="translate(2121.957 -956.344)">
      <g id="Group_11403" data-name="Group 11403" transform="translate(0 0.815)">
        <g id="Group_11402" data-name="Group 11402">
          <g id="Group_11401" data-name="Group 11401" transform="translate(0 0)">
            <path id="Path_8437" data-name="Path 8437" d="M51.069,23.433a.875.875,0,1,0,1.088-1.37l-1.8-1.429c.59-.513,1.17-1.04,1.731-1.6A.875.875,0,0,0,50.856,17.8a31.9,31.9,0,0,1-44.809.178,1.551,1.551,0,0,0-.982-.444c-1-.069-3.315-.466-3.315-2.657a.875.875,0,0,0-1.75,0c0,2.962,2.5,4.21,4.87,4.4.317.311.642.606.968.9L2.816,23.951a.875.875,0,0,0,1.366,1.094l2.983-3.728q1.052.858,2.159,1.615l-3.054,4.58a.875.875,0,1,0,1.456.97l3.065-4.6c.667.41,1.344.8,2.033,1.16L9.719,31.1a.874.874,0,0,0,.38,1.177.859.859,0,0,0,.4.1.874.874,0,0,0,.779-.476l3.12-6.083c.663.3,1.337.572,2.015.828l-2.371,7.206a.875.875,0,1,0,1.662.547l2.361-7.176c.629.2,1.262.384,1.9.547L18.392,34.8a.873.873,0,0,0,.663,1.044.853.853,0,0,0,.192.022.875.875,0,0,0,.853-.684l1.569-7.031c.624.126,1.248.239,1.877.329l-.8,8.176a.875.875,0,0,0,.786.955c.029,0,.058,0,.086,0a.875.875,0,0,0,.87-.791l.793-8.144c.611.056,1.223.09,1.835.113V37.62a.875.875,0,1,0,1.75,0v-8.8q.962-.014,1.922-.085l1.6,7.327a.874.874,0,0,0,.853.688.809.809,0,0,0,.187-.021.873.873,0,0,0,.668-1.04L32.544,28.56c.619-.077,1.237-.169,1.852-.281l2.393,7a.874.874,0,1,0,1.655-.565l-2.322-6.791c.64-.15,1.277-.318,1.909-.506l3.18,6.228a.876.876,0,0,0,.78.477.866.866,0,0,0,.4-.1.875.875,0,0,0,.381-1.177l-3.056-5.985c.669-.239,1.331-.5,1.987-.786l3.974,5.084a.875.875,0,1,0,1.379-1.078l-3.721-4.762c.688-.341,1.369-.7,2.037-1.09l4.776,4.408a.875.875,0,0,0,1.188-1.285l-4.425-4.084c.707-.467,1.394-.972,2.072-1.5Z" transform="translate(0 -2.466)" fill-rule="evenodd"/>
            <path id="Path_8438" data-name="Path 8438" d="M14.658,19.229a.875.875,0,0,0-1.066,1.387,24.007,24.007,0,0,0,12.867,4.83.728.728,0,0,0,.074,0,.875.875,0,0,0,.073-1.746,22.288,22.288,0,0,1-11.947-4.475" transform="translate(-1.659 -3.098)" fill-rule="evenodd"/>
            <path id="Path_8439" data-name="Path 8439" d="M11,6.93a.873.873,0,0,0,.534-.182C16.3,3.068,25.462,1.071,31.508,3.957a.875.875,0,0,0,.754-1.579c-6.839-3.267-16.643-.995-21.8,2.984A.875.875,0,0,0,11,6.93" transform="translate(-1.267 -0.815)" fill-rule="evenodd"/>
          </g>
        </g>
      </g>
    </g>
    <g id="Path_8445" data-name="Path 8445" transform="translate(2111.687 -974.029)" fill="none">
      <path d="M36.514,0A36.514,36.514,0,1,1,0,36.514,36.514,36.514,0,0,1,36.514,0Z" stroke="none"/>
      <path d="M 36.51427841186523 1.5 C 31.78672409057617 1.5 27.20136642456055 2.425567626953125 22.88560104370117 4.2509765625 C 18.71630096435547 6.014442443847656 14.97157669067383 8.539314270019531 11.75544357299805 11.75544357299805 C 8.539314270019531 14.97157669067383 6.014442443847656 18.71630096435547 4.2509765625 22.88560104370117 C 2.425567626953125 27.20136642456055 1.5 31.78672409057617 1.5 36.51427841186523 C 1.5 41.24183654785156 2.425567626953125 45.82717895507812 4.2509765625 50.1429443359375 C 6.014442443847656 54.3122444152832 8.539314270019531 58.05696868896484 11.75544357299805 61.27310943603516 C 14.97157669067383 64.48924255371094 18.71630096435547 67.01411437988281 22.88560104370117 68.77758026123047 C 27.20136642456055 70.60298919677734 31.78672409057617 71.52855682373047 36.51427841186523 71.52855682373047 C 41.24183654785156 71.52855682373047 45.82717895507812 70.60298919677734 50.1429443359375 68.77758026123047 C 54.3122444152832 67.01411437988281 58.05696868896484 64.48924255371094 61.27310943603516 61.27310943603516 C 64.48924255371094 58.05696868896484 67.01411437988281 54.3122444152832 68.77758026123047 50.1429443359375 C 70.60298919677734 45.82717895507812 71.52855682373047 41.24183654785156 71.52855682373047 36.51427841186523 C 71.52855682373047 31.78672409057617 70.60298919677734 27.20136642456055 68.77758026123047 22.88560104370117 C 67.01411437988281 18.71630096435547 64.48924255371094 14.97157669067383 61.27310943603516 11.75544357299805 C 58.05696868896484 8.539314270019531 54.3122444152832 6.014442443847656 50.1429443359375 4.2509765625 C 45.82717895507812 2.425567626953125 41.24183654785156 1.5 36.51427841186523 1.5 M 36.51427841186523 0 C 56.68054580688477 0 73.02855682373047 16.34799957275391 73.02855682373047 36.51427841186523 C 73.02855682373047 56.68054580688477 56.68054580688477 73.02855682373047 36.51427841186523 73.02855682373047 C 16.34799957275391 73.02855682373047 0 56.68054580688477 0 36.51427841186523 C 0 16.34799957275391 16.34799957275391 0 36.51427841186523 0 Z" stroke="none" fill="#000"/>
    </g>
  </g>
</svg>
