<svg xmlns="http://www.w3.org/2000/svg" width="94.623" height="119.919" viewBox="0 0 94.623 119.919">
  <g id="Group_11343" data-name="Group 11343" transform="translate(-234.974 -202.669)">
    <path id="Path_8265" data-name="Path 8265" d="M963.894,1013.918c-.434.035-.9.075-1.333.106-.326.051-.786-.048-.932.338a16.6,16.6,0,0,0-.234,2.9c-.127.141-.218.422-.035.543.412.246.827.529,1.234.785.564.312.992.874,1.644,1,.277.164.557.36.747-.036a39.026,39.026,0,0,0,.345-4.146c.085-1.456,0-1.472-1.436-1.491Z" transform="translate(-674.815 -753.761)" fill="#ea9a00"/>
    <path id="Path_8266" data-name="Path 8266" d="M1213.846,926.506c-.961.3-.875,1.544.264,1.131.448-.107,1.132-.793.35-.968a.63.63,0,0,0-.614-.163Z" transform="translate(-908.891 -672.516)" fill="#ea9a00"/>
    <path id="Path_8267" data-name="Path 8267" d="M1270.54,919.41c-.917-.042-2.184,1.249-.66,1.46,1.212.165,2.512-1.214.66-1.46Z" transform="translate(-960.909 -665.949)" fill="#ea9a00"/>
    <path id="Path_8268" data-name="Path 8268" d="M438.727,1386.912c-.465.2-.328.891-.5,1.3-.057.591-.5,1.561-.305,2.074l-.041-.091a13.47,13.47,0,0,0,3.11,3.167l-.057-.051c.334.3.651.618,1,.9.336.112.595-.341.534-.632-1.193-1.357-2.842-2.356-3.945-3.838.1-.545.177-1.094.275-1.639l0,.019c-.012-.313.447-1.18-.065-1.207Zm1.527,4.648.034.031-.034-.031Z" transform="translate(-188.522 -1100.323)" fill="#ea9a00"/>
    <path id="Path_8269" data-name="Path 8269" d="M399.079,1374.071c-4.755.928,2.686,6.527,4.255,7.58.418.186,1.119,1,1.528.528.124-.149.213-.463.014-.586a27.455,27.455,0,0,1-4.537-3.54.672.672,0,0,0,.16-.3c.4-.459.34-1.174.561-1.73.084-.555.586-1.394-.2-1.631a3.781,3.781,0,0,0-1.781-.321Zm.1.608-.012-.012.078.005a.446.446,0,0,0-.04.039.391.391,0,0,0-.027-.033Z" transform="translate(-151.02 -1088.382)" fill="#ea9a00"/>
    <path id="Path_8270" data-name="Path 8270" d="M440.957,1378.772c-.217.011-.5.024-.557.284-.1.325.25.241.445.2.069.518-.7,2.887-.345,2.989.477-.1.325-1.16.5-1.557.029-.339.525-1.993-.042-1.92Zm-.234,1.439,0,.02,0-.02Zm-.007.04-.007.042,0-.026,0,.02.006-.035Z" transform="translate(-190.854 -1092.758)" fill="#ea9a00"/>
    <path id="Path_8271" data-name="Path 8271" d="M236.285,934.013c-1.348.037-1.242,2.543-1.291,3.516-.061,1.546.037,3.094.036,4.637-.018.441.064,3.535.868,2.073a25.328,25.328,0,0,0,.068-5.024c.521-.281.963-.663,1.476-.958.425-.277,1.061-.432,1.08-1.04-.051-1.3-.9-2.906-2.238-3.2Z" transform="translate(0 -679.518)" fill="#ea9a00"/>
    <path id="Path_8272" data-name="Path 8272" d="M1236.659,904.307c-.281.224.013.706.012,1.015l0-.027c.23.674-.289,1.167-.458,1.762-.113.641.719.4.969.094.138-.106.569-.712.143-.624-.21.2-.566.851-.883.552.1-.372.429-.653.509-1.043.108-.155-.123-1.8-.286-1.729Zm-.167,2.132-.007.012.007-.012Zm.25.068-.012.021.025-.045-.013.023Z" transform="translate(-930.273 -651.915)" fill="#161616"/>
    <path id="Path_8273" data-name="Path 8273" d="M1251.495,952.982a.615.615,0,0,1-.928.3c-.117-.17-.287-.159-.337.054.035.444.766.522,1.073.293.2-.129.536-.492.356-.724-.063-.029-.131.027-.165.076Z" transform="translate(-943.31 -697.066)" fill="#161616"/>
    <path id="Path_8274" data-name="Path 8274" d="M1214.933,932.986c-.069.148-.375.427-.189.56.162-.062.178-.313.307-.433.09-.1-.021-.268-.118-.127Z" transform="translate(-910.284 -678.514)" fill="#161616"/>
    <path id="Path_8275" data-name="Path 8275" d="M1220.75,933.217c-.04.094-.241.5,0,.385.049-.127.22-.338.12-.46-.051-.023-.1.034-.12.075Z" transform="translate(-915.811 -678.705)" fill="#161616"/>
    <path id="Path_8276" data-name="Path 8276" d="M1227.686,931.107c-.018.12-.211.345-.05.416.111.007.284-.442.18-.5-.054-.024-.113.036-.13.081Z" transform="translate(-922.259 -676.738)" fill="#161616"/>
    <path id="Path_8277" data-name="Path 8277" d="M1272.959,924.282c-.043.142-.3.389-.145.507.152-.071.157-.322.269-.451.062-.112-.077-.177-.123-.056Z" transform="translate(-964.249 -670.416)" fill="#161616"/>
    <path id="Path_8278" data-name="Path 8278" d="M1279.486,923.525c-.067.125-.328.393-.13.495.147-.033.176-.238.275-.339.107-.13-.017-.33-.144-.156Z" transform="translate(-970.305 -669.71)" fill="#161616"/>
    <path id="Path_8279" data-name="Path 8279" d="M1287.734,922.779c-.065.137-.286.349-.138.489.068.031.139-.046.162-.1.037-.142.234-.277.144-.43-.051-.061-.135-.009-.168.044Z" transform="translate(-977.982 -669.015)" fill="#161616"/>
    <path id="Path_8280" data-name="Path 8280" d="M1275.6,901.329c-.386.047-.475.853-.09.957.354.28.491-1.009.09-.957Zm.013.618h0Z" transform="translate(-966.57 -649.15)" fill="#161616"/>
    <path id="Path_8281" data-name="Path 8281" d="M1220.078,910.53c-.784.594.346,1.732.295.318l0,.024-.006-.038v.007c-.018-.142-.115-.377-.294-.311Z" transform="translate(-915.037 -657.689)" fill="#161616"/>
    <path id="Path_8282" data-name="Path 8282" d="M1207.3,879.665c-.9.154-1.242,1.833-.772,1.182a.992.992,0,0,1,.4-.686c.544-.408.691.091,1.018.389.524-.2-.25-1.048-.641-.885Z" transform="translate(-902.513 -629.002)" fill="#161616"/>
    <path id="Path_8283" data-name="Path 8283" d="M1096.6,974.955c-.637.389-.022.883.34,1.182-.316.092-.852,1.7-.293,1.266.1-.18.005-.4.1-.6.09-.384.912-.668.312-1.017-.283-.125-.925-.684-.182-.52.347.041.87.929,1.021.754.31-.267-.98-1.352-1.3-1.069Zm-.05.3,0,.008,0-.008Zm.621.188.014.011-.014-.011Z" transform="translate(-800.309 -717.516)" fill="#161616"/>
    <path id="Path_8284" data-name="Path 8284" d="M893.22,744.425c-1,.006-1.636,1.19-1.774,2.106-.1.621.026,1.254-.062,1.865-.862.06-1.634.618-2.487.745a4.052,4.052,0,0,0-1.054.279,5.385,5.385,0,0,0-1.987,2.81c-.115.484-.487.843-.64,1.343a3.354,3.354,0,0,0-.143,2.029,3.044,3.044,0,0,0,.736,3.222c.052.044.105-.034.106-.086a2.8,2.8,0,0,1-.662-2.667,2.1,2.1,0,0,0,.331.5,2.294,2.294,0,0,0,.418,1.38c.215.038-.029-.277-.059-.359a2.1,2.1,0,0,1-.216-.869c.156.142.728.7.9.5.294,2.5,1.243,4.195,3.96,4.381a13.414,13.414,0,0,1,.174,3.555c-4.058-3.533-7.506.858-9.506,4.26a19.987,19.987,0,0,0,.175-5.08,32.937,32.937,0,0,0-.628-5.157,3.351,3.351,0,0,0-.54-1.671.419.419,0,0,0-.731.062,3.72,3.72,0,0,0,.085,1.55c-.416-.087-.558.286-.553.629-.338-.2-.586.23-.661.535a.48.48,0,0,0-.7.312c-.348.924.128,1.951.3,2.879a62.33,62.33,0,0,1-1.54,7.663l.006-.015a10.718,10.718,0,0,0-.308,1.111,29.021,29.021,0,0,0-4.325-3.938,9.63,9.63,0,0,0-2.234-1.245c-.293-.049-.74-.219-.858.154a.54.54,0,0,0,.337.609c-.346-.145-.791.047-.677.476.082.279.382.347.6.467-.36-.15-.842.112-.709.539.125.207.352.285.537.419-.4-.17-.933.132-.592.562.349.454,1.134.332,1.49.748a14.712,14.712,0,0,0,1.741,2.918c.806,1.369,1.56,2.758,2.426,4.091a7.049,7.049,0,0,0-.536,3.7,4.238,4.238,0,0,0,1,1.8c-.283.277-.614.517-.914.77-1.653-.856-.739-1.375-2.122-.228a40.477,40.477,0,0,0-5.468,4.71,12.192,12.192,0,0,0-1.171,1.241c-.273.359-.981.63-.767,1.184-.374.374-1.578,1.153-1.457,1.694a9.193,9.193,0,0,0,3.71,3.328c3.049,1.921,6.323,3.941,10.1,3.635a10.342,10.342,0,0,0,6.263-2.694,17.349,17.349,0,0,0,3.3-3.025c.4.286,1.53,1.759,1.975,1.2.8-.694,1.653-1.373,2.426-2.13,1.418-1.485,2.828-3.108,4.136-4.677a17.934,17.934,0,0,0,2.888-4.516c.361.26.773,1.064,1.091.295a47.215,47.215,0,0,0,3.1-6.034c1.181-2.987,2.948-6.19,2.009-9.5a4.878,4.878,0,0,0-4.4-3.154,8.21,8.21,0,0,0-2.707.284,23.769,23.769,0,0,0-.113-6.438l0,.057c-.005-.059-.016-.119-.025-.177.055-.1.139-.184.2-.282a1.343,1.343,0,0,1,1.573.862c.188-.1-.043-.372-.12-.5a1.365,1.365,0,0,0-1.327-.537c.316-.443.3-.491.812-.732a1.811,1.811,0,0,1,1.129-.211l-.008,0c.111,0,.283.165.312.021a1.062,1.062,0,0,0-.859-.086,3.39,3.39,0,0,0-1,.448c1.513-2.189.878-3.683.249-6.018a5.552,5.552,0,0,0-4.379-3.929,8.963,8.963,0,0,0,1.13-2.615c.078-.526-.021-1.372-.7-1.361Zm-4.073,7.519a.4.4,0,0,0,.3-.216c1.616-1.082.609.321,1.428-.043.337-.1,1.315-.67,1.209.058.077.162.345.1.483.19.28.485.4,1.037.669,1.535-.748-.8-1.439-.442-1.9.4-.031.128-.1.244-.046.361.081.085.192-.05.2-.125.112-.513.786-.967,1.233-.549.266.065.53.8.72.309a3.292,3.292,0,0,0,.853,1.15c.018.216.182.319.376.2a.688.688,0,0,1,.094.028,2.462,2.462,0,0,0,1.224.073c.4.372.134,1.039-.221,1.358-.108.124-.278.207-.313.383-.358.338-.011.732,0,1.176l.041.275a38.15,38.15,0,0,1,.478,4.442c-.013,1.225.016,2.447-.112,3.683-.067.619.461.258.419-.213h0a8.609,8.609,0,0,1,.936-.182,5.671,5.671,0,0,1-4.074,3.9c-3.224.448-4.141-1.661-2.8-4.361.085.076.173.153.266.222-.032.237-.206.51-.089.741.4.2.407-.5.5-.733a9.463,9.463,0,0,0,.146-3.607c-.084-.36-.1-1.059-.33-1.267a4.854,4.854,0,0,1-2.038-.619c-1.811-1.065-1.786-3.489-2.01-5.322-.047-.465-.092-.938-.1-1.414a1.632,1.632,0,0,1,.705-1.767c.059.139-.1.382.05.475.077.029.146-.029.194-.083a5.056,5.056,0,0,1,.63-.534c.165-.108.453-.3.676-.225.021.072.014.18.1.187a.11.11,0,0,0,.1.113Zm5.064,2.747a9.089,9.089,0,0,1-1.391-2.627,5.656,5.656,0,0,1,1.391,2.627Zm-8.527-1.879c.03-.05.07-.121.1-.17a2.254,2.254,0,0,0,.166.914,9.76,9.76,0,0,0-.831,1.864,3.594,3.594,0,0,1,.5-2.5h0c.022-.032.042-.072.061-.106v0Zm-.4,3.086a8.578,8.578,0,0,1,.841-2.072.624.624,0,0,0,.067.066c-.032.108-.065.216-.1.319l.006-.008a7.809,7.809,0,0,0-.517,2.193,2.008,2.008,0,0,1-.3-.5Zm.809.994a3.127,3.127,0,0,1-.371-.335,9.141,9.141,0,0,1,.585-2.576c.036.026.072.075.118.081a24.894,24.894,0,0,0,.184,3.1,1.462,1.462,0,0,1-.516-.273Zm9.557-1.7a2.791,2.791,0,0,1-.625-.076,1.346,1.346,0,0,1,.761.074c-.044,0-.092,0-.136,0Zm-15.785,5.03c.471-.152.048-.855.022-1.191a3.876,3.876,0,0,1-.16-1.4c.394.127.41.661.5,1.005v-.01c.006.052.018.1.026.155v-.013c.02.119.044.239.065.358v-.006a45.565,45.565,0,0,1,.738,8.368c-.056,1.459-.482,2.912-.6,4.374h0c-.7,1.79-.106,1.956.177,3.618h0a7.979,7.979,0,0,0-.456,1.016c-1.242-1.312-2.525-2.58-3.73-3.924.3-1.086.7-2.145.958-3.236.477-1.895.667-3.971,1.032-5.821a.237.237,0,0,0-.018-.171,2.884,2.884,0,0,1-.2-.9,5.521,5.521,0,0,1-.157-1.731c.347-.062.263.508.5.589.47-.149-.038-.728.156-1.045.023-.069.072-.169.15-.093.189.123.267.8.527.375.072-.32-.156-.635-.036-.964.338,0,.239.573.507.646Zm1.106,11.022a3,3,0,0,1,.732-1.89,19.073,19.073,0,0,1,1.917-2.538c1.071-1.085,2.363-2.366,4.009-2.236a4.478,4.478,0,0,1,2.544,1.063c-.482,1.138-1.048,2.419-.573,3.662,1.048,2.14,4.143,1.711,5.69.386l-.006,0,.033-.026c.006,0,.011-.009.018-.013l-.005,0a6.422,6.422,0,0,0,2.335-3.468,5.22,5.22,0,0,1,4.933,2.037c1.248,2.109.479,4.689-.311,6.825a63.732,63.732,0,0,1-4.213,9.054,50.368,50.368,0,0,1-4.331-5.145,38.214,38.214,0,0,0,3.734-7.154,2.561,2.561,0,0,0,.206-.449c.058-.285-.224-.295-.343-.08-1.01,1.757-1.65,3.651-2.647,5.446a18.277,18.277,0,0,1-1.086,1.732c-.148.208-.734.9-.187.9.018.027.038.055.057.082-.1.08-.2.164-.3.241h0l0,0h0l-.013.011.013-.009a18.626,18.626,0,0,1-3.415,2.08,6.248,6.248,0,0,1-4.813-.327,9.594,9.594,0,0,1-2.048-1.922c-.823-.959-1.695-1.846-2.513-2.808a4.593,4.593,0,0,0,.731-1.469c-.13-1.349-.935-2.322.183-3.531a12.664,12.664,0,0,1,1.345-1.269c.357-.341.747-.543,1.086-.879.145-.193.191-.6-.114-.631a11.1,11.1,0,0,0-2.645,2.32Zm-10.967-3.176c-.3-.29-.831-.334-1.046-.7a3.639,3.639,0,0,1,1.43.57,9.066,9.066,0,0,1,1.682,1.117l0,0a59.3,59.3,0,0,1,6.083,6.075c.931.954,1.906,1.874,2.739,2.918a45.5,45.5,0,0,0,3.59,3.717c3.429,2.006,6.531.357,9.259-1.959.952,1.275,1.947,2.5,2.967,3.708-.075.073-.095.178-.154.26a12.713,12.713,0,0,1-3.712,2.465h0c-2.016,1-5.979,1.577-8.117.729A22.869,22.869,0,0,1,879.1,783.4a29.307,29.307,0,0,1-4.708-5.552.162.162,0,0,0-.109-.165c-.777-1.192-1.487-2.419-2.189-3.656a29.4,29.4,0,0,1-1.784-2.845c-.124-.246-.163-.591-.425-.731a12.057,12.057,0,0,1-1.343-.376c.319.077.652.073.968.167.095.016.2.087.289.021a.2.2,0,0,0,.048-.4,4.238,4.238,0,0,1-1.353-.753c.189-.159.8.145,1.078.157a1.847,1.847,0,0,0,.351.067.229.229,0,0,0,.184-.344c-.245-.225-.614-.236-.883-.435-.207-.146-.654-.152-.618-.478h0a.746.746,0,0,1,.308.02l-.027-.008a7.9,7.9,0,0,1,1.355.53c.1.013.188-.125.178-.219-.055-.169-.292-.2-.409-.337Zm4.741,15.135a1.726,1.726,0,0,1-.645-.957,6.012,6.012,0,0,1,.027-3.831c.709,1.079,1.546,2.083,2.336,3.092a21.4,21.4,0,0,1-1.719,1.7Zm-.485,1.148a22.915,22.915,0,0,0,2.563-2.389,21.354,21.354,0,0,0,8.646,5.867,13.709,13.709,0,0,0,3.848-.016,12.786,12.786,0,0,0,7.318-3.448,17.267,17.267,0,0,1-2.149,3.21l.021-.025A51.4,51.4,0,0,1,887.619,795c-.983-.734-1.749-1.736-2.807-2.387h0c-.895-.651-1.788-1.295-2.7-1.921-.946-.837-1.815-1.919-2.838-2.653-1.685-1.265-3.566-2.25-5.3-3.46.1-.077.209-.16.3-.233l-.008.006Z" transform="translate(-583.006 -503.365)" fill="#161616"/>
    <path id="Path_8285" data-name="Path 8285" d="M438.65,1422.354c-.566.764,1.081,1,1.483,1.4.852.444,2.013,1.378,2.951.691.646-1.06-.388-1.08-.216-.34a.948.948,0,0,1-.5-.028l.038.007a8.5,8.5,0,0,1-2.068-1.042c-.427-.307-1-.362-1.388-.725-.081-.1-.224-.045-.3.037Z" transform="translate(-189.133 -1133.17)" fill="#161616"/>
    <path id="Path_8286" data-name="Path 8286" d="M517.02,1198.333a34.258,34.258,0,0,0-3.848,3.543c-2.456,2.421-4.85,4.9-7.3,7.325-1.607,1.638-3.078,3.4-4.593,5.123-.3.477-1.053,1-.978,1.586a.232.232,0,0,0,.412.037,112.837,112.837,0,0,1,9.042-9.843c2.418-2.369,4.7-4.9,7.255-7.114a45.6,45.6,0,0,1,5.41,6.278c2,2.589,4.03,5.158,6.034,7.744.083.11.233.039.307-.038.483-.425-.631-1.323-.882-1.717-1.017-1.309-2.005-2.641-3.049-3.93-1.345-1.72-2.662-3.46-3.994-5.191a22.329,22.329,0,0,0-2.914-3.136c-.315-.178-.518-.7-.9-.669Z" transform="translate(-246.516 -925.106)" fill="#161616"/>
    <path id="Path_8287" data-name="Path 8287" d="M445.854,1398.791c-.283.009-.48.59-.143.652.457-.175,1.14.485,1.391-.071.259-.6-.883-.6-1.248-.581Z" transform="translate(-195.638 -1111.356)" fill="#161616"/>
    <path id="Path_8288" data-name="Path 8288" d="M482.557,1075.124c-3.835.917-6.384,4.315-8.7,7.272a59.392,59.392,0,0,0-4.35,6.061c-1.884,3.157-3.766,6.312-5.808,9.367-.229.178-.595.656-.18.8.491-.194.7-.792,1.013-1.189,3.2-4.685,5.666-9.861,9.343-14.212,2.29-2.938,4.693-6.422,8.5-7.389,2.792-.73,5.454,1.353,7.419,3.1a43.776,43.776,0,0,1,5.208,5.108c2.767,2.847,4.866,6.263,7.5,9.229.237.286.675.988.877.266-.011-.458-.495-.779-.738-1.138-2.108-2.379-3.857-5.039-5.956-7.424a58.2,58.2,0,0,0-6.368-6.432c-2.078-1.869-4.769-4.132-7.763-3.426Zm-10.131,9.112-.017.021.017-.021Z" transform="translate(-212.175 -810.507)" fill="#161616"/>
    <path id="Path_8289" data-name="Path 8289" d="M702.984,1228.914c-.312.284.084.549.285.739.262.284.491.595.724.9l0,0c1.87,2.532,3.923,4.917,6.013,7.267,1.947,2.206,3.831,4.484,5.978,6.5.3.226.426-.372.219-.531-3.228-3.149-6.067-6.67-9.06-10.037-.864-1.127-1.815-2.183-2.668-3.319-.469-.484-.832-1.339-1.489-1.517Z" transform="translate(-434.737 -953.522)" fill="#161616"/>
    <path id="Path_8290" data-name="Path 8290" d="M250.556,1001.384c.255,1.388.04,4.524,1.261,5.341a1.046,1.046,0,0,0,.937.18c.6.179,1.143.508,1.723.74,5.49,2.07,11.356,2.886,17.1,3.911a50.389,50.389,0,0,1,5.027.8c.286.048.662.577.905.395a.319.319,0,0,0-.057-.356,3.524,3.524,0,0,0-1.147-.659c-5.876-1.116-11.863-1.779-17.658-3.345A28.538,28.538,0,0,1,254.32,1007c-.55-.231-1.08-.512-1.649-.693-.225-.055-.478.061-.674-.1l.045.031c-1-.317-.75-5.337-1.486-4.856Zm26.68,11.343.03.021-.03-.021Z" transform="translate(-14.477 -742.086)" fill="#161616"/>
    <path id="Path_8291" data-name="Path 8291" d="M270.827,983.843c-.3.278.428.979.572,1.272,1.085,1.725,3.236,2.039,5.111,2.154h-.018c5.091.565,10.233.621,15.288,1.47a21.909,21.909,0,0,1,9.384,3.087c.234.221.442-.078.283-.31a4.077,4.077,0,0,0-.92-.664,24.079,24.079,0,0,0-8.993-2.743,45.379,45.379,0,0,0-5.83-.691h.006c-3.068-.214-6.135-.447-9.192-.791-1.664-.169-3.691-.242-4.751-1.731-.306-.235-.552-1.121-.941-1.052Zm5.662,2.782h-.011l.03,0Zm4.943.483.04,0-.04,0Z" transform="translate(-33.246 -725.813)" fill="#161616"/>
    <path id="Path_8292" data-name="Path 8292" d="M972.414,1025.141c-.263-.023-.448.413-.192.544s.461-.347.251-.484c0-.028-.027-.062-.059-.06Z" transform="translate(-684.89 -764.188)" fill="#161616"/>
    <path id="Path_8293" data-name="Path 8293" d="M950.918,954.774c-.485.41.556,1.593.794,2.026.17.151.366-.167.3-.324-.263-.47-.591-.908-.829-1.394l.026.05c-.1-.123-.054-.489-.3-.357Z" transform="translate(-665.091 -698.782)" fill="#161616"/>
    <path id="Path_8294" data-name="Path 8294" d="M997.824,944.259c-.247.165.007,1.706-.058,2.139,0,.092.058.2.164.168.191-.07.193-.308.191-.48-.052-.262.064-2-.3-1.826Z" transform="translate(-708.689 -689.027)" fill="#161616"/>
    <path id="Path_8295" data-name="Path 8295" d="M1029.511,945.582a12.145,12.145,0,0,1-.808,1.813.3.3,0,0,0,.006.292c.418.276.95-1.552,1.092-1.869l-.027.082c.2-.34.032-.766-.263-.319Z" transform="translate(-737.449 -690.089)" fill="#161616"/>
    <path id="Path_8296" data-name="Path 8296" d="M1043.4,977.446c-.046.033-.089.072-.133.108l.04-.032c-.157.125-.318.246-.473.374l.035-.028-.122.1.015-.012c-.1.15-1.552,1.018-1.124,1.056.169-.18,2.731-1.5,1.762-1.565Zm-.136.111-.011.009.011-.009Z" transform="translate(-749.425 -719.874)" fill="#161616"/>
    <path id="Path_8297" data-name="Path 8297" d="M1042.1,978.351a3.123,3.123,0,0,0-1.191.693h0c-.241.266-.687.36-.829.684-.056.191.143.281.274.145a11.661,11.661,0,0,1,1.577-1.238c.1-.033.238-.031.253-.164.018-.057-.015-.141-.086-.118Zm-.749.672-.02.016.02-.016Zm-.493.063-.02.016.02-.016Zm.053-.043.015-.012-.015.012Zm.015-.012.016-.013-.016.013Z" transform="translate(-748.042 -720.711)" fill="#161616"/>
    <path id="Path_8298" data-name="Path 8298" d="M719.82,1255.86c-.62.339-.045,1.068,0,1.577.242,1.129.534,2.246.8,3.369.6,2.662,1.249,5.307,2.052,7.917.644,2.267,1.352,4.517,1.966,6.793.243.865.475,1.732.725,2.6.085.244.133.806.5.544.35-.24.154-.621.058-.941-.257-.9-.5-1.812-.743-2.719-.718-2.674-1.492-5.333-2.2-8.01-.9-2.947-1.439-5.993-2.31-8.953-.174-.365-.395-2.445-.853-2.172Z" transform="translate(-450.222 -978.535)" fill="#161616"/>
    <path id="Path_8299" data-name="Path 8299" d="M846.493,1480.717c-5.257.907-10.561,1.412-15.853,2.058-4.421.567-8.837,1.169-13.259,1.731-2.187.378-4.4.612-6.58,1-1.887.468-3.817.75-5.7,1.244-.341.024-.7.737-.169.708a.316.316,0,0,0,.437-.149q7.537-1.555,15.183-2.481c4.427-.512,8.833-1.176,13.265-1.649,3.425-.347,6.855-.669,10.252-1.251.743-.123,1.487-.249,2.236-.326a.62.62,0,0,0,.432-.405c.089-.193.024-.525-.247-.478Z" transform="translate(-529.321 -1187.477)" fill="#161616"/>
    <path id="Path_8300" data-name="Path 8300" d="M782.411,1152.229c-1.842.459-3.738.6-5.609.888-2.531.395-5.058.819-7.6,1.167-5.629.907-11.241,1.921-16.882,2.753-3.935.657-7.864,1.333-11.814,1.9a97.325,97.325,0,0,0-9.945,1.777c-.367.1-1.079-.041-.948.535.5.179,1.139-.116,1.671-.174,4.352-1.022,8.8-1.524,13.218-2.175,7.319-1.254,14.662-2.357,21.988-3.57,3.835-.579,7.669-1.164,11.508-1.719a33.878,33.878,0,0,0,4.264-.684c.308-.023.578-.69.145-.693Z" transform="translate(-459.575 -882.271)" fill="#161616"/>
    <path id="Path_8301" data-name="Path 8301" d="M1343.044,1052.107c-1.122,3.322-1.787,6.776-2.585,10.186-.835,3.854-1.864,7.667-2.581,11.547a49.114,49.114,0,0,1-1.485,5.716c-.553,1.98-.932,4-1.432,6l.022-.089c-1.28,5.12-2.149,10.333-3.527,15.431l0-.009a11.976,11.976,0,0,0-.374,1.922c.041.284.4.235.531.048a1.363,1.363,0,0,0,.277-.7c1.4-5.513,2.546-11.081,3.812-16.625l-.036.145.167-.667-.006.023c.6-2.934,1.359-5.828,2.211-8.7l-.009.036c1.371-6.627,3-13.2,4.377-19.821a25.717,25.717,0,0,1,.749-3.254c.02-.321.586-1.345.237-1.456-.156-.03-.309.14-.351.271Zm-2.581,13.248-.01.041.01-.041Zm-2.4,10.875-.009.037.009-.037Zm-1.7,6.383-.03.118.03-.118Zm-.616,2.744-.01.038.01-.038Zm-.128.51-.032.128.032-.128Z" transform="translate(-1018.435 -788.989)" fill="#161616"/>
    <path id="Path_8302" data-name="Path 8302" d="M1248.06,1499.193c-.52.641-.4,1.633-.683,2.4-.3,1.143-.6,2.286-.84,3.444-.6,2.731-1.393,5.418-1.94,8.158a6.52,6.52,0,0,0-.162,1.282c.1.337.509.136.629-.087.468-1.254.518-2.651.97-3.925.756-2.928,1.357-5.893,2-8.847.142-.64.225-1.291.363-1.931.143-.279.059-.768-.34-.494Z" transform="translate(-937.919 -1204.573)" fill="#161616"/>
    <path id="Path_8303" data-name="Path 8303" d="M1334.768,1170.662c-.376.194-.339,1.468-.455,1.9-.2,1.718-.472,3.426-.733,5.136-.767,5.23-1.5,10.472-2.525,15.659-.029.187-.206.554.1.565a.373.373,0,0,0,.267-.25c.481-2.194.885-4.409,1.254-6.625.641-4.484,1.392-8.956,1.838-13.466.119-.929.163-1.87.367-2.785a.105.105,0,0,0-.111-.135Z" transform="translate(-1018.336 -899.397)" fill="#161616"/>
    <path id="Path_8304" data-name="Path 8304" d="M1231.527,1183.277c-.446.321-.133,1.048-.261,1.527-.054.732-.117,1.463-.219,2.189-.338,2.972-.854,5.921-1.185,8.893-.337,3.467-1.22,6.859-1.537,10.325.057.278.418.073.453-.121.166-.7.173-1.432.332-2.136.439-2.534.992-5.051,1.286-7.607.38-3.3.857-6.584,1.181-9.89-.022-.424.5-3.434-.05-3.181Z" transform="translate(-922.958 -911.105)" fill="#161616"/>
    <path id="Path_8305" data-name="Path 8305" d="M1141.9,1203.1c-.246.115-.184.4-.184.62.007,1.679-.144,3.352-.243,5.026-.524,5.5-.3,11.065-1.163,16.521a.2.2,0,0,0,.135.24c.543-.057.468-.811.524-1.215a68.982,68.982,0,0,0,.62-7.768c.078-3.022.245-6.039.4-9.058.069-1.422.144-2.847.11-4.271a.13.13,0,0,0-.194-.1Z" transform="translate(-841.174 -929.518)" fill="#161616"/>
    <path id="Path_8306" data-name="Path 8306" d="M1031.586,1222.554c-.471.18-.206.874-.278,1.267-.054,1.28-.018,2.559-.042,3.839-.149,4.539-.191,9.083-.5,13.615-.06.88-.085,1.762-.118,2.644-.031.321-.238,1.25.361.776.254-.3.122-.745.184-1.109.018-.656.074-1.31.1-1.966.257-3.109.335-6.226.357-9.344q.156-3.476.057-6.958c-.078-.4.227-2.862-.121-2.763Z" transform="translate(-739.234 -947.61)" fill="#161616"/>
    <path id="Path_8307" data-name="Path 8307" d="M936.745,1240.688c-.631-.071.071,4.972.037,5.661.212,3.1.193,6.2.261,9.307a42.308,42.308,0,0,0,.333,6.339c.473.116.489-.522.444-.842-.316-5.475-.091-10.978-.7-16.435-.116-1.135-.189-2.274-.231-3.413-.044-.193.137-.6-.141-.617Z" transform="translate(-651.794 -964.461)" fill="#161616"/>
    <path id="Path_8308" data-name="Path 8308" d="M828.018,1261.762c-.527.287-.005,1.23-.037,1.722.135,1.191.3,2.38.416,3.573.241,4.047.678,8.075,1.145,12.1a33.739,33.739,0,0,0,.492,3.563c.254.3.658-.19.6-.475-.161-1.114-.32-2.231-.427-3.352-.384-3.623-.935-7.231-1.169-10.869-.116-1.609-.378-3.2-.563-4.8-.11-.3-.047-1.63-.459-1.461Z" transform="translate(-550.798 -984.028)" fill="#161616"/>
    <path id="Path_8309" data-name="Path 8309" d="M909.92,1159.894c-1.674.381-3.361.712-5.038,1.085-.448.239-1.768.144-1.574.875.262.208.9-.157,1.232-.2.977-.262,1.982-.407,2.961-.66.769-.131,1.52-.346,2.288-.477.278-.016.522-.626.131-.626Z" transform="translate(-620.955 -889.393)" fill="#161616"/>
    <path id="Path_8310" data-name="Path 8310" d="M970.687,1166.609c-.586.323-.116,1.1-.153,1.62.061.734.112,1.469.143,2.205.048.933.161,1.861.2,2.794.086.3-.032,1.929.421,1.733.559-.015,0-4.046.014-4.662-.091-.418-.049-4.106-.63-3.691Z" transform="translate(-683.302 -895.601)" fill="#161616"/>
    <path id="Path_8311" data-name="Path 8311" d="M1342.894,1017.663c-.062.036-.1.184,0,.181.123-.009.152-.271,0-.181Z" transform="translate(-1029.35 -757.223)" fill="#161616"/>
    <path id="Path_8312" data-name="Path 8312" d="M1341.46,968.411c-.911.585-2.027.8-2.89,1.459a20.011,20.011,0,0,0-1.111,2.131c-.138.252.126.541.366.328a15.385,15.385,0,0,0,1-1.8l-.026.052c.53-.71,2.778-.973,3.033-1.908a.243.243,0,0,0-.368-.265Z" transform="translate(-1024.323 -711.446)" fill="#161616"/>
    <path id="Path_8313" data-name="Path 8313" d="M1497.8,1007.268c-1.4.975-3.05,1.657-4.239,2.9a10.3,10.3,0,0,0-.733,3.157c.055.162.172-.038.183-.129a19.836,19.836,0,0,1,.882-2.476c1.053-1.113,2.592-1.656,3.853-2.511l-.05.029c.671-.2.923-1.363.1-.967Zm-4.781,5.548v0Z" transform="translate(-1168.717 -747.506)" fill="#161616"/>
    <path id="Path_8314" data-name="Path 8314" d="M799.238,1709.293c-8.959,1.254-17.918,2.564-26.793,4.331l.1-.021c-.733.164-1.469.309-2.2.467l.023-.005-.163.036.023-.005-.09.02.022,0-.094.021.031-.007c-1.324.323-2.678.6-4,.877-.62.609.154.616.62.464,1.1-.246,2.208-.485,3.31-.739l-.094.021c.641-.139,1.286-.26,1.926-.4l-.1.021c6.35-1.246,12.747-2.3,19.15-3.233,3.133-.432,6.287-.945,9.4-1.389.8-.792-.652-.517-1.069-.451Zm-29.017,4.8.047-.01-.047.01Zm.047-.01h0Zm.017,0-.016,0,.018,0Zm-.019,0,.026-.006h0l.049-.011-.07.015Zm.07-.015h0Zm2.321-.493.1-.021-.1.021Z" transform="translate(-493.263 -1399.766)" fill="#161616"/>
    <path id="Path_8315" data-name="Path 8315" d="M870.677,1766.884c-3.18.456-6.382.769-9.563,1.223-3.6.556-7.194,1.195-10.791,1.789-4.922.944-9.9,1.6-14.757,2.863l.1-.022c-.324.087-.779.067-.895.458a.214.214,0,0,0,.2.315c1.3-.263,2.594-.612,3.9-.875l-.107.023c7.181-1.292,14.381-2.486,21.586-3.64,2.405-.359,4.826-.585,7.239-.883.807-.092,1.617-.174,2.42-.3.386,0,.82-.1.946-.518a.3.3,0,0,0-.277-.433Z" transform="translate(-557.273 -1453.367)" fill="#161616"/>
    <path id="Path_8316" data-name="Path 8316" d="M1242.521,1708.938c-.56.658.815,1.019,1.222,1.3.964.513,1.9,1.076,2.845,1.622a25.569,25.569,0,0,1,2.173,1.415c.318.236.862-.325.613-.631a2.787,2.787,0,0,0-.4-.295,58.3,58.3,0,0,0-5.65-3.228c-.271-.207-.482-.542-.806-.186Z" transform="translate(-936.025 -1399.384)" fill="#161616"/>
    <path id="Path_8317" data-name="Path 8317" d="M768.145,1794.709c-.432.535,3.162,2.372,3.656,3.045.411.345.9.59,1.293.953.244.154.409.5.7.538.344-.032.638-.508.3-.749-.781-.75-1.741-1.272-2.55-1.992-.894-.661-1.915-1.13-2.813-1.782-.163-.211-.436-.279-.59-.013Z" transform="translate(-495.355 -1479.061)" fill="#161616"/>
    <path id="Path_8318" data-name="Path 8318" d="M754.228,1795.888c-2.249-.087-2.049,2.872-.069,3.055,1.726.058,1.726-3.039.069-3.055Z" transform="translate(-480.952 -1480.316)" fill="#161616"/>
    <path id="Path_8319" data-name="Path 8319" d="M823.791,1848.818c-1.961.259-2.048,3.087-.232,3.243,1.257.027,2.521-1.465,1.625-2.6a1.5,1.5,0,0,0-1.392-.647Z" transform="translate(-545.664 -1529.474)" fill="#161616"/>
    <path id="Path_8320" data-name="Path 8320" d="M1302.282,1767.925c-1.688.6-1.352,3.813.671,3.3,2.142-.587,1.668-4.029-.671-3.3Zm.245.328a2.128,2.128,0,0,0-.621.536.9.9,0,0,1,.621-.536Z" transform="translate(-990.669 -1454.241)" fill="#161616"/>
    <path id="Path_8321" data-name="Path 8321" d="M1219.337,1711.105a1.706,1.706,0,0,0-.722,2.288,1.523,1.523,0,0,0,1.6.292c1.546-.625.93-3.787-.882-2.581Zm.65,1.219-.006,0,.006,0Z" transform="translate(-913.745 -1401.29)" fill="#161616"/>
    <path id="Path_8322" data-name="Path 8322" d="M1391.243,967.257c-.969.9.887.95,1.45,1.027.918.141,1.839.264,2.756.409a46.078,46.078,0,0,1,7.446,1.645c.394.158.871-.459.566-.772-.228-.09-.468-.122-.7-.213a19.639,19.639,0,0,0-4.246-1.026,47.265,47.265,0,0,0-6.138-.948c-.382.022-.791-.3-1.14-.121Z" transform="translate(-1074.074 -710.356)" fill="#ea9a00"/>
    <path id="Path_8323" data-name="Path 8323" d="M899.553,1400.342c-.135.358.656.965.84,1.3.086.061.158.325.275.236a.113.113,0,0,0,.015-.138,14.4,14.4,0,0,1-1.055-1.383.046.046,0,0,0-.075-.018Zm.227.279.006.01-.006-.01Zm.008.012,0,.005,0-.005Z" transform="translate(-617.469 -1112.79)" fill="#fefefe"/>
    <path id="Path_8324" data-name="Path 8324" d="M946.168,1348.523a.148.148,0,0,0-.077.146c.032.6.022,1.21.1,1.812.012,1.161.073,2.322.033,3.483v-.032c-.006.81.007,1.619-.026,2.428.047.212-.107.9.153.914.2-.1.089-.358.1-.531-.017-.979-.054-1.956-.07-2.935.016-1.3.027-2.615-.079-3.915-.078-.287.078-1.279-.132-1.37Z" transform="translate(-660.724 -1064.655)" fill="#fefefe"/>
    <path id="Path_8325" data-name="Path 8325" d="M1040.387,1335.146c-.147.034-.13.244-.156.361q-.036,1.416-.039,2.831c0-.015,0-.03,0-.044.082,3.088-.169,6.209.076,9.275.485.1.06-1.327.158-1.634v0c.021-.319-.016-.638-.005-.957,0,.01,0,.021,0,.031.077-2.229-.019-4.458-.017-6.689,0,.015,0,.029,0,.044.033-1.031-.054-2.074.057-3.1.01-.049-.012-.123-.073-.121Zm.054,7.87v0Zm-.273,2.924c0,.01,0,.02,0,.031,0-.01,0-.02,0-.031Z" transform="translate(-748.125 -1052.225)" fill="#fefefe"/>
    <path id="Path_8326" data-name="Path 8326" d="M1148.823,1421.971a7.583,7.583,0,0,0-.24,1.833c.031.24-.215.737.032.861.388-.193.208-1.855.368-2.34.019-.151.2-.382.028-.493-.085-.031-.166.069-.187.139Z" transform="translate(-848.793 -1132.764)" fill="#fefefe"/>
    <path id="Path_8327" data-name="Path 8327" d="M1211.19,828.017c-.305.119-.179.669-.02.863.286.006.2-.36.134-.533-.044-.1.046-.313-.114-.33Z" transform="translate(-906.864 -581.034)" fill="#fefefe"/>
    <path id="Path_8328" data-name="Path 8328" d="M1218.8,824.978c-.232,0-.308.786-.04.726.172,0,.22-.761.04-.726Z" transform="translate(-913.91 -578.209)" fill="#fefefe"/>
    <path id="Path_8329" data-name="Path 8329" d="M1235.164,823.377c-.117.12-.305.359-.235.532.118.078.162-.119.209-.191s.236-.345.027-.341Z" transform="translate(-929.079 -576.723)" fill="#fefefe"/>
    <path id="Path_8330" data-name="Path 8330" d="M1278.161,816.188c-.149.1-.965.689-.643.835.246-.148.414-.428.676-.569.094-.055.123-.3-.032-.266Z" transform="translate(-968.595 -570.04)" fill="#fefefe"/>
    <path id="Path_8331" data-name="Path 8331" d="M1291.025,823.091c-.207.113-.87.407-.639.692.226-.066.4-.328.644-.4.122-.039.171-.332-.005-.294Z" transform="translate(-980.576 -576.454)" fill="#fefefe"/>
    <path id="Path_8332" data-name="Path 8332" d="M1302.877,832.813c-.094.066-.368.083-.3.244.07.031.512-.184.3-.244Z" transform="translate(-991.937 -585.49)" fill="#fefefe"/>
    <path id="Path_8333" data-name="Path 8333" d="M1316.209,853.088c-.34.236-.676.606-1.136.553-.044,0-.078.049-.091.086-.069.22.252.124.374.118.212-.048,1.184-.508.853-.756Zm-.532.392-.019.011.019-.011Z" transform="translate(-1003.465 -604.328)" fill="#fefefe"/>
    <path id="Path_8334" data-name="Path 8334" d="M1320.622,864.582c-.177.165-.939.265-.767.541.136.093,1.207-.429.767-.541Z" transform="translate(-1007.978 -615.008)" fill="#fefefe"/>
    <path id="Path_8335" data-name="Path 8335" d="M1325.958,874.223c-.151.069-.589.058-.5.3.156.02.328-.107.491-.128.063-.023.1-.163.014-.174Z" transform="translate(-1013.193 -623.965)" fill="#fefefe"/>
    <path id="Path_8336" data-name="Path 8336" d="M1334.021,882.649c-.2.233.288.193.421.231.257-.213-.3-.246-.421-.231Z" transform="translate(-1021.12 -631.791)" fill="#fefefe"/>
    <path id="Path_8337" data-name="Path 8337" d="M546.483,228.875c.236.078.47.17.712.231.348.088.684.217,1.029.312a17.139,17.139,0,0,1,1.853.693c.634.256,1.277.494,1.9.791a6.79,6.79,0,0,0,.817.323c.258.085.5.207.745.312.315.134.616.3.932.435a3.3,3.3,0,0,1,.757.521.943.943,0,0,1,.249.519c.061.2.059.42.1.625.066.311.116.624.165.937.1.627.211,1.252.276,1.885.037.365.108.726.162,1.089a.211.211,0,0,0,.134.16c.123.066.141.082.064.194a1.122,1.122,0,0,0-.1.8c.037.422.064.845.126,1.265a11.342,11.342,0,0,1,.057,1.293c.018.554,0,1.109.05,1.662a2.729,2.729,0,0,1,0,.465,7.392,7.392,0,0,0,.018,1.1c.031.536.088,1.07.107,1.608.012.316.03.634.053.951.028.382.019.767.025,1.15a.71.71,0,0,0,.067.356.562.562,0,0,1,.042.335.312.312,0,0,1-.228.287,4.811,4.811,0,0,1-.95.211c-.267.026-.533.08-.8.13a3.159,3.159,0,0,0-.649.105.465.465,0,0,1-.195.007,1.8,1.8,0,0,0-.581.036,1.785,1.785,0,0,1-.39.017,8.8,8.8,0,0,0-1.5.181c-.423.086-.853.137-1.279.212-.377.066-.753.144-1.129.217a2.9,2.9,0,0,1-.359.07,5,5,0,0,0-.763.165c-.247.055-.492.118-.742.153-.421.058-.834.156-1.249.24a2.828,2.828,0,0,1-.314.048,3.607,3.607,0,0,0-.551.1,10.56,10.56,0,0,1-1.23.19c-.469.059-.938.119-1.407.172-.259.029-.518.059-.775.1-.4.068-.8.136-1.2.234a.415.415,0,0,1-.259-.011c-.713-.257-1.409-.561-2.13-.8-.271-.088-.552-.14-.822-.235-.552-.2-1.114-.364-1.661-.573-.609-.233-1.221-.457-1.817-.723-.342-.153-.695-.283-1.046-.416s-.7-.268-1.05-.406-.734-.271-1.107-.386c-.608-.188-1.208-.4-1.812-.6-.426-.142-.847-.3-1.268-.454-.328-.121-.645-.273-.964-.419-.141-.064-.28-.131-.427-.183-.21-.074-.24-.15-.128-.342.03-.052.043-.08,0-.122a.292.292,0,0,1-.085-.222c0-.524-.079-1.042-.109-1.564-.037-.626-.086-1.251-.106-1.877-.016-.505-.039-1.01-.051-1.516-.009-.4-.034-.8-.036-1.2,0-.547,0-1.094,0-1.641,0-1.046-.07-2.088-.126-3.132-.03-.571-.034-1.143-.065-1.714-.02-.375-.031-.75-.045-1.125a5.6,5.6,0,0,1,.011-.612.387.387,0,0,1,.354-.4,4.423,4.423,0,0,1,.458-.074,9.191,9.191,0,0,0,1.025-.227c.669-.145,1.336-.3,2.005-.437.6-.124,1.193-.267,1.787-.411.309-.075.621-.136.927-.224a.763.763,0,0,0,.294-.113.142.142,0,0,1,.088-.033,5.96,5.96,0,0,0,1.423-.326,10.52,10.52,0,0,1,1.308-.308,1.9,1.9,0,0,0,.407-.122,1.832,1.832,0,0,0-.417-.312q-.872-.589-1.75-1.169c-.272-.179-.561-.335-.827-.523-.506-.358-1-.727-1.488-1.116-.2-.159-.376-.335-.559-.508-.159-.15-.34-.277-.512-.414-.388-.311-.78-.615-1.191-.9-.363-.248-.725-.5-1.1-.723a2.364,2.364,0,0,1-.254-.191c-.5-.4-1.03-.747-1.543-1.123-.454-.333-.89-.69-1.334-1.035a4.261,4.261,0,0,0-.392-.293c-.337-.2-.614-.485-.934-.711-.352-.249-.714-.48-1.089-.693-.269-.153-.524-.332-.783-.5-.422-.28-.836-.57-1.262-.842a9.047,9.047,0,0,1-.842-.628,3.293,3.293,0,0,0-.306-.245.718.718,0,0,1-.334-.733,6.985,6.985,0,0,1,.238-1.272,11.846,11.846,0,0,1,1.194-2.836c.157-.267.306-.538.48-.8a9.76,9.76,0,0,1,.84-1.051c.272-.3.559-.592.828-.9a7.3,7.3,0,0,1,.663-.652,16.507,16.507,0,0,1,1.279-1.066,9.224,9.224,0,0,1,.784-.5c.659-.378,1.3-.78,1.975-1.134a23.674,23.674,0,0,1,2.424-1.116c.822-.322,1.662-.585,2.5-.857a12.559,12.559,0,0,1,1.361-.306c.559-.115,1.119-.232,1.681-.332.466-.083.94-.122,1.4-.219a15.452,15.452,0,0,1,2.087-.256c.553-.038,1.106-.085,1.659-.133.88-.076,1.762-.065,2.642-.068a19.264,19.264,0,0,1,2.732.184c.662.093,1.324.185,1.982.3.754.137,1.516.23,2.266.381a15.293,15.293,0,0,1,1.6.374c.349.11.716.162,1.074.241.439.1.866.235,1.3.361.681.2,1.344.449,2.005.7.357.137.692.332,1.049.471a8.792,8.792,0,0,1,2.6,1.575,17.542,17.542,0,0,1,1.64,1.57,12.62,12.62,0,0,1,.886,1.075c.125.181.279.338.408.515.158.217.31.439.451.667.3.477.589.956.871,1.441a7.213,7.213,0,0,1,.744,1.618,3.385,3.385,0,0,0,.33.889.132.132,0,0,1,.018.07c0,.086-.183.29-.265.28a.827.827,0,0,0-.572.225c-.177.117-.348.244-.526.358-.3.189-.54.445-.828.646-.308.215-.593.459-.9.678-.35.252-.676.536-1.02.8a16.631,16.631,0,0,1-1.378.976,2.152,2.152,0,0,0-.337.281,3.791,3.791,0,0,1-.709.56,2.827,2.827,0,0,0-.48.377c-.085.076-.178.143-.268.213-.47.363-.93.741-1.414,1.084-.445.314-.854.676-1.315.968-.185.117-.343.276-.524.4a13.4,13.4,0,0,0-1.1.856c-.323.277-.7.483-1.009.772a.958.958,0,0,1-.2.137,5.2,5.2,0,0,0-.77.558c-.4.322-.751.7-1.179.989-.449.3-.828.686-1.265,1-.258.185-.531.346-.781.544-.109.087-.2.19-.3.281a10.09,10.09,0,0,0-.842.664C546.547,228.784,546.5,228.8,546.483,228.875Zm-8.234,17.875-.223.008a.206.206,0,0,0-.134-.131c-.112-.05-.224-.1-.332-.158s-.178-.095-.268.028c-.035.047-.133.059-.2.067a2.653,2.653,0,0,0-.719.133.108.108,0,0,1-.134-.028c-.106-.129-.083-.238.067-.309.051-.024.107-.04.161-.06a1.223,1.223,0,0,1,.642-.023c-.192-.13-.387-.244-.584-.356a.134.134,0,0,0-.138,0,4.763,4.763,0,0,1-.834.264c-.032.009-.076.016-.091-.012a.536.536,0,0,1-.073-.2c0-.059.061-.093.118-.109.086-.024.174-.04.262-.06a.808.808,0,0,0,.272-.09c-.03-.084-.1-.092-.154-.123-.1-.061-.2-.1-.287.032-.023.035-.086.041-.13.064a1.682,1.682,0,0,1-.642.116c-.111.011-.163-.023-.185-.115s.024-.143.126-.177a2.159,2.159,0,0,1,.388-.048c.076-.011.163.012.224-.076a1.646,1.646,0,0,0-.321-.175.276.276,0,0,0-.164-.038c-.422.04-.837.119-1.254.191-.029,0-.067,0-.074.07.069.035.145.078.224.114a2.462,2.462,0,0,1,.427.238,1.223,1.223,0,0,0,.19.109c.435.205.878.394,1.3.616a9.973,9.973,0,0,1,1.259.648.062.062,0,0,0,.088,0,.075.075,0,0,0,.011-.066c-.068-.127.023-.185.108-.23a1.181,1.181,0,0,1,.85-.1c.074,0,.15.036.223-.009,0,.032,0,.064.005.1.019.126.007.16-.107.183a2.4,2.4,0,0,1-.434.053,1.551,1.551,0,0,0-.521.133.7.7,0,0,0,.265.159c.069.027.135.053.1.157-.015.048.034.066.08.056l.31-.067c.052-.011.077-.047.107-.089.166-.232.276-.262.54-.153.059.024.112.068.183.053l.523-.115a8.359,8.359,0,0,0-.887-.376C538.354,246.816,538.283,246.816,538.248,246.75Zm13.725-31.228a1.748,1.748,0,0,0,0-.707c-.111-.527-.228-1.053-.383-1.569-.117-.39-.249-.775-.366-1.165a6.217,6.217,0,0,0-.3-.75c-.188-.42-.465-.787-.687-1.186a6.674,6.674,0,0,0-.572-.854,15.64,15.64,0,0,0-1.548-1.734c-.544-.519-1.132-.986-1.719-1.455a15.494,15.494,0,0,0-1.818-1.285,7.536,7.536,0,0,0-1.16-.57c-.427-.161-.847-.343-1.269-.518a4.744,4.744,0,0,1-.754-.351.435.435,0,0,0-.139-.042,2.121,2.121,0,0,1-.467-.143c-.151-.073-.285-.091-.39.074-.027.042-.078.055-.12.078a6.135,6.135,0,0,0-.933.521,10.212,10.212,0,0,1-.82.652,2.546,2.546,0,0,0-.45.446c-.16.173-.335.334-.509.493a11.792,11.792,0,0,0-.819.964,1.627,1.627,0,0,0-.18.258,4.825,4.825,0,0,1-.275.4c-.128.175-.274.337-.391.523a6.922,6.922,0,0,1-.6,1,.446.446,0,0,0-.08.151,3.382,3.382,0,0,1-.446.836.412.412,0,0,0-.069.155,1.755,1.755,0,0,1-.188.449,1.226,1.226,0,0,0-.083.176,5.112,5.112,0,0,1-.4.993,3.482,3.482,0,0,0-.122.418,1.684,1.684,0,0,0-.2.669.857.857,0,0,1-.071.258,2.672,2.672,0,0,0-.154.64,1.991,1.991,0,0,1-.087.4,7.312,7.312,0,0,0-.164.912,5.355,5.355,0,0,0-.044,1.066,1.747,1.747,0,0,0,.068.563.712.712,0,0,0,.209-.249,3.164,3.164,0,0,1,.225-.32,8.873,8.873,0,0,1,1.263-1.191,6.483,6.483,0,0,1,1.174-.837c.362-.189.72-.384,1.087-.563a7.489,7.489,0,0,1,1.049-.469,18.549,18.549,0,0,1,2.216-.607,13.855,13.855,0,0,1,1.849-.18,10.142,10.142,0,0,1,1.832.076,18.142,18.142,0,0,1,1.829.315c.294.072.573.188.864.267a7.887,7.887,0,0,1,1.855.8c.108.062.187.151.294.21.413.229.809.485,1.2.748.277.185.525.411.819.575a3.017,3.017,0,0,1,.578.409A3.026,3.026,0,0,0,551.973,215.521Zm-19.141.4c.045-.063.021-.12.022-.175a8.325,8.325,0,0,1,.014-.927c.022-.178.065-.354.085-.532a10.623,10.623,0,0,1,.3-1.535,2.988,2.988,0,0,0,.093-.43,1.522,1.522,0,0,1,.073-.333c.249-.715.524-1.42.815-2.12.157-.378.381-.721.555-1.09s.408-.707.6-1.066a10.009,10.009,0,0,1,.68-1.046,11.955,11.955,0,0,1,.719-.959,16.569,16.569,0,0,1,1.268-1.327,11.472,11.472,0,0,1,1.45-1.119c.041-.027.116-.033.108-.125a2.639,2.639,0,0,0-.555,0c-.332.039-.666.062-1,.091a8.745,8.745,0,0,0-1.29.129c-.269.064-.542.116-.816.16-.354.057-.714.084-1.065.155-.951.192-1.909.355-2.848.606a3.219,3.219,0,0,0-.379.1,7.335,7.335,0,0,1-.765.255,16.69,16.69,0,0,0-1.651.6c-.2.078-.4.147-.588.234a25.632,25.632,0,0,0-2.346,1.211c-.463.269-.926.541-1.4.789a6.318,6.318,0,0,0-1.109.8c-.337.282-.639.6-.969.895a5.127,5.127,0,0,0-.463.435c-.076.085-.14.182-.221.262-.354.351-.682.726-1.01,1.1a4.962,4.962,0,0,0-.453.6,8.472,8.472,0,0,1-.586,1.009,3.209,3.209,0,0,0-.284.566,4.385,4.385,0,0,0-.377.822c-.152.48-.288.966-.425,1.451a2.682,2.682,0,0,0-.124.53.173.173,0,0,0,.116-.071,7.847,7.847,0,0,1,1.4-1.073,9.647,9.647,0,0,1,1.167-.566,8.823,8.823,0,0,1,2.352-.735,9.643,9.643,0,0,1,2.026-.1,11.71,11.71,0,0,1,1.215.131c.393.072.794.1,1.182.2a10.746,10.746,0,0,1,1.071.338,7.571,7.571,0,0,1,1.317.574c.069.043.146.072.219.108a8.243,8.243,0,0,1,1.672,1.055A.419.419,0,0,0,532.832,215.924Zm2.017,25.024a14.783,14.783,0,0,0,.165,1.923.687.687,0,0,1,.006.122,3.485,3.485,0,0,0,.088.8,1.872,1.872,0,0,1,.068.557.776.776,0,0,0,.064.285.1.1,0,0,0,.125.086l.17-.021c.194-.026.389-.05.582-.081s.367-.1.564-.122c.357-.039.715-.063,1.071-.113.768-.107,1.542-.163,2.307-.3.5-.088,1-.136,1.5-.242.115-.025.178-.061.188-.179s.031-.26.035-.39c.012-.408.015-.816.028-1.224.008-.261.031-.521.019-.783a12.6,12.6,0,0,1,.006-1.834,2.345,2.345,0,0,0,.02-.365,12.325,12.325,0,0,1,.024-1.664c.021-.277.028-.555.021-.833s-.006-.556,0-.833c0-.375.015-.75.008-1.125s-.03-.767-.048-1.15c-.023-.49-.008-.981-.066-1.469a4.876,4.876,0,0,1-.04-.512q-.012-1.089-.107-2.174c-.031-.366-.057-.732-.1-1.1-.018-.166-.052-.207-.193-.152a4.035,4.035,0,0,1-.762.16c-.513.094-1.022.205-1.532.309-.374.076-.747.164-1.124.226-.242.04-.48.09-.719.145-.429.1-.864.172-1.284.307a.376.376,0,0,1-.1.015,8,8,0,0,0-.991.155c-.2.034-.243.1-.257.3a3,3,0,0,0,.016.464c.027.326-.013.652,0,.977.015.341,0,.682,0,1.022s-.02.7-.013,1.052c.016.756.049,1.512.076,2.267.018.488.043.975.058,1.463.02.651.046,1.3.046,1.953C534.766,239.567,534.822,240.257,534.849,240.949ZM532.11,230.08a.152.152,0,0,0-.053-.008c-.549.15-1.1.283-1.656.418-.459.112-.915.237-1.383.311a1.533,1.533,0,0,0-.217.034c-.428.134-.866.23-1.3.331a7.13,7.13,0,0,1-1.615.263c-.12,0-.134.023-.12.155a4.858,4.858,0,0,1,.03.752,1.183,1.183,0,0,0-.013.241c.064.4.032.8.058,1.195.041.642.071,1.286.094,1.929.028.791.077,1.582.062,2.374-.006.343-.023.686-.016,1.028.016.758.054,1.517.064,2.275.008.6.065,1.2.085,1.807.029.889.154,1.772.17,2.662,0,.074.031.1.1.1s.131,0,.2-.01c.454-.046.911-.058,1.365-.126.628-.095,1.263-.144,1.9-.212.413-.045.822-.12,1.236-.159a6.53,6.53,0,0,0,.771-.137q.311-.068.625-.117c.11-.017.158-.067.149-.177,0-.032.015-.066.01-.1-.045-.265-.034-.536-.083-.8a5.647,5.647,0,0,1-.086-.778c-.021-.489-.045-.978-.051-1.469-.006-.506-.041-1.011-.06-1.517-.007-.188.007-.377-.011-.563-.1-1.016-.093-2.039-.178-3.057-.02-.244,0-.491-.02-.734-.067-.781-.092-1.564-.122-2.346-.022-.571-.012-1.141.021-1.712.029-.5.035-1.01.066-1.515A1,1,0,0,0,532.11,230.08Zm9.676-27a.7.7,0,0,0,.268.136,2.148,2.148,0,0,1,.365.138c.386.152.754.348,1.154.465a3.071,3.071,0,0,1,.472.2,12.03,12.03,0,0,1,1.9,1.154c.268.2.527.41.783.624.319.267.663.5.977.777.5.435.974.891,1.427,1.374.291.31.548.646.814.976a4.094,4.094,0,0,1,.472.653,2.477,2.477,0,0,0,.175.347,9.479,9.479,0,0,1,.87,1.525,2.8,2.8,0,0,1,.139.339c.113.331.169.678.292,1.007.076.2.135.415.2.625.066.234.086.477.167.709a2.9,2.9,0,0,1,.161,1.152.18.18,0,0,0,.055.147c.051-.006.07-.046.09-.079a3.888,3.888,0,0,1,.6-.7,8.179,8.179,0,0,1,1.182-.988,6.73,6.73,0,0,1,1.459-.737,9.211,9.211,0,0,1,2.984-.487,10.679,10.679,0,0,1,2.309.242c.17.031.331.087.5.125a2.245,2.245,0,0,1,.889.379,5.712,5.712,0,0,1,1.011.8.538.538,0,0,0,.225.164,2.225,2.225,0,0,0-.255-.7c-.316-.636-.7-1.237-1.06-1.846-.277-.463-.6-.9-.919-1.329a14.881,14.881,0,0,0-1.588-1.827c-.368-.358-.749-.7-1.138-1.038a8.684,8.684,0,0,0-1.271-.909,9.216,9.216,0,0,0-.981-.494c-.5-.219-.991-.464-1.5-.655a25.374,25.374,0,0,0-2.636-.835c-.521-.132-1.054-.222-1.572-.365a19.244,19.244,0,0,0-2.2-.45c-.636-.1-1.269-.215-1.908-.3-.542-.068-1.084-.139-1.624-.226a15.9,15.9,0,0,0-1.587-.12c-.49-.029-.98-.022-1.47-.02A.361.361,0,0,0,541.786,203.079Zm-2.277,21.529a.309.309,0,0,0,.148-.144.779.779,0,0,1,.731-.409.828.828,0,0,1,.813.437,4.083,4.083,0,0,1,.419,1.037,2.1,2.1,0,0,1,.056.935.283.283,0,0,0,.008.122,2.325,2.325,0,0,1-.034.916c-.006.032,0,.044.023.054a.048.048,0,0,0,.064-.018,1.27,1.27,0,0,0,.1-.377,3.714,3.714,0,0,1,.575-1.444,4.951,4.951,0,0,1,.741-.9,1.76,1.76,0,0,1,.71-.5.1.1,0,0,0,.075-.087c.016-.063.039-.125.052-.189q.226-1.115.449-2.23c.129-.639.256-1.279.392-1.917a.17.17,0,0,0-.094-.217,2.987,2.987,0,0,0-.572-.273c-.232-.076-.449-.206-.676-.277-.332-.1-.663-.217-1-.31-.4-.11-.792-.258-1.2-.331a21.708,21.708,0,0,0-2.252-.317c-.725-.053-1.449-.093-2.176-.1a11.16,11.16,0,0,0-1.952.118c-.062.01-.134-.009-.18.047a.088.088,0,0,0,.024.091c.106.145.208.292.315.436.261.355.518.712.786,1.061.353.459.733.9,1.069,1.37.123.173.239.35.367.519.305.4.644.78.924,1.2.154.231.347.432.508.659C538.969,223.93,539.243,224.264,539.509,224.608Zm.6,3.3a.317.317,0,0,0-.141-.174,2.315,2.315,0,0,1-.823-1.457,1.94,1.94,0,0,1,.1-1.105.218.218,0,0,0-.038-.244c-.1-.119-.172-.259-.272-.376-.606-.707-1.111-1.491-1.7-2.216-.5-.621-.964-1.276-1.457-1.905-.508-.648-1.017-1.3-1.467-1.99a.3.3,0,0,0-.348-.142c-.25.042-.494.108-.743.149-.442.073-.884.143-1.319.257-.544.142-1.1.251-1.64.4-.369.1-.728.236-1.093.352a1.644,1.644,0,0,0-.4.183c-.154.1-.155.094-.043.223a8.709,8.709,0,0,0,.785.769c.474.424.96.834,1.444,1.246.23.2.461.389.7.566a4.573,4.573,0,0,1,.483.411c.047.045.095.088.145.13.238.2.489.382.714.594.279.262.574.505.855.765.479.442.937.906,1.445,1.318a8.473,8.473,0,0,1,1.091,1.015,1.448,1.448,0,0,0,.13.111,6.391,6.391,0,0,1,.562.472,5.556,5.556,0,0,0,.5.464,1.968,1.968,0,0,1,.492.469.152.152,0,0,0,.194.091c.414-.09.83-.173,1.245-.257C539.706,227.983,539.9,227.947,540.1,227.906Zm-20.8-11.271a1.429,1.429,0,0,0,.279.261,12.8,12.8,0,0,0,1.144.8c.6.373,1.166.81,1.782,1.166.219.126.42.282.628.427.488.342.926.749,1.425,1.077.566.372,1.058.845,1.617,1.23.826.569,1.61,1.2,2.458,1.736a10.3,10.3,0,0,1,.942.659c.553.445,1.114.88,1.665,1.326.494.4,1.012.773,1.536,1.133.462.318.947.6,1.423.9.07.043.134.091.2.139a7.662,7.662,0,0,0,.763.528,5.725,5.725,0,0,0,.794.479.174.174,0,0,1,.089.08c.077.158.209.141.337.1.361-.106.736-.143,1.1-.239.043-.011.1,0,.113-.071-.373-.349-.748-.7-1.122-1.05-.256-.241-.506-.488-.765-.724-.471-.428-.949-.849-1.421-1.276s-.917-.861-1.393-1.271c-.711-.612-1.414-1.235-2.15-1.82-.409-.325-.8-.675-1.2-1.014-.336-.286-.663-.582-.969-.9a2.134,2.134,0,0,0-.554-.511.07.07,0,0,1-.031-.037c-.067-.189-.24-.283-.372-.412a6.882,6.882,0,0,0-1.037-.855,10.988,10.988,0,0,0-1.914-.981c-.174-.071-.343-.154-.522-.208a17.4,17.4,0,0,0-2.355-.562,9.527,9.527,0,0,0-1.772-.164C519.806,216.588,519.582,216.614,519.308,216.635Zm37.485,2.286a5.926,5.926,0,0,0-1.016-.385,16.105,16.105,0,0,0-2.1-.31,17.168,17.168,0,0,0-1.758-.057c-.285,0-.569.043-.853.032-.153-.006-.272.019-.333.177a.248.248,0,0,1-.083.086,1.771,1.771,0,0,0-.507.614,2.291,2.291,0,0,1-.424.652,2.7,2.7,0,0,0-.4.5,9.995,9.995,0,0,1-.644.952c-.348.443-.6.952-.929,1.407-.374.513-.706,1.057-1.093,1.561a.884.884,0,0,0-.156.248,2.483,2.483,0,0,1-.409.69.342.342,0,0,0-.057.342,2.467,2.467,0,0,1,.088.432.464.464,0,0,1-.092.366c-.035.045-.062.1-.093.143a1.506,1.506,0,0,1-.492.5c-.168.1-.334.2-.508.293a.446.446,0,0,0-.2.173c-.133.234-.268.467-.4.7a.37.37,0,0,0-.033.091c-.031.122-.026.139.092.178.147.049.3.078.444.135a.422.422,0,0,0,.491-.1c.443-.425.975-.737,1.429-1.151.7-.638,1.452-1.214,2.155-1.849.382-.345.764-.689,1.154-1.025.457-.394.958-.733,1.41-1.135.769-.683,1.619-1.268,2.391-1.949.41-.361.84-.7,1.265-1.044a12.461,12.461,0,0,1,1.082-.8A4.125,4.125,0,0,0,556.793,218.921Zm-22.217,23.726a6.577,6.577,0,0,0-.04-.835c-.04-.659-.077-1.319-.1-1.98-.018-.577-.025-1.154-.026-1.732,0-.454-.06-.91-.056-1.366.007-.767-.073-1.53-.077-2.3,0-.47-.042-.941-.015-1.412.007-.131-.019-.259-.022-.389-.01-.384.047-.765.031-1.149a2.618,2.618,0,0,1-.017-.39c.056-.505-.056-1.01,0-1.515.009-.072-.043-.1-.111-.094a.764.764,0,0,0-.117.035c-.249.075-.5.161-.749.22-.215.05-.422.12-.634.178a.145.145,0,0,0-.123.154c-.01.236-.033.471-.043.707-.014.326-.031.651-.027.978,0,.308-.059.616-.063.926a1.513,1.513,0,0,1,.008.34,2.011,2.011,0,0,0-.021.585c.044.9.1,1.808.148,2.712.016.285.039.569.046.854.009.375.046.749.037,1.125a4.279,4.279,0,0,0,.028.611c.05.414.065.828.077,1.244a3.592,3.592,0,0,0,0,.366,13.384,13.384,0,0,1,.052,1.369c.009.383.018.766.042,1.149s.136.722.144,1.09c.005.253.071.5.079.752.005.172.051.192.216.163.064-.011.129-.019.193-.029.412-.063.822-.131,1.235-.185.142-.019.146-.077.135-.177q-.092-.814-.178-1.629a.532.532,0,0,0-.08-.3c-.016.076-.04.142-.111.157-.191.043-.381.087-.574.118-.08.013-.176-.006-.2-.1a.24.24,0,0,1,.094-.211.172.172,0,0,1,.065-.032.845.845,0,0,1,.5-.05A.5.5,0,0,0,534.576,242.647Zm16.368.452a.292.292,0,0,1-.272.054,2.638,2.638,0,0,1-.736-.319.181.181,0,0,1-.1-.2c.01-.054.158-.117.23-.1a.19.19,0,0,1,.068.026c.219.142.473.222.684.379.037.028.064.079.125.047a1.876,1.876,0,0,0,.031-.533c-.013-.9-.033-1.8-.05-2.693-.007-.343,0-.687-.026-1.028-.043-.5-.08-1.008-.094-1.515a1.108,1.108,0,0,0-.091-.525.144.144,0,0,1-.012-.118,1.25,1.25,0,0,0,.012-.437c-.011-.268-.03-.536-.051-.8-.033-.431-.06-.864-.112-1.293-.031-.26-.058-.519-.065-.78a9.7,9.7,0,0,0-.089-1.293c-.067-.41-.153-.817-.228-1.225a.172.172,0,0,0-.13-.147,2.952,2.952,0,0,1-.75-.34.265.265,0,0,0-.208-.053.231.231,0,0,1-.2-.067c-.135-.154-.331-.155-.5-.24-.076.134-.017.251,0,.367s.064.235.078.358a12.949,12.949,0,0,0,.2,1.281,1.991,1.991,0,0,1,.021.218c.032.308.039.618.094.925a5.112,5.112,0,0,1,.095.7c.027.749.119,1.493.189,2.238.047.494.059.991.126,1.485a10,10,0,0,1,.066,1.1c.013.6.055,1.189.08,1.784.007.163,0,.326,0,.49,0,.539.014,1.078.008,1.616,0,.432-.041.864-.043,1.3,0,.416-.042.83-.065,1.244a4.219,4.219,0,0,0,.006.828c.007.048.031.1,0,.144-.079.12.013.139.091.157.391.091.759.251,1.14.37.093.029.188.054.282.081.072.021.1-.009.116-.081a5.656,5.656,0,0,0,.13-1.214c-.006-.244-.009-.489-.011-.734C550.984,244.07,550.993,243.6,550.945,243.1Zm-.74-24.788c-.062-.049-.13-.026-.191-.029a3.041,3.041,0,0,0-.7.1c-.495.1-.994.167-1.488.268a8.994,8.994,0,0,0-1.964.657,1.6,1.6,0,0,0-.346.181c-.058.046-.132.089-.15.157-.06.228-.19.429-.229.667-.054.327-.175.639-.208.973-.013.127-.076.248-.1.377-.065.36-.136.719-.209,1.078-.041.2-.093.4-.134.595-.057.279-.1.562-.18.836-.032.1,0,.136.1.146.04,0,.082,0,.122,0a3.761,3.761,0,0,1,.817.133,1.6,1.6,0,0,1,.463.289C547.243,222.559,548.732,220.442,550.205,218.311Zm13.008-2.872-.02-.051a5.026,5.026,0,0,0-.959.134,5.45,5.45,0,0,0-1.064.415c-.241.1-.478.21-.709.331a1.992,1.992,0,0,0-.4.272,2.568,2.568,0,0,1-.428.322,1.252,1.252,0,0,0-.356.257,2.431,2.431,0,0,1-.421.371,1.954,1.954,0,0,0-.347.343,1.551,1.551,0,0,1-.253.263,1.168,1.168,0,0,0-.451.678,1.4,1.4,0,0,1-.062.186.351.351,0,0,1-.358.216.27.27,0,0,0-.265.066c-.265.182-.532.361-.8.532a8.238,8.238,0,0,0-1,.739c-.074.064-.148.128-.223.19-.478.393-.989.747-1.433,1.183a2.528,2.528,0,0,1-.316.27c-.307.215-.6.445-.89.684a2.641,2.641,0,0,1-.354.3,2.468,2.468,0,0,0-.419.334,8.683,8.683,0,0,1-.882.734,7.969,7.969,0,0,0-.707.562c-.394.342-.748.729-1.171,1.038a1.216,1.216,0,0,0-.239.208,3.554,3.554,0,0,1-.77.677,1.428,1.428,0,0,0-.153.121c-.281.259-.554.526-.841.777a3.137,3.137,0,0,1-.518.445,4.661,4.661,0,0,0-.612.445c-.047.037-.131.073-.1.149s.126.065.2.072a.194.194,0,0,0,.114-.037,2.538,2.538,0,0,0,.38-.266c.436-.421.954-.739,1.406-1.139.2-.179.448-.3.656-.47.675-.555,1.384-1.067,2.044-1.641a14.047,14.047,0,0,1,1.142-.884c.44-.31.853-.658,1.288-.975q.969-.708,1.92-1.439c.622-.477,1.265-.924,1.878-1.414.5-.4.993-.823,1.523-1.192a1,1,0,0,0,.095-.077,6.454,6.454,0,0,1,.6-.468c.373-.264.75-.524,1.109-.806.914-.714,1.855-1.392,2.751-2.129C562.93,215.653,563.073,215.548,563.213,215.439Zm-12.938,31.508c-.019-.076-.076-.08-.118-.094-.325-.108-.65-.218-.979-.314a.947.947,0,0,0-.5-.078,2.958,2.958,0,0,1-.753.075,5.416,5.416,0,0,0-.626.083c-.257.028-.518.06-.777.067a14.956,14.956,0,0,0-1.554.176c-.452.061-.9.121-1.357.176-.2.025-.408.026-.609.058-.629.1-1.263.152-1.894.229-.38.047-.766.068-1.141.145-.551.113-1.105.208-1.653.344-.782.194-1.577.337-2.366.5a1.42,1.42,0,0,0-.211.06,2.6,2.6,0,0,1-.416.141,8.813,8.813,0,0,0-1.163.282,2.47,2.47,0,0,0-.411.115c0,.038.028.047.049.057.6.286,1.218.511,1.833.753a.352.352,0,0,0,.238-.014c.219-.062.438-.125.659-.181.356-.09.724-.135,1.078-.218.525-.124,1.055-.207,1.583-.309.216-.042.434-.079.652-.111.234-.034.469-.056.7-.087a.211.211,0,0,0,.176-.077c-.015-.017-.026-.043-.045-.051-.247-.111-.458-.282-.692-.416a.617.617,0,0,1-.136-.1.138.138,0,0,1,.077-.24.327.327,0,0,1,.278.062c.149.114.306.219.446.343.124.11.3.172.347.363.015.06.083.033.129.028.365-.045.73-.082,1.093-.139.556-.087,1.109-.187,1.663-.284a1.683,1.683,0,0,0,.174-.049.18.18,0,0,0-.135-.088,1.882,1.882,0,0,1-.662-.408.159.159,0,0,1-.031-.236c.042-.074.1-.067.169-.049a.4.4,0,0,1,.193.1,1.772,1.772,0,0,0,.75.445c.047.014.1.018.128.064.056.115.159.109.253.1.2-.03.4-.073.6-.113a.11.11,0,0,0,.062-.036c.087-.114.19-.086.308-.057a.77.77,0,0,0,.5-.1,4.664,4.664,0,0,0-.559-.252,2.129,2.129,0,0,1-.434-.224.123.123,0,0,1-.047-.171c.037-.07.08-.122.172-.1a.522.522,0,0,1,.182.067,2.953,2.953,0,0,0,.458.232,2.5,2.5,0,0,1,.3.169c.113.07.1.162.079.276.361-.092.737-.075,1.091-.2a4.362,4.362,0,0,1-.47-.14,1.075,1.075,0,0,1-.415-.25.1.1,0,0,1-.024-.13c.064-.14.118-.166.266-.12a.433.433,0,0,1,.145.089,1.524,1.524,0,0,0,.416.252c.127.048.221.118.207.276l.608-.141a1.582,1.582,0,0,0-.37-.178,1.476,1.476,0,0,1-.2-.085c-.084-.041-.088-.108-.056-.186s.069-.106.151-.075c.045.017.1.011.144.028a.773.773,0,0,1,.489.338c.075.149.081.15.24.112s.314-.1.474-.12a6.463,6.463,0,0,0,1.062-.285A.372.372,0,0,0,550.275,246.947ZM540,212.6a.306.306,0,0,0-.19.023c-.18.054-.359.108-.538.165s-.182.087-.051.227c.166.179.339.353.5.534.311.347.638.677.971,1a3.119,3.119,0,0,1,.473.588,10,10,0,0,0,.749,1.054,19.5,19.5,0,0,1,1.22,1.554,1.243,1.243,0,0,1,.191.339.345.345,0,0,0,.127.174.474.474,0,0,1,.2.3c.015.126.09.173.2.219.247.108.512.164.752.29.131.069.192.034.178-.11-.033-.35-.038-.7-.057-1.051-.013-.236-.018-.475-.055-.708a11.854,11.854,0,0,0-.232-1.226,12.234,12.234,0,0,0-.383-1.314c-.113-.289-.222-.579-.334-.868a.445.445,0,0,0-.048-.072c-.244.114-.4-.022-.529-.205a2.61,2.61,0,0,0-.185-.229c-.276-.3-.554-.6-.832-.9-.028-.03-.057-.072-.1-.065a2.371,2.371,0,0,0-.47.054c.017.094.089.111.137.151a1.854,1.854,0,0,1,.368.389,6.127,6.127,0,0,0,1.023,1.179,4.414,4.414,0,0,1,.5.5c.151.181.273.384.423.565a.3.3,0,0,1,.065.269c-.012.069-.026.134-.1.152a.182.182,0,0,1-.2-.063q-.06-.078-.114-.159a4.658,4.658,0,0,0-.77-.917,8.263,8.263,0,0,1-1.084-1.2,1.95,1.95,0,0,0-.446-.451.541.541,0,0,1-.207-.266c-.053-.142-.068-.148-.219-.124-.2.033-.4.076-.6.117-.02,0-.037.026-.079.057a3.284,3.284,0,0,1,.368.327,6.886,6.886,0,0,1,.547.688c.279.381.577.749.854,1.132.417.575.874,1.12,1.34,1.655.392.45.739.929,1.088,1.409a.653.653,0,0,1,.183.531c-.03.148-.1.2-.232.125a.59.59,0,0,1-.223-.285,2.844,2.844,0,0,0-.222-.38c-.306-.433-.643-.843-.979-1.253-.289-.353-.6-.691-.867-1.06-.169-.23-.33-.465-.51-.687-.242-.3-.468-.608-.693-.919a3.651,3.651,0,0,0-.788-.862C539.922,212.859,539.922,212.826,540,212.6Zm-2.239.746a5.176,5.176,0,0,0,.316.439c.188.216.405.4.61.6a18.283,18.283,0,0,1,1.41,1.617c.175.214.335.44.51.653a5.635,5.635,0,0,1,.462.532,3.286,3.286,0,0,0,.483.551c.061.06.116.116.041.205-.051.061-.006.1.043.14a.439.439,0,0,0,.183.064,4.289,4.289,0,0,1,.611.17c.16.059.327.1.492.148.048.013.105.056.16-.014-.014-.033-.029-.071-.047-.106a6.6,6.6,0,0,0-.783-1.12,18.266,18.266,0,0,1-1.329-1.782,2.581,2.581,0,0,0-.308-.411c-.2-.223-.417-.437-.63-.65-.346-.346-.661-.723-1.035-1.041a1.488,1.488,0,0,1-.2-.218c-.038-.048-.017-.146-.1-.154a.487.487,0,0,0-.188.044,2.389,2.389,0,0,0-.3.115A1.578,1.578,0,0,0,537.759,213.346Zm4.4,26.313c.052-.037.072-.049.089-.064.53-.459,1.058-.921,1.591-1.376.409-.349.825-.691,1.241-1.032.309-.253.628-.493.933-.752.385-.327.752-.676,1.142-1q.556-.46,1.1-.933a.639.639,0,0,0,.229-.708c-.014-.055-.017-.113-.029-.169-.023-.1-.06-.12-.151-.053-.308.226-.63.431-.931.668a7.571,7.571,0,0,1-.638.528,2.211,2.211,0,0,0-.234.176,9.621,9.621,0,0,1-.873.737,6.617,6.617,0,0,0-.578.52,15.157,15.157,0,0,0-1.215,1.06c-.159.163-.341.3-.507.457a4.422,4.422,0,0,0-.692.714.79.79,0,0,1-.137.139c-.088.078-.133.077-.234,0-.028-.021-.036-.079-.109-.035Zm.08-2.957a.082.082,0,0,0,.114-.019c.813-.706,1.7-1.32,2.509-2.029.227-.2.47-.378.7-.567.355-.287.672-.619,1.038-.894a3.34,3.34,0,0,0,.433-.358c.286-.3.629-.544.909-.853a.459.459,0,0,1,.158-.113.145.145,0,0,0,.095-.193,4.579,4.579,0,0,1-.094-.629c-.011-.137-.055-.15-.171-.067l-.02.015a5.656,5.656,0,0,1-.8.668c-.2.279-.513.417-.749.651a8.6,8.6,0,0,0-.861.748.448.448,0,0,1-.128.112,3.786,3.786,0,0,0-.6.493c-.456.4-.932.783-1.384,1.191-.09.081-.226.122-.294.215a4.057,4.057,0,0,1-.583.547.41.41,0,0,1-.211.118c-.069.011-.1.04-.093.113.009.253.013.506.02.758C542.231,236.65,542.225,236.694,542.238,236.7Zm-.1,6.889a3.58,3.58,0,0,0,.441-.365c.246-.189.492-.377.741-.561a15.118,15.118,0,0,0,1.374-1.138c.315-.3.662-.554,1-.827.859-.7,1.693-1.432,2.57-2.109a2.836,2.836,0,0,1,.533-.425.114.114,0,0,0,.06-.123,3.209,3.209,0,0,0-.068-.6c-.13-.021-.209.059-.292.121-.355.264-.731.5-1.079.773-.07.055-.126.124-.2.176a4.137,4.137,0,0,0-.962.776.351.351,0,0,1-.1.076,9.049,9.049,0,0,0-1,.773c-.158.132-.273.3-.423.44-.471.438-.947.87-1.455,1.265-.142.11-.236.272-.377.376-.271.2-.472.469-.726.684a.108.108,0,0,0-.045.083C542.14,243.175,542.14,243.367,542.14,243.59Zm.023-2.809c.067.019.094-.017.124-.041.173-.136.345-.274.518-.409.276-.216.554-.43.829-.648.447-.354.88-.727,1.34-1.062s.911-.71,1.351-1.082c.5-.421,1-.832,1.538-1.209.246-.174.483-.359.729-.533.08-.057.058-.131.051-.2-.022-.219-.051-.437-.081-.655-.006-.043.011-.1-.068-.12a3.943,3.943,0,0,0-.344.258,2.3,2.3,0,0,1-.46.392,2.624,2.624,0,0,0-.614.48,3.748,3.748,0,0,1-.781.69c-.027.016-.044.048-.068.069-.146.13-.291.26-.439.387-.451.384-.95.708-1.386,1.114-.35.327-.744.608-1.1.932a6.074,6.074,0,0,0-.961.968.225.225,0,0,1-.138.093c-.043.01-.082.033-.077.079A3.3,3.3,0,0,0,542.163,240.782Zm.078-5.451a.51.51,0,0,0,.093-.046c.554-.5,1.121-.993,1.7-1.475.287-.241.6-.445.875-.7.236-.223.478-.439.722-.654.226-.2.461-.389.687-.589s.471-.367.695-.566a6.343,6.343,0,0,1,.9-.792.127.127,0,0,0,.067-.145q-.067-.3-.137-.595a.07.07,0,0,0-.066-.062.1.1,0,0,0-.09.071c-.02.05.028.119-.032.159-.117.077-.18.207-.3.28-.188.111-.366.242-.544.368-.142.1-.253.249-.409.34-.084.049-.194.078-.249.149a2.781,2.781,0,0,1-.456.358,3.012,3.012,0,0,1-.332.281,4.447,4.447,0,0,0-.673.524c-.136.128-.281.247-.42.372-.254.228-.559.385-.831.588a5.758,5.758,0,0,0-.53.46,7.025,7.025,0,0,1-.637.671.106.106,0,0,0-.054.1C542.248,234.718,542.215,235.011,542.241,235.331Zm6.455.9a10.47,10.47,0,0,0-1,.7.658.658,0,0,1-.154.12,4.157,4.157,0,0,0-.895.671c-.2.189-.414.365-.626.542s-.467.332-.675.524c-.258.238-.55.432-.823.649-.361.288-.726.575-1.089.861a9.171,9.171,0,0,0-.847.742.831.831,0,0,1-.345.267c-.06.017-.065.069-.067.117q-.021.414-.038.829c0,.011.019.022.037.042a.821.821,0,0,0,.3-.2c.217-.185.423-.384.643-.566.6-.5,1.162-1.026,1.719-1.565.193-.187.4-.361.608-.532a10.4,10.4,0,0,0,.834-.677,1.829,1.829,0,0,1,.192-.152c.421-.323.836-.653,1.272-.958.193-.135.375-.286.563-.429.124-.093.245-.19.375-.274a.156.156,0,0,0,.077-.164C548.735,236.61,548.717,236.441,548.7,236.234Zm-6.5,2.049c.444-.4.867-.772,1.277-1.157.648-.609,1.326-1.184,2-1.762.6-.509,1.178-1.032,1.815-1.49.272-.2.508-.434.771-.639a.581.581,0,0,0,.265-.684c-.029-.095.015-.207-.046-.309a1.624,1.624,0,0,1-.183.136,2.005,2.005,0,0,0-.538.455,2.164,2.164,0,0,1-.471.425,9.924,9.924,0,0,0-.812.664,5.736,5.736,0,0,1-.862.712c-.028.014-.047.045-.072.066-.393.327-.754.69-1.176.986s-.816.623-1.216.944a3.034,3.034,0,0,0-.707.769c-.021.034-.055.059-.055.1A5.5,5.5,0,0,0,542.2,238.283Zm.268,5.68c.155.044.244.161.384.2a.206.206,0,0,0,.235-.055,10.294,10.294,0,0,1,1.545-1.236,4.313,4.313,0,0,0,.592-.433c.5-.46,1.036-.87,1.538-1.325.628-.57,1.286-1.109,1.944-1.645a.457.457,0,0,0,.2-.457.945.945,0,0,0-.056-.377c-.353.259-.672.536-1.032.758a1.05,1.05,0,0,0-.206.173c-.27.285-.593.508-.886.766a10.806,10.806,0,0,0-1.035.856.542.542,0,0,1-.2.143.343.343,0,0,0-.125.076c-.236.261-.542.443-.787.691a2.876,2.876,0,0,1-.288.262c-.374.288-.735.6-1.133.852A2.172,2.172,0,0,0,542.463,243.962Zm13.441-5.481a.135.135,0,0,0-.135.033,3.39,3.39,0,0,1-.716.532,2.522,2.522,0,0,0-.48.373,3.754,3.754,0,0,1-.6.527c-.18.113-.286.307-.455.438-.32.248-.62.524-.958.75a3.12,3.12,0,0,0-.886.745c-.086.122-.241.195-.3.319a1.323,1.323,0,0,0-.022.434c-.006.114-.022.227-.028.341,0,.043-.032.1.044.132.111-.1.221-.2.342-.3.545-.427,1.087-.858,1.654-1.255a1.735,1.735,0,0,0,.209-.169,9.166,9.166,0,0,1,.834-.716c.208-.157.4-.333.617-.482a2.53,2.53,0,0,0,.374-.266,3.076,3.076,0,0,1,.457-.4.267.267,0,0,0,.117-.275C555.946,238.991,555.927,238.739,555.9,238.482Zm-23.086-20.43a.83.83,0,0,0-.238-.249c-.157-.117-.311-.238-.473-.349-.269-.184-.5-.418-.786-.582s-.544-.331-.817-.493c-.238-.141-.48-.275-.719-.414a.123.123,0,0,0-.188.039c-.032.047-.084.09-.093.142a1.258,1.258,0,0,1-.2.467c-.05.076-.022.134.062.174.133.063.263.132.392.2a4.511,4.511,0,0,1,.875.527,2.241,2.241,0,0,0,.6.379.242.242,0,0,1,.062.038c.082.071.065.161.043.249-.012.048-.033.1-.09.1a.485.485,0,0,1-.281-.06,5.391,5.391,0,0,1-.527-.394,4.971,4.971,0,0,0-1.2-.644c-.072-.037-.121-.034-.15.052-.054.162-.112.323-.169.484a.131.131,0,0,0,.064.184c.121.067.235.147.359.209.226.112.456.216.685.32.055.025.114.057.125.11.029.147.114.121.218.1.358-.081.706-.2,1.067-.271C531.889,218.281,532.338,218.164,532.818,218.052Zm10.737-5.686c.034.107.064.208.1.307.014.038.04.074.089.034a.335.335,0,0,1,.425,0c.16.1.317.2.481.289a12.1,12.1,0,0,1,1.7,1.064c.431.337.924.582,1.357.918.141.11.3.2.448.3.223.151.45.295.658.467a11.822,11.822,0,0,0,1.018.8,6.66,6.66,0,0,1,.887.688c.049.046.069.137.176.129.07-.1.14-.211.22-.313a.109.109,0,0,0-.032-.183c-.326-.2-.609-.467-.927-.682-.474-.321-.921-.677-1.365-1.036s-.877-.7-1.323-1.047c-.362-.278-.739-.538-1.106-.809a2.9,2.9,0,0,0-.458-.282,1.35,1.35,0,0,1-.415-.3.365.365,0,0,0-.23-.123c-.42-.059-.838-.137-1.259-.185A1.2,1.2,0,0,0,543.555,212.365Zm-3.471,5.471c.359.025.708.134,1.116.153-.092-.106-.158-.176-.217-.251-.548-.69-1.088-1.386-1.645-2.069a9.087,9.087,0,0,0-.974-1.063,5.879,5.879,0,0,1-.569-.572c-.127-.149-.265-.288-.4-.431-.033-.036-.073-.085-.123-.055a4.519,4.519,0,0,0-.678.392c.137.186.334.3.469.471a12.241,12.241,0,0,0,.956.975c.3.3.585.608.854.933.15.182.271.391.432.559a7.712,7.712,0,0,0,.671.676C540.1,217.654,540.1,217.662,540.085,217.836Zm15.3,16.818c-.114.151-.258.189-.366.292a1.86,1.86,0,0,1-.423.326,5.244,5.244,0,0,0-.875.653c-.1.081-.225.132-.317.22-.277.264-.582.5-.862.756-.141.13-.321.193-.464.314a6.213,6.213,0,0,0-.737.707.316.316,0,0,0-.1.261c.022.194.029.39.04.585,0,.047-.015.1.052.132a.789.789,0,0,0,.092-.069c.492-.49,1.06-.891,1.59-1.336.355-.3.729-.573,1.09-.863a5.307,5.307,0,0,1,.548-.449,5.107,5.107,0,0,0,.79-.611.18.18,0,0,0,.077-.165A2.546,2.546,0,0,0,555.387,234.654Zm.718,7.627a2.268,2.268,0,0,0-.321.214,3.641,3.641,0,0,1-.5.384,2.525,2.525,0,0,0-.605.483,3.2,3.2,0,0,1-.4.349c-.127.088-.245.189-.37.28-.27.2-.486.454-.737.672a3.622,3.622,0,0,0-.335.242,2.112,2.112,0,0,1-.522.4,1.555,1.555,0,0,0-.491.4,2.666,2.666,0,0,1-.422.438.3.3,0,0,0-.129.317.141.141,0,0,1-.026.137c-.032.034-.036.072.011.1a.078.078,0,0,0,.108-.016,1.625,1.625,0,0,1,.554-.351,1.774,1.774,0,0,0,.7-.427.152.152,0,0,1,.061-.04,1.669,1.669,0,0,0,.438-.3c.109-.085.2-.188.319-.265a6.771,6.771,0,0,0,.741-.558,3.655,3.655,0,0,1,.451-.337,3.156,3.156,0,0,0,.527-.436,7.439,7.439,0,0,1,.911-.736.215.215,0,0,0,.115-.212A5.939,5.939,0,0,1,556.1,242.281Zm-12.527,1.966a5.827,5.827,0,0,0,.607.173.207.207,0,0,0,.221-.064c.162-.148.327-.293.5-.432.392-.319.794-.626,1.182-.95.362-.3.719-.612,1.066-.932.317-.292.65-.566.958-.869a6.24,6.24,0,0,0,.636-.566.081.081,0,0,1,.041-.026c.177-.045.183-.177.169-.323-.011-.122-.01-.245-.02-.367-.006-.073-.075-.11-.116-.061-.107.128-.265.187-.376.311a2.122,2.122,0,0,1-.358.321c-.369.256-.673.588-1.037.852a8.219,8.219,0,0,0-.892.794c-.25.245-.541.439-.8.671a12.49,12.49,0,0,1-1.091.783A3.318,3.318,0,0,0,543.578,244.247Zm-15.846-25.392a6.727,6.727,0,0,0-.445-1.763c-.186-.555-.375-1.109-.506-1.681a1.846,1.846,0,0,0-.17-.534,2.808,2.808,0,0,1-.209-.466c-.05-.139-.07-.284-.112-.424a.175.175,0,0,0-.165-.147,3.6,3.6,0,0,0-.635-.025c-.117.007-.133.027-.1.132a1.5,1.5,0,0,0,.092.252,3.959,3.959,0,0,1,.229.617c.173.559.393,1.1.538,1.671a2.1,2.1,0,0,0,.1.351c.156.344.2.72.316,1.074a.42.42,0,0,0,.187.27,3.277,3.277,0,0,1,.54.415A1.013,1.013,0,0,0,527.731,218.855Zm23.6,21.462c.157-.138.29-.252.42-.369.34-.306.715-.569,1.071-.854.427-.341.83-.711,1.275-1.03a3.837,3.837,0,0,0,.348-.308,8.741,8.741,0,0,1,1-.78c.108-.074.236-.173.238-.292a1.7,1.7,0,0,0-.073-.683,1.043,1.043,0,0,0-.327.222.606.606,0,0,1-.171.137,1.959,1.959,0,0,0-.625.456,2.194,2.194,0,0,1-.269.211,6.423,6.423,0,0,0-.856.682.676.676,0,0,1-.156.117,2.694,2.694,0,0,0-.415.3,6.663,6.663,0,0,1-.764.606.69.69,0,0,0-.23.217,2.246,2.246,0,0,1-.421.5.193.193,0,0,0-.079.144A4.76,4.76,0,0,0,551.33,240.317Zm4.461-3.072a.437.437,0,0,0-.1.033,5.991,5.991,0,0,1-.681.47.6.6,0,0,0-.218.194,2.1,2.1,0,0,1-.643.548c-.24.181-.455.392-.705.559-.073.049-.1.15-.184.191a3.391,3.391,0,0,0-.557.4c-.129.1-.265.186-.39.29-.268.224-.482.5-.751.725-.238.2-.237.2-.234.516a.9.9,0,0,0,.054.437,5.966,5.966,0,0,1,.745-.618q.376-.252.739-.523a4.344,4.344,0,0,0,.563-.468,11.759,11.759,0,0,1,1.36-1.192c.322-.249.641-.5.945-.771.057-.05.114-.1.109-.181C555.829,237.656,555.81,237.463,555.792,237.245Zm-8.442-7.663a3.974,3.974,0,0,0-.622-.21c-.041-.013-.095-.012-.111.026-.063.15-.23.172-.33.279a8,8,0,0,1-.657.54,7.6,7.6,0,0,1-.757.566,1.681,1.681,0,0,0-.354.252,5.886,5.886,0,0,1-1.085.939,4.486,4.486,0,0,0-.732.608,1.393,1.393,0,0,1-.424.323.166.166,0,0,0-.107.19c.007.18.009.359.015.539,0,.038-.012.086.034.108s.076-.013.1-.042c.075-.075.147-.153.223-.227a6.137,6.137,0,0,1,1.167-.961,6.327,6.327,0,0,0,.7-.529c.172-.137.33-.29.5-.425.732-.574,1.467-1.143,2.2-1.715A.664.664,0,0,0,547.35,229.582Zm3.281-11.8c-.161-.148-.272-.265-.4-.363q-.569-.445-1.148-.877c-.183-.136-.335-.307-.519-.442-.251-.183-.522-.337-.77-.521-.617-.458-1.287-.835-1.9-1.3a13.657,13.657,0,0,0-1.654-1,.846.846,0,0,0-.416-.173,6.156,6.156,0,0,1,.333.758.11.11,0,0,0,.156.073.276.276,0,0,1,.233.044c.4.238.8.476,1.179.745.692.49,1.409.943,2.087,1.453.325.245.679.451,1,.695s.607.5.908.746c.031.026.082.069.076.089-.056.178.07.137.156.131C550.16,217.825,550.362,217.8,550.631,217.78Zm.757,27.769c.068-.041.09-.051.108-.066.5-.405,1-.811,1.515-1.194.256-.19.471-.428.715-.631.69-.575,1.382-1.147,2.089-1.7a.617.617,0,0,0,.286-.62c0-.016,0-.033,0-.049-.01-.127-.065-.155-.174-.088a.471.471,0,0,0-.055.047,4.385,4.385,0,0,1-.642.486.6.6,0,0,0-.167.14,1.745,1.745,0,0,1-.371.317,3.741,3.741,0,0,0-.467.35,4.876,4.876,0,0,1-.6.459c-.333.235-.7.426-1.009.689s-.617.527-.922.795c-.1.086-.185.184-.277.277-.029.029-.063.057-.061.1C551.364,245.079,551.375,245.3,551.387,245.549Zm-3.206,4.52a.533.533,0,0,0-.083-.053c-.728-.238-1.454-.482-2.195-.68-.5-.134-1.02-.22-1.512-.4a4.171,4.171,0,0,0-.619-.141,1.989,1.989,0,0,0-.894.019,4.5,4.5,0,0,1-1.106.172.311.311,0,0,0-.259.089,13.113,13.113,0,0,0,1.441.391.258.258,0,0,0,.013-.057c-.01-.254.015-.285.272-.327.177-.029.353-.063.531-.083a.636.636,0,0,1,.4.062c.084.049.077.114,0,.167a.647.647,0,0,1-.3.081,4.981,4.981,0,0,0-.8.2,4.781,4.781,0,0,0,.931.294.051.051,0,0,0,.067-.051c0-.188.155-.216.281-.257.241-.077.5-.091.74-.166a.422.422,0,0,1,.322.086.091.091,0,0,1-.018.169,2.842,2.842,0,0,1-.433.155c-.193.043-.41.019-.576.163.02.052.071.06.116.077.387.152.777.3,1.16.459a1.094,1.094,0,0,0,.716.022c.066-.016.1-.046.087-.118s.041-.118.1-.143.154-.051.23-.081a.394.394,0,0,1,.469.1.125.125,0,0,0,.1.049A2.909,2.909,0,0,0,548.181,250.069Zm-8.616-32.318c0-.071-.048-.1-.079-.127a6.905,6.905,0,0,1-.7-.811,8.88,8.88,0,0,0-.99-1.113q-.776-.761-1.544-1.529c-.034-.034-.061-.057-.1-.032-.2.13-.393.262-.588.395-.075.051-.063.1,0,.155s.12.111.185.16a6.945,6.945,0,0,1,.652.552c.159.151.318.3.486.444a7.321,7.321,0,0,1,1.034,1.034,1.184,1.184,0,0,0,.356.331.26.26,0,0,1,.145.344c-.034.1,0,.128.109.137.252.02.5.039.756.052A.921.921,0,0,0,539.565,217.751Zm13.629-2.627c.1.1.174.195.26.267a6.58,6.58,0,0,1,.839.853,3.5,3.5,0,0,0,.524.509.848.848,0,0,1,.179.166,9.162,9.162,0,0,0,.723.86.318.318,0,0,1,.113.21c-.007.1.047.127.123.145a5.954,5.954,0,0,1,1.039.355c.067.03.149.118.218.044s0-.17-.021-.255a.077.077,0,0,0-.086-.069c-.1.009-.147-.06-.2-.125-.1-.136-.2-.279-.306-.412a8.95,8.95,0,0,0-.674-.839q-.728-.708-1.458-1.413a3.945,3.945,0,0,0-.552-.483.922.922,0,0,1-.286-.233A4.011,4.011,0,0,0,553.193,215.124Zm-1.973,22.3a.558.558,0,0,0,.226-.139c.1-.076.187-.158.284-.233.378-.3.774-.575,1.134-.894.624-.554,1.294-1.046,1.966-1.535.167-.121.287-.286.45-.405a.083.083,0,0,0,.032-.087,4.911,4.911,0,0,0-.119-.582,1.721,1.721,0,0,0-.453.3,4.026,4.026,0,0,1-.638.527,7,7,0,0,0-.943.7,10.109,10.109,0,0,1-.857.644,10.753,10.753,0,0,0-1.051.836.227.227,0,0,0-.09.214C551.184,236.973,551.2,237.184,551.221,237.424Zm-24.6-23.523c-.026.06.006.093.022.128a7.676,7.676,0,0,1,.559,1.636,10.95,10.95,0,0,0,.343,1.093c.113.348.237.692.325,1.048.082.332.172.662.264.991a.508.508,0,0,1,.017.424.027.027,0,0,0,0,.023c.013.02.024.047.043.055.036.017.062,0,.067-.042.025-.186.043-.373.076-.557a5.028,5.028,0,0,1,.163-.888c.05-.135.1-.257-.022-.378-.02-.021-.02-.061-.028-.093-.178-.695-.361-1.389-.585-2.071a3.459,3.459,0,0,0-.32-.764c-.136-.219-.135-.3.035-.483A7.785,7.785,0,0,0,526.625,213.9Zm16.127,32.811c-.109-.242-.214-.488-.331-.727a11.524,11.524,0,0,0-.846-1.543c-.126-.181-.11-.19-.312-.144-.079.018-.16.026-.24.041-.063.012-.078.053-.054.108a1.336,1.336,0,0,0,.07.129,10.137,10.137,0,0,1,.515,1,5.013,5.013,0,0,0,.4.861.313.313,0,0,1,.037.213.151.151,0,0,1-.209.137.316.316,0,0,1-.178-.158,3.672,3.672,0,0,1-.25-.558,5.059,5.059,0,0,0-.639-1.262c-.095-.128-.116-.338-.288-.374a1.2,1.2,0,0,0-.5.068c-.006,0-.01.011-.019.021a.175.175,0,0,0,.049.151,2.762,2.762,0,0,1,.31.551c.1.23.219.454.32.685.142.326.344.626.506.945a.123.123,0,0,0,.151.077c.364-.041.729-.079,1.092-.126A1.023,1.023,0,0,0,542.752,246.711Zm8.617-2.477a4.921,4.921,0,0,0,.5-.383,8.908,8.908,0,0,1,1.206-.948,10.719,10.719,0,0,0,1.026-.751c.542-.42,1.05-.883,1.606-1.285.1-.072.189-.156.284-.233a.218.218,0,0,0,.095-.189c-.009-.138-.018-.277-.033-.414a.068.068,0,0,0-.106-.059.34.34,0,0,0-.138.1,1.134,1.134,0,0,1-.371.309c-.4.259-.721.636-1.151.862a.787.787,0,0,0-.126.115,4.735,4.735,0,0,1-.738.6,1.3,1.3,0,0,0-.286.176c-.2.2-.448.347-.664.53a4.133,4.133,0,0,0-.63.571c-.109.139-.2.332-.413.358-.019,0-.05.027-.05.043A2.515,2.515,0,0,0,551.369,244.234Zm-4.558-31.188a.645.645,0,0,0,.19.186c.195.134.4.255.584.4.678.536,1.344,1.088,2.027,1.617.509.394,1.037.764,1.56,1.139.312.224.316.219.506-.125a.835.835,0,0,1,.049-.085.132.132,0,0,0-.026-.194c-.03-.028-.061-.053-.091-.081a11.019,11.019,0,0,1-1.089-.9.3.3,0,0,0-.057-.046c-.4-.284-.8-.567-1.216-.821a18.561,18.561,0,0,0-1.879-.945A2.078,2.078,0,0,0,546.811,213.046Zm-4.616,19.44c.169-.143.312-.251.44-.374.254-.244.561-.417.832-.638s.522-.442.771-.678a8.138,8.138,0,0,1,.8-.6c.378-.28.729-.6,1.09-.9a.358.358,0,0,0,.047-.074c-.148-.047-.29-.083-.424-.138a.337.337,0,0,0-.378.072,1.847,1.847,0,0,1-.473.342,4.241,4.241,0,0,0-.752.493,5.824,5.824,0,0,1-.843.644c-.007,0-.011.012-.017.017-.273.241-.56.465-.815.727-.159.163-.162.16-.387.1C542.121,231.807,542.156,232.127,542.2,232.486Zm-9.122,16.207.041-.044c-.084-.166-.159-.337-.255-.5-.2-.329-.4-.653-.607-.976a2.73,2.73,0,0,1-.234-.455,1.648,1.648,0,0,0-.275-.487,1.127,1.127,0,0,1-.257-.411.113.113,0,0,0-.152-.082c-.351.078-.708.11-1.063.163-.172.025-.2.074-.148.23.09.253.19.5.292.752a6.357,6.357,0,0,0,.526.934.281.281,0,0,0,.146.12c.152.058.3.116.458.167.039.013.093.048.14-.036-.273-.556-.484-1.155-.81-1.7a.434.434,0,0,1-.082-.175.284.284,0,0,1,.178-.29c.085-.022.128.024.2.172q.288.633.573,1.268a7.066,7.066,0,0,0,.483.932c.036.056.062.112.128.138Zm21.632-16.045a4.989,4.989,0,0,1-.756.578,1.686,1.686,0,0,0-.313.229,1.269,1.269,0,0,1-.268.207,3.944,3.944,0,0,0-.708.511,3.944,3.944,0,0,1-.425.355c-.293.206-.56.444-.847.655a1.927,1.927,0,0,0-.3.344.12.12,0,0,0-.018.07,2,2,0,0,0,.066.524c.287-.2.54-.388.81-.553a5.866,5.866,0,0,0,.579-.464c.418-.335.842-.664,1.282-.967.418-.288.763-.662,1.179-.95.132-.091.123-.151.032-.289C554.94,232.783,554.8,232.757,554.706,232.648Zm-28.495-14.843a.163.163,0,0,0,.011-.149c-.095-.329-.179-.661-.286-.986a16.413,16.413,0,0,0-.7-2.033c-.064-.132-.1-.275-.156-.412a1.8,1.8,0,0,0-.1-.223.283.283,0,0,0-.317-.172c-.136.023-.275.029-.413.047-.1.013-.121.044-.081.127a7.743,7.743,0,0,1,.31.873c.163.469.389.914.524,1.393a.354.354,0,0,0,.045.112.926.926,0,0,1,.153.435,1.922,1.922,0,0,0,.243.556.2.2,0,0,0,.086.083C525.758,217.573,525.982,217.687,526.211,217.805Zm36.837-2.9a8.887,8.887,0,0,0-1.456-1.071c-.218-.128-.45-.232-.658-.373a2.071,2.071,0,0,0-.476-.238,3.82,3.82,0,0,1-.589-.236,1.441,1.441,0,0,0-.586-.148,6.877,6.877,0,0,0-1.17.024c-.073,0-.145.022-.218.031a.845.845,0,0,0-.222.017c.009.064.043.067.073.077.41.135.823.262,1.23.409a6.856,6.856,0,0,1,.917.335,5.233,5.233,0,0,0,.587.241,5.641,5.641,0,0,1,.916.4,9.22,9.22,0,0,1,.908.576.22.22,0,0,0,.18.059Zm-33.178.6a.33.33,0,0,0,.14.115c.536.342,1.071.686,1.611,1.021.382.237.716.539,1.1.78.1.061.174.148.264.217a.248.248,0,0,1,.128.286c-.024.09.039.112.117.1.169-.028.338-.055.507-.085.14-.025.16-.064.071-.173-.2-.246-.4-.494-.623-.724-.114-.12-.167-.278-.293-.389-.244-.215-.483-.437-.739-.64a4.864,4.864,0,0,0-.432-.277c-.035-.022-.073-.045-.108,0-.074.084-.163.062-.249.032-.2-.068-.4-.13-.6-.214-.222-.1-.249-.218-.112-.419-.04-.026-.079-.054-.121-.076a.582.582,0,0,0-.22-.1c-.089,0-.1.114-.152.173a.929.929,0,0,1-.086.087A.915.915,0,0,0,529.87,215.5Zm31.875-.329a.1.1,0,0,0-.063-.087c-.286-.187-.587-.35-.872-.54a1.021,1.021,0,0,0-.425-.179,9.956,9.956,0,0,1-1-.363.049.049,0,0,1-.02-.013,2.036,2.036,0,0,0-.822-.343c-.289-.094-.6-.128-.887-.225-.224-.075-.448-.152-.673-.224a.934.934,0,0,0-.8.01,1.019,1.019,0,0,1-.186.061c-.286.1-.286.1-.132.361.007.012.025.017.046.03a.512.512,0,0,1,.324-.055,5.1,5.1,0,0,1,1.24.275c.27.093.542.178.818.253a6.816,6.816,0,0,1,.918.256,7.412,7.412,0,0,0,.775.3,6.9,6.9,0,0,1,1.2.548c.115.155.248.105.384.034A.465.465,0,0,0,561.745,215.173Zm-13.357,2.9c-.007-.083-.067-.12-.113-.162a4.98,4.98,0,0,0-.774-.6c-.168-.1-.34-.2-.5-.308a10.067,10.067,0,0,0-1.587-.915,6.439,6.439,0,0,0-.614-.289.1.1,0,0,0-.011.1,4.3,4.3,0,0,1,.154.767c0,.08.058.1.117.089a.329.329,0,0,1,.305.113.364.364,0,0,0,.1.065,5.949,5.949,0,0,1,.823.482c.4.285.831.518,1.255.763a.246.246,0,0,0,.183.05A4.519,4.519,0,0,0,548.388,218.076Zm-4.749,9.283a3.5,3.5,0,0,0,.622-.247.794.794,0,0,0,.387-.423,1.816,1.816,0,0,1,.227-.4,9.383,9.383,0,0,0,.587-.959c.026-.048.073-.094.042-.157a.469.469,0,0,0-.28-.289,3.842,3.842,0,0,0-.918-.121.14.14,0,0,0-.155.123c-.033.142-.071.284-.1.426-.129.58-.225,1.167-.386,1.74A.954.954,0,0,0,543.64,227.358Zm-5.585-9.721c-.3-.311-.533-.656-.828-.95-.475-.473-1-.888-1.5-1.329-.153-.134-.315-.258-.473-.386-.046-.038-.1-.067-.155-.027a2.275,2.275,0,0,0-.388.3c-.038.04-.052.082-.009.128a1.315,1.315,0,0,0,.241.241,7.48,7.48,0,0,1,.957.832,9.32,9.32,0,0,0,.756.656c.193.136.267.269.187.487,0,.011.01.029.018.052C537.252,217.629,537.647,217.667,538.055,217.637Zm18.037-3.546a2.6,2.6,0,0,1,.328.6.141.141,0,0,0,.195.088.405.405,0,0,1,.239-.015c.419.107.836.221,1.263.291a1.635,1.635,0,0,1,.33.092c.4.158.808.3,1.2.49.244.119.3.216.227.488a1.848,1.848,0,0,0,.46-.284c.149-.108.349-.124.484-.273a5.788,5.788,0,0,0-.708-.357c-.316-.11-.627-.23-.939-.352-.159-.062-.326-.107-.483-.175a1.868,1.868,0,0,0-.48-.118,2.758,2.758,0,0,1-.587-.165,7.734,7.734,0,0,0-1.177-.318A.622.622,0,0,0,556.092,214.091Zm-11.314,30.518c.154.041.287.078.421.112a.168.168,0,0,0,.181-.042,4.045,4.045,0,0,1,.411-.346c.462-.4.9-.825,1.395-1.187a20.237,20.237,0,0,0,1.715-1.559c.031-.029.063-.056.064-.1a1.753,1.753,0,0,0-.011-.442.364.364,0,0,0-.186.125.543.543,0,0,1-.129.11,3.669,3.669,0,0,0-.4.3c-.146.117-.267.259-.41.378-.162.136-.339.251-.5.389-.27.235-.533.479-.8.717-.122.108-.245.215-.372.317-.349.28-.7.553-1.051.836A1.01,1.01,0,0,0,544.778,244.609Zm-.991-19.718-.048-.029a3.636,3.636,0,0,0-1.637,2.909c.206.048.392.121.583-.041a.718.718,0,0,1,.335-.139c.153-.026.191-.113.219-.246.081-.383.178-.762.263-1.144C543.6,225.765,543.692,225.328,543.787,224.891Zm.6-10.511c-.017.02-.027.028-.026.033.069.327.2.634.29.955a.075.075,0,0,0,.1.054.621.621,0,0,1,.478.136,6.25,6.25,0,0,0,.714.374,3.415,3.415,0,0,1,.563.3c.382.249.764.5,1.16.727a6.731,6.731,0,0,1,1.125.858c.024.021.062.046.063.07.008.138.1.127.189.109s.189-.039.278-.057a.115.115,0,0,0-.039-.12,7.29,7.29,0,0,0-1.231-1c-.231-.15-.458-.3-.684-.46-.329-.227-.652-.463-.978-.692-.446-.313-.912-.6-1.353-.919A3.282,3.282,0,0,0,544.385,214.38Zm6.669,20.56a.165.165,0,0,0,.128-.046c.238-.185.468-.38.713-.557.269-.2.513-.428.788-.615.17-.115.3-.272.469-.383.321-.207.634-.429.944-.654a1.167,1.167,0,0,0,.279-.253c-.009-.022-.01-.033-.015-.036-.095-.046-.188-.1-.286-.135s-.155-.145-.256-.119a1.025,1.025,0,0,0-.252.141c-.083.051-.168.1-.246.16-.2.151-.395.311-.6.46s-.388.268-.581.4a8.76,8.76,0,0,0-.924.863A.689.689,0,0,0,551.054,234.94Zm-2.088,7.6h.006c0-.041,0-.082,0-.122,0-.1.068-.245-.045-.287-.095-.035-.18.087-.249.168a9.471,9.471,0,0,1-1.15,1.049c-.242.2-.5.393-.757.573a9.951,9.951,0,0,0-.916.87c-.07.063-.059.1.025.144a2.719,2.719,0,0,0,.438.155.094.094,0,0,0,.136-.059.514.514,0,0,1,.2-.213c.3-.236.61-.464.906-.708a7.923,7.923,0,0,0,1.053-.909.36.36,0,0,1,.268-.155c.066,0,.087-.037.088-.09C548.968,242.815,548.967,242.677,548.967,242.539Zm2.845,4.35c.216.069.393.124.569.182.076.025.119-.017.172-.06.264-.217.529-.435.8-.644.355-.274.722-.533,1.073-.812a12.6,12.6,0,0,1,1.038-.778c.228-.146.419-.336.639-.49a.089.089,0,0,0,.047-.079c0-.131,0-.262-.01-.391-.009-.1-.062-.127-.149-.079a.363.363,0,0,0-.1.072,7.1,7.1,0,0,1-.936.811c-.189.151-.386.293-.577.44s-.36.3-.557.431q-.448.294-.879.612a8.046,8.046,0,0,1-.755.492A1.745,1.745,0,0,0,551.811,246.889Zm-17.5-.559a5.562,5.562,0,0,1,.385.612c.167.27.327.545.486.821a.26.26,0,0,1-.055.31.25.25,0,0,1-.29-.108,2.411,2.411,0,0,1-.13-.235,4.942,4.942,0,0,0-.721-1.188.33.33,0,0,1-.083-.361c.041-.1-.012-.134-.079-.168-.189-.1-.38-.188-.569-.285a.877.877,0,0,0-.2-.079c-.033-.008-.068-.015-.079.026a.1.1,0,0,0,.016.066c.309.552.66,1.081.914,1.662a6.22,6.22,0,0,1,.387.867c.026.1.093.1.172.071a5.739,5.739,0,0,1,.731-.2,1.268,1.268,0,0,0,.456-.159,5.293,5.293,0,0,1-.525-.891.665.665,0,0,1-.1-.373.112.112,0,0,0-.06-.123A2.754,2.754,0,0,0,534.313,246.329Zm19.694-31.921a33.7,33.7,0,0,1,2.934,2.98.287.287,0,0,0,0-.209c-.079-.316-.133-.637-.234-.948a.684.684,0,0,0-.389-.494.182.182,0,0,1-.059-.043c-.4-.4-.863-.718-1.282-1.093-.192-.172-.38-.346-.575-.524-.13.1-.253.192-.374.288A.093.093,0,0,0,554.006,214.408Zm1.288,3.548a23.688,23.688,0,0,0-2.406-2.526c-.082.213-.239.343-.32.536a.226.226,0,0,0,.078.308c.377.335.756.668,1.125,1.011a1.589,1.589,0,0,1,.465.491.1.1,0,0,0,.091.067A5.467,5.467,0,0,0,555.294,217.956Zm-30.393-.785a8.636,8.636,0,0,0-.273-.933c-.232-.6-.461-1.2-.691-1.8-.035-.091-.064-.185-.107-.273-.083-.17-.114-.182-.3-.154a1.45,1.45,0,0,0-.355.089c-.146.062-.16.082-.082.214a6.145,6.145,0,0,1,.406.939c.113.3.221.594.356.879.118.249.274.479.372.74a.158.158,0,0,0,.1.1Zm11.7.463a3.129,3.129,0,0,0-.557-.52,13,13,0,0,0-1.373-1.214,2.01,2.01,0,0,0-.372-.264,2.548,2.548,0,0,0-.344.341c-.228.33-.259.268.071.489a9.289,9.289,0,0,1,.939.656,1.34,1.34,0,0,0,.292.219.477.477,0,0,1,.289.276c.023.07.069.08.131.076Zm8.341,11.315a8.262,8.262,0,0,0-.823-.252c-.075-.021-.148.005-.154.076-.013.165-.139.2-.252.257a.48.48,0,0,0-.178.124,1.218,1.218,0,0,1-.341.27.79.79,0,0,0-.118.087q-.454.4-.906.807a.21.21,0,0,0-.094.162c0,.224.008.449.012.679.038-.011.056-.011.065-.02a9.96,9.96,0,0,1,.856-.726c.235-.189.492-.343.725-.536a6.736,6.736,0,0,1,.956-.712C544.776,229.114,544.892,229.1,544.941,228.949Zm8,18.308a1.967,1.967,0,0,0,.416.17.18.18,0,0,0,.251-.068,1.91,1.91,0,0,1,.55-.48,8.052,8.052,0,0,0,1.016-.723,5.141,5.141,0,0,1,.789-.615.444.444,0,0,0,.254-.567c0-.016,0-.033,0-.049-.02-.125-.079-.148-.182-.069-.026.02-.043.051-.069.07a4.072,4.072,0,0,1-.538.378,1.926,1.926,0,0,0-.69.52.9.9,0,0,1-.282.231,9.023,9.023,0,0,0-1.441,1.089A.155.155,0,0,0,552.941,247.257Zm-21.072-1.621a.139.139,0,0,0,.036.133,4.242,4.242,0,0,1,.461.832,1.081,1.081,0,0,0,.128.236c.328.476.572,1,.885,1.488.177.273.164.274.474.177.093-.029.1-.073.068-.142-.06-.151-.117-.3-.185-.452a5.038,5.038,0,0,0-.411-.858c-.243-.339-.414-.721-.65-1.063a.316.316,0,0,1-.06-.232c.013-.083.09-.081.148-.106a.079.079,0,0,0,.049-.1.078.078,0,0,0-.095-.058C532.432,245.54,532.145,245.59,531.869,245.637Zm9.428-18.573c.006-.166.014-.333.019-.5a3.43,3.43,0,0,0-.445-1.83.511.511,0,0,0-.53-.263c-.264.034-.4.232-.548.415-.041.05,0,.093.03.13.361.464.66.971,1.006,1.445C540.975,226.663,541.134,226.854,541.3,227.064Zm-18.681-12.784a1.967,1.967,0,0,0-.437.144c-.163.073-.164.083-.115.261.072.259.217.488.3.742.12.353.3.684.437,1.028a.19.19,0,0,0,.15.108c.172.048.343.1.518.139.074.016.152.06.232.028a.312.312,0,0,0-.051-.169c-.154-.341-.3-.686-.421-1.04A4.857,4.857,0,0,0,522.616,214.281ZM538.9,244.642c-.024.073.019.117.045.166a3.394,3.394,0,0,1,.291.672,6.507,6.507,0,0,0,.54,1.251.365.365,0,0,0,.249.214.21.21,0,0,1,.109.052.207.207,0,0,0,.224.05c.064-.013.13-.014.194-.022.132-.016.15-.039.089-.151-.16-.294-.278-.607-.414-.912a9.449,9.449,0,0,0-.722-1.3.16.16,0,0,0-.157-.086A2.485,2.485,0,0,0,538.9,244.642Zm12.757,4.822a.551.551,0,0,1-.245-.3c-.162-.365-.332-.728-.485-1.1a3.834,3.834,0,0,0-.4-.7.12.12,0,0,0-.161-.059,2.556,2.556,0,0,1-.3.11c-.215.044-.233.081-.114.271a3.315,3.315,0,0,1,.24.535c.14.347.247.707.419,1.04a.965.965,0,0,1,.12.35Zm8.092-33.258a8.271,8.271,0,0,0-2.964-.978,1.562,1.562,0,0,0,.2.568.3.3,0,0,0,.224.2,1.073,1.073,0,0,0,.167.034,5.352,5.352,0,0,1,1.605.388,2.435,2.435,0,0,0,.3.09.138.138,0,0,0,.139-.02C559.527,216.39,559.672,216.335,559.746,216.206Zm-7.9,33.221.682-.064a.775.775,0,0,0-.084-.406,5.051,5.051,0,0,0-.692-1.53c-.029-.039-.046-.091-.094-.109a3.411,3.411,0,0,0-.68-.2c-.083-.013-.117.041-.084.124a1.18,1.18,0,0,0,.08.15,2.867,2.867,0,0,1,.218.381,11.875,11.875,0,0,0,.62,1.267A.346.346,0,0,1,551.842,249.427Zm-.906-15.594a.411.411,0,0,0,.2-.135c.281-.235.549-.488.846-.7.391-.279.767-.574,1.143-.872a.547.547,0,0,0,.206-.237c-.156-.071-.3-.14-.452-.2a.228.228,0,0,0-.267.048,5.71,5.71,0,0,1-.795.639,5.974,5.974,0,0,0-.829.749.273.273,0,0,0-.1.238C550.91,233.51,550.922,233.662,550.936,233.832Zm-.532,15.839a1.881,1.881,0,0,1-.321-.707,6,6,0,0,0-.409-1.069c-.163-.291-.163-.289-.5-.239-.072.011-.147.007-.219.021-.126.025-.163.094-.112.212.061.142.138.277.2.42.178.444.407.866.571,1.316.053.145.1.169.262.144S550.206,249.709,550.4,249.672Zm-21.62-32.735c.125-.3.247-.605.373-.9a.119.119,0,0,0-.028-.153.805.805,0,0,1-.228-.5,2.04,2.04,0,0,0-.328-.86.3.3,0,0,1-.07-.2.108.108,0,0,0-.09-.126c-.182-.043-.365-.084-.548-.122a.112.112,0,0,0-.09.021c-.031.033-.012.074.012.11a1.981,1.981,0,0,1,.334.8.361.361,0,0,0,.043.114,2.936,2.936,0,0,1,.2.571c.1.35.2.7.3,1.052C528.682,216.808,528.679,216.9,528.784,216.936Zm11.43,32.294a4.137,4.137,0,0,0-.479.042c-.246.055-.242.043-.152.269a7.651,7.651,0,0,0,.383.869c.153.279.353.528.491.814a.111.111,0,0,0,.116.069,2.642,2.642,0,0,0,.53-.067c-.054-.16-.1-.3-.146-.435a3.246,3.246,0,0,0-.668-1.263C540.211,249.446,540.231,249.348,540.214,249.23Zm-.72-23.828c.009.2-.06.332-.051.482a3.1,3.1,0,0,0,.168.8,1.6,1.6,0,0,0,.736.907.9.9,0,0,0,.4.166c.1,0,.236.015.293-.078s-.046-.164-.094-.237c-.372-.555-.744-1.111-1.126-1.659A1.341,1.341,0,0,0,539.494,225.4Zm7.325,19.845a3.608,3.608,0,0,0,.728.254c.068.02.105,0,.127-.073a.867.867,0,0,1,.348-.429c.073-.053.145-.106.22-.155a1.045,1.045,0,0,0,.475-.44.2.2,0,0,1,.1-.1c.09-.034.093-.1.1-.177.009-.155.021-.309.027-.464,0-.044.021-.1-.042-.126A15.092,15.092,0,0,0,546.819,245.247Zm-4.845-.952c.006.032,0,.06.015.076a7.346,7.346,0,0,1,.411.745c.05.084.109.164.151.252a10.284,10.284,0,0,1,.553,1.253c.014.042.032.078.081.074a2.045,2.045,0,0,0,.557-.054.32.32,0,0,0-.017-.079,10.6,10.6,0,0,1-.448-1.005,5.639,5.639,0,0,0-.4-.891.278.278,0,0,0-.135-.132c-.16-.059-.316-.131-.477-.189A.593.593,0,0,0,541.973,244.295Zm-2.716,2.372c.043-.072,0-.112-.02-.152a4.785,4.785,0,0,1-.328-.841,1.921,1.921,0,0,0-.392-.778c-.022-.024-.05-.053-.052-.081-.007-.152-.108-.163-.219-.148s-.225.037-.336.061a.078.078,0,0,0-.06.111c.012.039.027.077.043.114a8.613,8.613,0,0,0,.47.991,1.151,1.151,0,0,1,.211.434.128.128,0,0,0,.094.1A3.88,3.88,0,0,0,539.257,246.667Zm5.578-.149a2.691,2.691,0,0,1-.246-.455,5.731,5.731,0,0,0-.566-1.164.191.191,0,0,0-.126-.1c-.172-.039-.344-.072-.552-.115.093.233.165.437.253.633.177.394.341.793.479,1.2.025.074.065.08.128.073C544.4,246.568,544.593,246.546,544.835,246.518Zm11.415-.63a.362.362,0,0,0-.2.089,1.891,1.891,0,0,1-.368.281,1.7,1.7,0,0,0-.634.486,1.107,1.107,0,0,1-.426.32,2.013,2.013,0,0,0-.532.383.267.267,0,0,0-.117.186,5.435,5.435,0,0,0,.72.235c-.135-.185-.045-.286.073-.379.019-.015.039-.03.059-.044a3.508,3.508,0,0,0,.515-.412,6.834,6.834,0,0,1,.549-.449.4.4,0,0,1,.4-.1A5.041,5.041,0,0,0,556.25,245.888Zm-25.827,1.8a1.523,1.523,0,0,0-.1-.215,3.205,3.205,0,0,1-.347-.752,4,4,0,0,0-.154-.385.841.841,0,0,0-.192-.326c-.08-.059-.218.021-.331.029a1.821,1.821,0,0,0-.415.088,2.825,2.825,0,0,1,.267.506,1.112,1.112,0,0,0,.223.348,1.645,1.645,0,0,1,.118.156c.045.061.081.122.029.2s0,.1.063.122C529.853,247.542,530.129,247.609,530.424,247.69ZM547.07,218.4a.354.354,0,0,0-.2-.159,3.644,3.644,0,0,1-.6-.372,9.833,9.833,0,0,0-1.124-.684c-.091-.051-.128-.019-.118.1a4.146,4.146,0,0,1,.053.581c-.006.1.063.143.15.16a2.53,2.53,0,0,1,.648.275.639.639,0,0,0,.205.074.36.36,0,0,1,.282.17.093.093,0,0,0,.123.046C546.678,218.524,546.868,218.465,547.07,218.4Zm-25.424-3.733c-.169.076-.331.151-.494.223-.064.028-.092.07-.053.134a7.744,7.744,0,0,1,.479,1.116c.031.073.054.164.146.183a2.548,2.548,0,0,0,.66.1A8.137,8.137,0,0,0,521.646,214.668Zm18.336,36.526-.065-.13a13.324,13.324,0,0,1-.6-1.228c-.213-.545-.093-.477-.689-.366-.014,0-.025.019-.038.028a.883.883,0,0,0,.093.293,2.357,2.357,0,0,1,.228.537,2.158,2.158,0,0,0,.3.554.281.281,0,0,0,.133.1A2.808,2.808,0,0,0,539.982,251.194Zm13.677-33.415c-.5-.526-1.039-.934-1.533-1.39-.134.08-.131.234-.237.322s-.085.127.019.214c.149.125.307.239.449.374.186.176.19.172.108.419A8.307,8.307,0,0,0,553.659,217.779Zm-1.339,29.755a.13.13,0,0,0,0,.142c.069.184.175.351.247.532a6.057,6.057,0,0,1,.331.97.127.127,0,0,0,.155.117,4.057,4.057,0,0,0,.556-.068,9.737,9.737,0,0,1-.586-1.341.2.2,0,0,0-.124-.14Zm-4.009.327c-.036,0-.069,0-.1.007-.178.025-.217.073-.145.239.081.186.152.375.214.568a2.648,2.648,0,0,0,.289.586.691.691,0,0,1,.137.281c.012.192.17.238.279.329a.181.181,0,0,0,.229.007c.074-.061.016-.134-.006-.2a12.78,12.78,0,0,0-.728-1.729A.138.138,0,0,0,548.311,247.861Zm-.721.142-.477.1c-.124.028-.127.039-.1.167.039.161.153.289.193.448.055.218.232.372.3.582a.162.162,0,0,0,.111.09c.177.06.354.121.533.174.069.02.1-.025.067-.1-.049-.121-.1-.241-.152-.361-.145-.337-.291-.674-.434-1.011C547.617,248.047,547.6,248,547.59,248Zm-5.631,3.069a6.11,6.11,0,0,0-.456-1.158.323.323,0,0,1-.035-.233c.006-.053.074-.093.018-.176a4.435,4.435,0,0,0-.805-.172c-.023.058.008.089.029.121a5.092,5.092,0,0,1,.615,1.293,1.428,1.428,0,0,0,.156.3c.028.046.068.1.137.082C541.726,251.1,541.845,251.138,541.959,251.072Zm12.6-2.708a1.248,1.248,0,0,0,.19.384.963.963,0,0,1,.083.147c.039.143-.051.225-.192.177a.536.536,0,0,1-.345-.325c-.058-.152-.106-.308-.153-.463-.017-.056-.025-.114-.089-.134a2.186,2.186,0,0,0-.6-.172,2.311,2.311,0,0,1,.1.236,2.113,2.113,0,0,0,.238.558.679.679,0,0,1,.138.36c0,.082.054.085.117.082a9.3,9.3,0,0,0,1.09-.129c.091-.015.109-.056.06-.134a.707.707,0,0,1-.131-.26c-.02-.146-.116-.2-.232-.25A.756.756,0,0,0,554.561,248.364Zm-2.239-16.872a1.759,1.759,0,0,0-.388-.174c-.132-.067-.265-.127-.366.059-.023.043-.093.063-.144.088a.293.293,0,0,0-.13.106.908.908,0,0,1-.371.343.179.179,0,0,0-.1.2c.016.137.028.274.046.411.014.106.059.122.144.047.305-.268.63-.51.957-.751A1.163,1.163,0,0,0,552.323,231.492Zm-15.533,13.4a5.5,5.5,0,0,0,.407.888.225.225,0,0,0,.1.1q.343.159.688.312c.008,0,.025-.015.051-.031l-.583-1.263a.494.494,0,0,0-.038-.063.112.112,0,0,0-.123-.061C537.13,244.823,536.949,244.791,536.79,244.892Zm6.79-16.306c-.157-.005-.314-.148-.464.029-.014.017-.063,0-.1.007a.467.467,0,0,0-.246.1.9.9,0,0,1-.164.105,1.32,1.32,0,0,0-.5.346c-.014.018-.038.043-.061.022s-.062-.109-.069.007a2.786,2.786,0,0,0,.087.666c.514-.416.969-.861,1.49-1.223C543.573,228.638,543.572,228.615,543.58,228.586Zm-4.868,22.165a3.222,3.222,0,0,0-.313-.76.549.549,0,0,1-.142-.448c-.251-.006-.445.152-.674.154-.04,0-.058.056-.038.1a4,4,0,0,0,.239.5.669.669,0,0,0,.483.331A3.627,3.627,0,0,1,538.712,250.751Zm20.234-33.921c-.164-.085-.319-.056-.454-.121a3.875,3.875,0,0,0-1.093-.238c-.193-.031-.218.007-.174.2.009.04.029.077.034.117.013.095.075.129.159.153a3.251,3.251,0,0,0,.55.115.915.915,0,0,1,.463.141.115.115,0,0,0,.172-.017C558.708,217.068,558.818,216.96,558.946,216.83Zm-15.881,34.112c-.066-.09-.109-.147-.15-.2a1.621,1.621,0,0,1-.352-.579c-.071-.35-.314-.459-.615-.515-.031-.006-.063-.023-.09.006a.078.078,0,0,0-.006.09c.171.385.292.791.491,1.164a.171.171,0,0,0,.2.1C542.7,250.984,542.861,250.967,543.065,250.943Zm-.129-.991c-.034.073,0,.112.018.157a7.589,7.589,0,0,1,.424.766c0,.016.036.03.057.034a.376.376,0,0,0,.1,0c.461-.034.913-.146,1.377-.158.033,0,.076-.026.088-.1-.345-.108-.666-.3-1.042-.387a.618.618,0,0,0,.13.262c.043.078.061.158-.009.223a.19.19,0,0,1-.227.014.464.464,0,0,1-.135-.1,1.022,1.022,0,0,1-.161-.272c-.159-.322-.159-.322-.514-.412C543.008,249.966,542.976,249.96,542.936,249.952Zm13.361-3.136a1.048,1.048,0,0,0-.313.185,1.4,1.4,0,0,0-.371.308,2.062,2.062,0,0,1-.563.462c-.076.042-.145.1-.233.155a1.74,1.74,0,0,0,.4.2c.073.024.119.029.157-.05a.643.643,0,0,1,.262-.248,3.719,3.719,0,0,0,.326-.215c.21-.165.424-.333.34-.654A.89.89,0,0,1,556.3,246.815ZM547,249.2c-.12-.336-.226-.631-.331-.927a.108.108,0,0,0-.13-.08,3.124,3.124,0,0,0-.675.133,4.557,4.557,0,0,0,.315.583.183.183,0,0,0,.1.1Zm9.141-34.233a.532.532,0,0,0-.067-.178c-.132-.225-.255-.455-.372-.689-.08-.16-.188-.306-.283-.458-.051-.081-.113-.112-.2-.055s-.214.12-.315.188-.092.087-.014.17a14.644,14.644,0,0,0,1.213,1.02S556.117,214.964,556.144,214.966ZM545.7,246.387a.58.58,0,0,0-.037-.076,1.938,1.938,0,0,1-.5-1.063.088.088,0,0,0-.073-.085l-.552-.144.683,1.451Zm-24.75-30.172v0c.041,0,.081,0,.122,0,.122,0,.139-.027.095-.15-.077-.214-.151-.429-.238-.64-.161-.39-.247-.4-.552-.109l-.036.033a.089.089,0,0,0-.017.129,1.963,1.963,0,0,1,.225.484c.1.23.094.235.354.245Zm8.849,2.569a7.153,7.153,0,0,0-.931-.5c-.06-.038-.111.007-.124.073-.031.158-.064.316-.082.476a1.007,1.007,0,0,0-.03.395C529,219.05,529.392,218.96,529.8,218.784Zm-.734,28.482.035-.038a5.83,5.83,0,0,1-.376-.673c-.06-.106-.125-.21-.188-.315-.03-.05-.061-.1-.131-.089l-.449.067c0,.028-.01.048,0,.059.138.231.279.46.418.69a.243.243,0,0,0,.122.116C528.682,247.147,528.874,247.205,529.065,247.266Zm.291-31.716a7.318,7.318,0,0,0,.494-.717c.043-.057.048-.127-.035-.161a4.178,4.178,0,0,0-.817-.3A8.125,8.125,0,0,0,529.356,215.55Zm18.591,30.1a4.677,4.677,0,0,0,.731.264c.142.045.159.035.165-.106.011-.268.016-.537.022-.805a.217.217,0,0,0-.02-.064A3.116,3.116,0,0,0,547.947,245.649Zm-14.34-28.931a.126.126,0,0,0,.03.132q.271.34.543.68c.056.07.117.136.173.206a.139.139,0,0,0,.123.066,1.843,1.843,0,0,0,.555-.065A5.3,5.3,0,0,0,533.607,216.718Zm1.848,30.157a.9.9,0,0,0,.14.331c.113.188.232.373.339.565.081.147.074.152.216.13.048-.007.1-.017.144-.029.118-.029.127-.042.09-.147a.471.471,0,0,0-.04-.089c-.075-.126-.05-.3-.146-.4a1.5,1.5,0,0,0-.4-.222A.758.758,0,0,0,535.456,246.875Zm10.106-1.537a1.969,1.969,0,0,0,.323.652.452.452,0,0,1,.093.356,1.575,1.575,0,0,0,.5-.069,6.54,6.54,0,0,1-.34-.712.151.151,0,0,0-.1-.1A1.888,1.888,0,0,0,545.562,245.338Zm-.434-26.093.044.032a3.257,3.257,0,0,1,.839-.523,3.381,3.381,0,0,0-.883-.416Zm16.166-6.123a.434.434,0,0,0,.053.071,1.7,1.7,0,0,0,.166.1,7.88,7.88,0,0,1,1.407.915c.108.088.2.187.309.276a.684.684,0,0,1,.164.142c.051.08-.029.155,0,.246.1-.046.209.049.323-.044-.224-.24-.427-.485-.659-.7a5.632,5.632,0,0,0-1.007-.734A3.833,3.833,0,0,0,561.293,213.122Zm-3.674,5.068.625-.687a4.4,4.4,0,0,0-.826-.144A2.067,2.067,0,0,0,557.619,218.19Zm-37.352-2.008a1.151,1.151,0,0,0-.183-.482c-.043-.069-.1-.1-.18-.036a4.682,4.682,0,0,1-.507.415.116.116,0,0,0-.048.15Zm26.406,29.525c.013.186.139.29.167.432.018.094.073.115.158.105.226-.026.452-.048.677-.076.051-.006.114.01.15-.058A11.783,11.783,0,0,0,546.674,245.707ZM527.9,246.815a1.474,1.474,0,0,0-.379-.534c-.123-.093-.311.013-.471.011a.294.294,0,0,0-.049,0c-.083.012-.173-.017-.26.034A3.888,3.888,0,0,0,527.9,246.815Zm23.275-29.084a2.682,2.682,0,0,0,.883-.048,1.979,1.979,0,0,0-.521-.455c-.046-.035-.089.008-.126.042C551.277,217.389,551.263,217.57,551.172,217.731Zm-8.5,10.626a3.936,3.936,0,0,0-.678-.14c-.074-.012-.1.035-.1.1.013.162.027.324.044.486.007.073.071.1.117.05A4.9,4.9,0,0,1,542.673,228.357ZM536.406,250a2.421,2.421,0,0,0,.926.281,1.078,1.078,0,0,0-.144-.412c-.026-.042-.055-.095-.111-.079A3.5,3.5,0,0,0,536.406,250Zm14.24-19.2a1.294,1.294,0,0,0,.146.748c.154-.193.371-.291.512-.5A4.552,4.552,0,0,0,550.646,230.794Zm-5,18.023a.968.968,0,0,0-.109-.308.145.145,0,0,0-.186-.107q-.331.065-.661.134c-.011,0-.018.023-.034.046A4.114,4.114,0,0,0,545.651,248.817Zm10.657-1.017c-.177.133-.319.238-.46.346a.5.5,0,0,0-.084.084c-.022.027-.028.063.014.075a3.223,3.223,0,0,0,.574.185A4.515,4.515,0,0,0,556.307,247.8Zm-12.921-34.633a.482.482,0,0,0,0-.086,4.145,4.145,0,0,1-.268-.706.071.071,0,0,0-.045-.049.584.584,0,0,0-.438.043A7.962,7.962,0,0,0,543.386,213.167Zm-6.839,32.276c.04-.063,0-.128-.018-.18-.131-.315-.119-.349-.428-.267a1.53,1.53,0,0,1-.218.018c-.022,0-.049.01-.05.043a.054.054,0,0,0,.036.056,5.192,5.192,0,0,1,.473.253C536.4,245.4,536.462,245.453,536.546,245.443Zm7.528-17.829c-.156.057-.268.1-.383.138a.225.225,0,0,0-.168.23c-.007.081.01.125.087.143s.18.074.238-.032A2.178,2.178,0,0,0,544.074,227.614Zm1.158-1.135a.614.614,0,0,0,.416-.356c.031-.08.093-.177-.018-.274Zm10.783,22.441a1.717,1.717,0,0,0-.485-.206c.082.288.082.288.324.24Zm-19-1.255a.461.461,0,0,0-.274-.136C536.827,247.762,536.828,247.763,537.018,247.665Z" transform="translate(-263.504 0)"/>
  </g>
</svg>
