<svg xmlns="http://www.w3.org/2000/svg" width="48.153" height="19" viewBox="0 0 48.153 19">
  <path id="Path_8345" data-name="Path 8345" d="M890.043,734.426a2.312,2.312,0,0,0-1.31-.042,2.215,2.215,0,0,1-1.751-.584.537.537,0,0,1,.233-.97,7.014,7.014,0,0,1,1.256-.147,31.246,31.246,0,0,0,5-.781c1.159-.226,2.331-.395,3.5-.584a1.4,1.4,0,0,1,1.278.4.746.746,0,0,1,.124,1.119c-.684.913-1.351,1.843-2.1,2.705-1.464,1.7-2.987,3.34-4.461,5.026a18.447,18.447,0,0,0-1.462,1.909,9.941,9.941,0,0,1-2.167,1.9,1.016,1.016,0,0,1-.719.056c-.336-.059-.392-.155-.811-.826,1.159-1.41,2.3-2.871,3.524-4.266.946-1.08,2-2.062,2.978-3.118a4.11,4.11,0,0,0,1.066-1.557c-.359.135-.59.2-.8.305-1.954,1.008-3.9,2.034-5.857,3.034-2.073,1.058-4.078,2.234-6.058,3.452-.684.421-1.364.85-2.048,1.273-1.151.711-2.312,1.406-3.452,2.134-1.211.774-2.392,1.6-3.6,2.368-1.283.818-2.569,1.633-3.891,2.384a5.834,5.834,0,0,1-1.778.637,2.134,2.134,0,0,1-2.329-1.167,1.954,1.954,0,0,1-.159-1.594,24.944,24.944,0,0,1,.783-2.411c.991-2.381,2.07-4.722,3.292-7a22.822,22.822,0,0,0,.985-2.333,3.783,3.783,0,0,0,.131-.636,1.869,1.869,0,0,0-1.616-.052c-1.078.371-2.166.728-3.205,1.188a26.8,26.8,0,0,0-2.556,1.4,55.968,55.968,0,0,0-7.211,4.949c-.654.533-1.262,1.124-1.9,1.679-.318.278-.646.546-.985.8a.934.934,0,0,1-1.174-.006c-.414-.279-.511-.6-.179-.94.734-.759,1.485-1.5,2.261-2.219a46.873,46.873,0,0,1,6.025-4.422,44.831,44.831,0,0,1,5.6-3.227,9.376,9.376,0,0,1,4.531-1.015,3.032,3.032,0,0,1,1.56.465,1.614,1.614,0,0,1,.814,1.484,5.835,5.835,0,0,1-.265,1.357,34.931,34.931,0,0,1-2.007,4.236c-.654,1.421-1.289,2.85-1.965,4.261a15.707,15.707,0,0,0-.9,3.023c-.026.1.058.231.1.366a18.4,18.4,0,0,0,4.543-2.486c3.643-2.309,7.243-4.687,10.928-6.927,2.525-1.535,5.164-2.884,7.752-4.317C889.729,734.633,889.857,734.543,890.043,734.426Z" transform="translate(-850.421 -731.293)" fill-rule="evenodd"/>
</svg>
