<svg xmlns="http://www.w3.org/2000/svg" width="36.087" height="31.482" viewBox="0 0 36.087 31.482">
  <g id="Group_11444" data-name="Group 11444" transform="translate(-346.163 -26.249)">
    <path id="Path_8029" data-name="Path 8029" d="M105.12,1112.28a20.537,20.537,0,0,1-2.762-.457,3.085,3.085,0,0,0-1.606-.025.577.577,0,0,1-.231,0c-.18-.029-.262-.272-.273-.786a2.018,2.018,0,0,1,.218-1.19.345.345,0,0,1,.262-.081,8.028,8.028,0,0,1,1.742.093c.876.23,1.755.268,2.633.41.318.052.634.208.952.249a16.682,16.682,0,0,0,4.115.029c1.129-.134,2.26-.073,3.387-.278.877-.16,1.754-.052,2.63-.173a2.056,2.056,0,0,0,.886-.151c.108-.064.22-.044.321.161a1.887,1.887,0,0,1,.205,1.083,1.826,1.826,0,0,1-.225,1.049c-.128.146-.258.251-.389.169a2.737,2.737,0,0,0-1.675-.173c-.8.014-1.6.115-2.4.189a22.107,22.107,0,0,1-2.265.184,22.5,22.5,0,0,1-2.994.083A14.273,14.273,0,0,1,105.12,1112.28Z" transform="translate(258.106 -1070.724)"/>
    <path id="Path_8031" data-name="Path 8031" d="M105.12,1112.28a20.537,20.537,0,0,1-2.762-.457,3.085,3.085,0,0,0-1.606-.025.577.577,0,0,1-.231,0c-.18-.029-.262-.272-.273-.786a2.018,2.018,0,0,1,.218-1.19.345.345,0,0,1,.262-.081,8.028,8.028,0,0,1,1.742.093c.876.23,1.755.268,2.633.41.318.052.634.208.952.249a16.682,16.682,0,0,0,4.115.029c1.129-.134,2.26-.073,3.387-.278.877-.16,1.754-.052,2.63-.173a2.056,2.056,0,0,0,.886-.151c.108-.064.22-.044.321.161a1.887,1.887,0,0,1,.205,1.083,1.826,1.826,0,0,1-.225,1.049c-.128.146-.258.251-.389.169a2.737,2.737,0,0,0-1.675-.173c-.8.014-1.6.115-2.4.189a22.107,22.107,0,0,1-2.265.184,22.5,22.5,0,0,1-2.994.083A14.273,14.273,0,0,1,105.12,1112.28Z" transform="translate(258.106 -1066.416)"/>
    <path id="Path_8032" data-name="Path 8032" d="M105.12,1112.28a20.537,20.537,0,0,1-2.762-.457,3.085,3.085,0,0,0-1.606-.025.577.577,0,0,1-.231,0c-.18-.029-.262-.272-.273-.786a2.018,2.018,0,0,1,.218-1.19.345.345,0,0,1,.262-.081,8.028,8.028,0,0,1,1.742.093c.876.23,1.755.268,2.633.41.318.052.634.208.952.249a16.682,16.682,0,0,0,4.115.029c1.129-.134,2.26-.073,3.387-.278.877-.16,1.754-.052,2.63-.173a2.056,2.056,0,0,0,.886-.151c.108-.064.22-.044.321.161a1.887,1.887,0,0,1,.205,1.083,1.826,1.826,0,0,1-.225,1.049c-.128.146-.258.251-.389.169a2.737,2.737,0,0,0-1.675-.173c-.8.014-1.6.115-2.4.189a22.107,22.107,0,0,1-2.265.184,22.5,22.5,0,0,1-2.994.083A14.273,14.273,0,0,1,105.12,1112.28Z" transform="translate(258.106 -1062.107)"/>
    <path id="Path_8030" data-name="Path 8030" d="M456.2,113.06c-.187-.358-.224-.62-.086-.753a5.84,5.84,0,0,1,1.072-.965,10.509,10.509,0,0,1,2.61-1.48c.606-.116,1.134-.591,1.743-.7a7.5,7.5,0,0,0,1.755-.548,9.831,9.831,0,0,1,2.112-.52c.671-.135,1.344-.238,2.017-.338.321-.047.628-.193.97-.012.28.148.573-.1.836-.377a9.514,9.514,0,0,1,2.194-1.781,4.253,4.253,0,0,0,.907-.615c.525-.506,1.182-.378,1.682-.984.048-.058.157.029.239.028.133,0,.3.058.394-.05.467-.542.962-.33,1.427-.116a2.6,2.6,0,0,1,1.439,1.833,3.8,3.8,0,0,1,.043.5,2.185,2.185,0,0,0-2.955-1.046,17.418,17.418,0,0,0-3.186,1.791,1.668,1.668,0,0,0-.27.3c.425.59.928.333,1.383.369a3.916,3.916,0,0,0,1.381.1c.248-.068.525.215.794.261a3.288,3.288,0,0,0,1.392.138.39.39,0,0,1,.244.028c1.033.431,2.089.682,3.132,1.038.053.018.12.006.157.055.46.591,1.014.553,1.553.679a4.469,4.469,0,0,1,1.175.585c.847.507,1.674,1.118,2.535,1.541a8.22,8.22,0,0,1,1.834,1.463,3.838,3.838,0,0,0,.75.528,3.778,3.778,0,0,1,1.133,1.057,14.02,14.02,0,0,1,1.616,2.245,25.284,25.284,0,0,1,1.539,4.1,10.056,10.056,0,0,1,.227,4.062,7.41,7.41,0,0,1-1.084,2.8,2.156,2.156,0,0,1-.484.493,7.887,7.887,0,0,1-2.409,1.918,1.819,1.819,0,0,0-.5.424c-.306.285-.594.626-.979.589a.386.386,0,0,0-.3.174,1.356,1.356,0,0,1-1,.526,5.148,5.148,0,0,0-1.953.94,2.377,2.377,0,0,1-.626.3c-1.484.418-2.967.851-4.457,1.206-.335.08-.7.242-1.051-.026a.214.214,0,0,0-.235,0,2.558,2.558,0,0,1-1.781.226,4.092,4.092,0,0,0-.983.039,11.5,11.5,0,0,1-2.038-.247.785.785,0,0,1-.244-.053,15.069,15.069,0,0,1-4.412-2.4,13.358,13.358,0,0,1-3.523-4.89,14.792,14.792,0,0,1-1.115-3.522,17.17,17.17,0,0,1-.11-5.682,3.6,3.6,0,0,1,.144-.627,21.85,21.85,0,0,1,1.953-4.58c.388-.607.755-1.232,1.1-1.912a10.818,10.818,0,0,1,1.4-1.819c-.026-.191-.151-.165-.253-.151a22.115,22.115,0,0,0-7.009,2.165,10.459,10.459,0,0,0-3.248,2.221c-.067.074-.13.157-.2.24-.014.265-.028.522-.043.79-.25-.154-.25-.154-.545-1.165l.183-.416c.145.012.267-.046.325-.291l.145.017-.033-.161-.1.171Zm14.761-4.287c0,.021,0,.042,0,.064-.33,0-.659-.013-.989,0a1.9,1.9,0,0,0-1.314.66,23.851,23.851,0,0,0-4.512,7.14,8.5,8.5,0,0,0-.87,3.953,2.147,2.147,0,0,1-.029.264,13.488,13.488,0,0,0,.381,4.442,9.76,9.76,0,0,0,3.718,5.881,5.346,5.346,0,0,0,1.725,1.107,1.854,1.854,0,0,0,1.322.627c.3.071.587.2.883.267a6.584,6.584,0,0,0,2.038.372c.929-.1,1.855.352,2.776-.04a5.913,5.913,0,0,0,2.361-.272c.46-.11.917-.265,1.375-.391.753-.207,1.51-.372,2.258-.62a15.539,15.539,0,0,0,2.522-1.153c.6-.326,1.208-.577,1.8-.922.747-.436,1.48-.933,2.218-1.407a1.592,1.592,0,0,0,.294-.237c.485-.5.972-1,1.449-1.53a1.643,1.643,0,0,0,.343-.564c.239-.7.465-1.416.668-2.146a5.045,5.045,0,0,0,.049-2.243,10.79,10.79,0,0,0-4.811-7.476c-.458-.282-.882-.713-1.336-1.018-.732-.491-1.472-.951-2.216-1.391a18.068,18.068,0,0,0-1.95-1.063A28.107,28.107,0,0,0,478.233,110c-.94-.29-1.893-.48-2.842-.689a12.389,12.389,0,0,0-1.229-.173C473.1,109.015,472.027,108.9,470.96,108.773Z" transform="translate(-109.842 -77.377)" fill="#f27111" fill-rule="evenodd"/>
  </g>
</svg>
