<svg xmlns="http://www.w3.org/2000/svg" width="73.5" height="35.753" viewBox="0 0 73.5 35.753">
  <g id="Group_11361" data-name="Group 11361" transform="translate(-38 -113)">
    <path id="Path_8380" data-name="Path 8380" d="M980.776,264.114a9.2,9.2,0,0,0,4.316,1.705c.366.073.748.063,1.117.125,4.881.833,9.6-.055,14.261-1.39a30.088,30.088,0,0,0,3.155-1.174,16.778,16.778,0,0,0,3.786-2.4,7.9,7.9,0,0,0,2.8-4.564,5.018,5.018,0,0,0-.624-3.867,9.859,9.859,0,0,0-2.671-2.957,23.323,23.323,0,0,0-5.383-2.84c-3.75-1.452-7.6-2.594-11.459-3.707-1.9-.548-3.855-.889-5.791-1.294a54.2,54.2,0,0,0-6.972-1.123c-.072-.005-.136-.106-.271-.219,1.3-.432,2.584-.784,3.807-1.279,1.385-.562,2.734-1.222,4.067-1.9a8.691,8.691,0,0,0,1.568-1.114,1.578,1.578,0,0,0,.491-1.744.9.9,0,0,0-1.27-.6,5.376,5.376,0,0,0-.541.345,30.638,30.638,0,0,1-6.345,3.04c-2.277.812-4.617,1.351-6.95,1.939a20.444,20.444,0,0,0-2.743.894,2.107,2.107,0,0,0-1.431,2.442c.253.172.509.361.78.527q4.731,2.879,9.466,5.752a5.932,5.932,0,0,0,.987.522.844.844,0,0,0,1.047-.513,1.327,1.327,0,0,0-.174-1.5,5.794,5.794,0,0,0-1.09-.926c-1.161-.767-2.345-1.5-3.52-2.247-.4-.255-.8-.515-1.19-.768.113-.455.423-.3.655-.286a70.8,70.8,0,0,1,16.253,2.88q5.007,1.5,9.883,3.339a15.666,15.666,0,0,1,5.27,3.006,11.345,11.345,0,0,1,1.664,1.938,2.643,2.643,0,0,1-.059,3.158,9.753,9.753,0,0,1-3.585,3.144,28.678,28.678,0,0,1-8.029,2.726,34.042,34.042,0,0,1-4.113.673,24.6,24.6,0,0,1-9.2-1.027c-.1-.031-.2-.091-.3-.118a1.057,1.057,0,0,0-1.444.633A3.9,3.9,0,0,0,980.776,264.114Z" transform="translate(-898.858 -120.684)" fill="#f27111" fill-rule="evenodd"/>
    <text id="Hide" transform="translate(38 143.753)" fill="#f27111" font-size="14" font-family="NunitoSans-ExtraBold, Nunito Sans" font-weight="800"><tspan x="0" y="0">Hide</tspan></text>
  </g>
</svg>
