<svg xmlns="http://www.w3.org/2000/svg" width="57.921" height="37.129" viewBox="0 0 57.921 37.129">
  <g id="Group_11325" data-name="Group 11325" transform="translate(-41.462 -19.816)">
    <path id="Path_7892" data-name="Path 7892" d="M49,36.8a.305.305,0,0,1-.305.305H45.881c-2.522,0-4.419-1.418-4.419-4.183V20.436a.305.305,0,0,1,.305-.305H46.1a.305.305,0,0,1,.305.305V33.967a.305.305,0,0,0,.305.305H48.7a.305.305,0,0,1,.305.305Z" transform="translate(0 -0.297)" fill="#086788"/>
    <path id="Path_7893" data-name="Path 7893" d="M205.12,32.925c0,2.765-1.872,4.186-4.419,4.186h-2.473c-2.522,0-4.419-1.418-4.419-4.186V24.317c0-2.767,1.9-4.186,4.419-4.186H200.7c2.545,0,4.419,1.418,4.419,4.186Zm-5.255,1.347a.305.305,0,0,0,.305-.305V23.275a.305.305,0,0,0-.305-.305h-.806a.305.305,0,0,0-.305.305V33.967a.305.305,0,0,0,.305.305Z" transform="translate(-143.505 -0.297)" fill="#086788"/>
    <path id="Path_7894" data-name="Path 7894" d="M423.008,32.925c0,2.765-1.872,4.186-4.419,4.186h-2.473c-2.522,0-4.419-1.418-4.419-4.186V24.317c0-2.767,1.9-4.186,4.419-4.186h2.473c2.545,0,4.419,1.418,4.419,4.186v.465a.305.305,0,0,1-.305.305h-4.336a.305.305,0,0,1-.305-.305V23.275a.305.305,0,0,0-.305-.305h-.806a.305.305,0,0,0-.305.305V33.967a.305.305,0,0,0,.305.305h.806a.305.305,0,0,0,.305-.305V32.46a.305.305,0,0,1,.305-.305H422.7a.305.305,0,0,1,.305.305Z" transform="translate(-348.748 -0.297)" fill="#086788"/>
    <path id="Path_7895" data-name="Path 7895" d="M640.886,37.108h-4.947V32.877h-1.416v4.232h-4.947V25.783l3.767-5.652h3.77l3.77,5.652V37.108Zm-4.949-7.07V25.5l-.7-1.059L634.52,25.5V30.04h1.416Z" transform="translate(-553.984 -0.297)" fill="#086788"/>
    <path id="Path_7896" data-name="Path 7896" d="M855.014,37.108h-3.123c-2.522,0-4.42-1.418-4.42-4.186V20.436a.305.305,0,0,1,.305-.305h4.336a.305.305,0,0,1,.305.305V33.967a.305.305,0,0,0,.305.305h1.983a.305.305,0,0,1,.305.305v2.529A0,0,0,0,0,855.014,37.108Z" transform="translate(-759.235 -0.297)" fill="#086788"/>
    <path id="Path_7897" data-name="Path 7897" d="M49,384H45.881c-2.522,0-4.419-1.418-4.419-4.186V367.326a.305.305,0,0,1,.305-.305H46.1a.305.305,0,0,1,.305.305v13.531a.305.305,0,0,0,.305.305H48.7a.305.305,0,0,1,.305.305V384A0,0,0,0,0,49,384Z" transform="translate(0 -327.056)" fill="#086788"/>
    <path id="Path_7898" data-name="Path 7898" d="M205.12,379.815c0,2.765-1.872,4.186-4.419,4.186h-2.473c-2.522,0-4.419-1.418-4.419-4.186v-8.609c0-2.765,1.9-4.186,4.419-4.186H200.7c2.545,0,4.419,1.418,4.419,4.186Zm-4.947,1.347v-11.3h-1.416v11.3Z" transform="translate(-143.505 -327.056)" fill="#086788"/>
    <path id="Path_7899" data-name="Path 7899" d="M414.819,378.229c-1.73,0-3.123-1.683-3.123-3.752v-7.15a.305.305,0,0,1,.305-.305h4.336a.305.305,0,0,1,.305.305v7.758a.305.305,0,0,0,.305.305h.783a.305.305,0,0,0,.305-.305v-7.758a.305.305,0,0,1,.305-.305h4.336a.305.305,0,0,1,.305.305v7.15c0,2.069-1.393,3.752-3.123,3.752a.048.048,0,0,0-.048.048V383.7a.305.305,0,0,1-.305.305H415.17a.305.305,0,0,1-.305-.305v-5.421A.046.046,0,0,0,414.819,378.229Z" transform="translate(-348.748 -327.056)" fill="#086788"/>
    <path id="Path_7900" data-name="Path 7900" d="M640.893,383.7a.305.305,0,0,1-.305.305h-4.336a.305.305,0,0,1-.305-.305v-3.621a.305.305,0,0,0-.305-.305h-.806a.305.305,0,0,0-.305.305V383.7a.305.305,0,0,1-.305.305h-4.336a.305.305,0,0,1-.305-.305v-10.93a.306.306,0,0,1,.051-.169l3.628-5.44a.305.305,0,0,1,.254-.136h3.443a.305.305,0,0,1,.254.136l3.628,5.44a.3.3,0,0,1,.051.169Zm-5.254-6.765a.305.305,0,0,0,.305-.305v-4.149a.306.306,0,0,0-.05-.168l-.395-.6a.305.305,0,0,0-.507,0l-.411.6a.305.305,0,0,0-.053.172v4.146a.305.305,0,0,0,.305.305Z" transform="translate(-553.991 -327.056)" fill="#086788"/>
    <path id="Path_7901" data-name="Path 7901" d="M855.014,384h-3.123c-2.522,0-4.42-1.418-4.42-4.186V367.326a.305.305,0,0,1,.305-.305h4.336a.305.305,0,0,1,.305.305v13.531a.305.305,0,0,0,.305.305h1.983a.305.305,0,0,1,.305.305V384A0,0,0,0,0,855.014,384Z" transform="translate(-759.235 -327.056)" fill="#086788"/>
    <path id="Path_7902" data-name="Path 7902" d="M957.041,22.965a.305.305,0,0,1-.305.305h-.1a.305.305,0,0,0-.305.305V26.42a.305.305,0,0,1-.305.305h-1.992c-1.171,0-2.052-.577-2.052-1.7V23.8a1.061,1.061,0,0,1,.229-.678.832.832,0,0,0,0-.9,1.05,1.05,0,0,1-.232-.674v-.029c0-1.125.881-1.7,2.052-1.7h1.09a.305.305,0,0,1,.305.305v.545a.305.305,0,0,1-.305.305h-.538a.305.305,0,0,0-.305.305v.535a.305.305,0,0,0,.305.305h.069a.284.284,0,0,0,.284-.284.284.284,0,0,1,.284-.284h.826a.284.284,0,0,1,.284.284.284.284,0,0,0,.284.284h.119a.305.305,0,0,1,.305.305Zm-2.407,2.605a.305.305,0,0,0,.305-.305v-1.69a.305.305,0,0,0-.305-.305h-.047a.305.305,0,0,0-.305.305v1.69a.305.305,0,0,0,.305.305Z" transform="translate(-857.681)" fill="#ff6b00"/>
    <rect id="Rectangle_1635" data-name="Rectangle 1635" width="4.971" height="1.471" rx="0.736" transform="translate(94.412 27.431)" fill="#ff6b00"/>
  </g>
</svg>
