<svg xmlns="http://www.w3.org/2000/svg" width="127" height="70.475" viewBox="-15 0 169 52.475">
  <g id="Group_11443" data-name="Group 11443" transform="translate(-151 -348)">
    <path id="Path_8256" data-name="Path 8256" d="M998.529,234.581c-3.023.283-5.4,1.8-7.74,3.356-.564.375-1.041.881-1.6,1.274-7.345,5.2-12.266,12.407-16.546,20.12a54.706,54.706,0,0,0-2.547,5.564,30.518,30.518,0,0,0-1.789,7.948,14.37,14.37,0,0,0,2.268,9.466,9.124,9.124,0,0,0,5.774,4.169,17.945,17.945,0,0,0,7.236.368,42.4,42.4,0,0,0,10.571-3.269c6.687-2.954,13.107-6.437,19.5-9.965,3.143-1.735,6.1-3.813,9.109-5.782a98.42,98.42,0,0,0,10.407-7.519c.1-.085.311-.038.629-.067-1.121,2.232-2.314,4.331-3.248,6.539-1.059,2.5-1.943,5.086-2.785,7.673a15.85,15.85,0,0,0-.583,3.447,2.869,2.869,0,0,0,1.611,2.874,1.637,1.637,0,0,0,2.4-.863,9.357,9.357,0,0,0,.252-1.14,55.74,55.74,0,0,1,4.25-12.064c1.882-3.972,4.2-7.673,6.442-11.428a37.316,37.316,0,0,0,2.376-4.676,3.829,3.829,0,0,0-1.3-4.978c-.546.1-1.119.19-1.68.326q-9.783,2.378-19.563,4.774a10.8,10.8,0,0,0-1.94.6,1.532,1.532,0,0,0-.687,2,2.413,2.413,0,0,0,2.159,1.711,10.549,10.549,0,0,0,2.592-.211c2.479-.507,4.943-1.088,7.414-1.636.843-.188,1.689-.364,2.516-.542.44.731-.158.93-.472,1.209a128.762,128.762,0,0,1-24.6,17.193q-8.358,4.514-17,8.413a28.485,28.485,0,0,1-10.639,2.91,20.674,20.674,0,0,1-4.632-.352,4.806,4.806,0,0,1-3.983-4.136,17.734,17.734,0,0,1,.568-8.65,52.15,52.15,0,0,1,6.817-13.826,62.094,62.094,0,0,1,4.422-6.154,44.73,44.73,0,0,1,13.154-10.511c.172-.091.369-.135.536-.232a1.921,1.921,0,0,0,1.044-2.671A7.053,7.053,0,0,0,998.529,234.581Z" transform="translate(-792.202 113.419)" fill="#fdeb90" />
    <text id="Show_loyalty_card" data-name="Show loyalty card" transform="translate(151 382.153)" fill="#f27111" font-size="12" font-family="NunitoSans-Black, Nunito Sans" font-weight="800"><tspan x="-15" y="-7">Click to show your member</tspan></text>
    <text id="Show_loyalty" data-name="Show loyalty" transform="translate(151 382.153)" fill="#f27111" font-size="12" font-family="NunitoSans-Black, Nunito Sans" font-weight="800"><tspan x="10" y="10">card to the retailer</tspan></text>
  </g>
</svg>
