<svg xmlns="http://www.w3.org/2000/svg" width="112.864" height="150.439" viewBox="0 0 112.864 150.439">
  <g id="Group_11328" data-name="Group 11328" transform="translate(-277.484 -124.001)">
    <path id="Path_7912" data-name="Path 7912" d="M277.828,303.317c-.655.479-.213,1.223.005,1.812q.863,2.4,1.764,4.777c5.1,13.126,10.919,25.963,16.386,38.939a1.058,1.058,0,0,1,1.2.877c.151.483-.227.864-.249,1.336a7.432,7.432,0,0,0,1.784,2.991,19.814,19.814,0,0,0,2.658,2.446c-3.171-7.657-6.436-15.274-9.647-22.914-.036.015-.072.031-.11.044h0c-.529.2-.5-.453-.145-.637-4.245-9.934-7.985-19.267-12.785-28.881-.711.636-.986-.1-.221-.469-.073-.3-.352-.552-.642-.318Z" transform="translate(0 -164.482)" fill="#161616"/>
    <path id="Path_7913" data-name="Path 7913" d="M616.852,1066.891l.024.037-.016-.037Z" transform="translate(-311.454 -865.333)" fill="#161616"/>
    <path id="Path_7914" data-name="Path 7914" d="M598.476,1081.151c4.846,11.392,9.612,22.818,14.588,34.154.362.628.513,1.474,1.072,1.943.637.153,1.047-.678,1-1.218l-1.136-.107,1.136.107c-3.5-9.323-7.7-18.409-11.534-27.61-.968-1.6-1.931-6.2-3.506-6.576a5.3,5.3,0,0,1-2.05-1.7l.428,1.007Z" transform="translate(-294.197 -877.497)" fill="#161616"/>
    <path id="Path_7915" data-name="Path 7915" d="M387.77,155.579c-5.321.7-10.7,1.039-15.985,1.987-6.038,1.048-11.862,2.709-17.98,2.978a39.87,39.87,0,0,1-8.457-.457c-4.615-1.075-8.921-3.024-13.7-3.181a85.5,85.5,0,0,0-36,5.962,76.347,76.347,0,0,0-8.321,3.577,18.3,18.3,0,0,0-3.2,1.83c-.507.4-.179.884.433.325,4.8,9.613,8.54,18.947,12.785,28.881-.354.185-.383.841.145.637h0c4.782-1.939,9.7-3.458,14.6-5.08,6.456-2.043,13.282-3.958,20.078-2.954,3.9.563,7.459,2.455,11.339,3.1,5.211,1.206,10.785.818,16.1.408,9.68-.74,19.165-3.164,28.6-5.359,1.74-.6,7.45-1.32,8.014-2.826a68.317,68.317,0,0,0-1.978-7.666,42.026,42.026,0,0,0-2.784-5.668l.009.019c-2.164-3.981-4.349-8.633-3.615-13.327-.024-.613.9-3.316-.072-3.193Z" transform="translate(-5.862 -28.976)" fill="#ee7731"/>
    <path id="Path_7916" data-name="Path 7916" d="M883.18,1285.107c-.388.04-.6.438-.846.689a13.873,13.873,0,0,1-5.447,2.192h0a14.483,14.483,0,0,1-6.1-.044c-1.181-.044-2.017-.955-3.073-1.307-1,.318-1.532,1.571-2.586,1.858a21.524,21.524,0,0,1-5.978.72c-.979-1.281-1.645,3.378-1.833,3.94-.413,2-.891,4-1.4,5.964-.761,2.879-.869,5.8-1.448,8.7-.192,1.024-.42,2.168-.508,3.177-.055.426-.2,1.02.428,1.04,3.1.318,6.17-.016,9.28.12,2.253-.155,4.356-.808,6.628-.995a46.908,46.908,0,0,0,7.858-1.993,35.01,35.01,0,0,0,6.538-3.467c1.364-.757,2.655-1.626,4-2.406.642-.44,1.9-.786,1.576-1.783a91.93,91.93,0,0,0-3.98-9.6c-.676-1.515-1.391-3.191-2.032-4.76-.383-.631-.466-1.652-1.079-2.044Z" transform="translate(-529.011 -1065.601)" fill="#ee7731"/>
    <path id="Path_7917" data-name="Path 7917" d="M994.678,804.429c-.3.441.726,1.313,1.031,1.642.222.331,1.379.626.825,1.066-.469.391-.924-.146-.986.3.475.6,1.869-.312,1.4-1.047-.556-.554-1.332-.888-1.8-1.544-.162-.111-.242-.576-.473-.421Z" transform="translate(-658.153 -624.432)" fill="#161616"/>
    <path id="Path_7918" data-name="Path 7918" d="M948.02,805c-.621.044-1.373.122-1.711.724-.159.254-.2.681.122.823,1.4.737,3.175-1.4,1.589-1.547Zm-.3.4h0Zm.115,0c.225-.028.637.034.5.349l.02-.049c-.125.8-2.572.776-1.523-.07.327.01.64-.306,1.005-.23Zm-.147,0h0Z" transform="translate(-613.701 -624.985)" fill="#161616"/>
    <path id="Path_7919" data-name="Path 7919" d="M958.04,810.505c-.075.246-.169.1-.27-.013-.193.028-.12.288.013.353.366.2.6-.781.257-.34Z" transform="translate(-624.222 -629.931)" fill="#161616"/>
    <path id="Path_7920" data-name="Path 7920" d="M959.182,809.56c-.14.078-.21.369-.047.451.294.483.534-.574.047-.451Zm.055.178-.005.005.005-.005Zm0,.042a.206.206,0,0,1,.032.017.044.044,0,0,0-.02,0,.094.094,0,0,1-.012-.021Zm.059.12a.1.1,0,0,0,.014-.058.181.181,0,0,1,.014.129.1.1,0,0,1-.059-.019c.009-.018.021-.035.031-.053Zm-.043.036,0,.007,0-.007Zm.013.021,0,0,0,0Zm.076.007-.007,0,.007,0Zm-.019.011-.006,0,.006,0Z" transform="translate(-625.496 -629.16)" fill="#161616"/>
    <path id="Path_7921" data-name="Path 7921" d="M958.192,809.458c-.368.253-.039.861.36.569.308-.224-.016-.8-.36-.569Zm.042.168,0,0,0,0Zm.008,0h0Zm-.017,0c.079,0,.173.08.235,0,.313.371-.433.331-.235,0Zm-.012.006-.005,0,.005,0Zm0,.006,0,0,0,0Zm.093.246.017,0-.017,0Z" transform="translate(-624.57 -629.025)" fill="#161616"/>
    <path id="Path_7922" data-name="Path 7922" d="M933.724,788.071a8.573,8.573,0,0,0-2.741.591l.025-.01c-.262.138-.674.211-.813.477,0,.053.039.087.088.061a4.288,4.288,0,0,1,1.362-.455,12.124,12.124,0,0,1,2.276-.224c.354-.184.18-.516-.2-.44Zm-.35.023-.029,0,.029,0Z" transform="translate(-599.023 -609.438)" fill="#161616"/>
    <path id="Path_7923" data-name="Path 7923" d="M935.33,818.044c-.143.283.273.236.442.255.186-.038.464.126.575-.075.141-.291-.295-.214-.463-.238-.18.02-.446-.149-.554.058Z" transform="translate(-603.709 -636.86)" fill="#161616"/>
    <path id="Path_7924" data-name="Path 7924" d="M939.111,811.77c-.291.288.784.462.856.289.106-.232-.259-.151-.385-.215-.151-.018-.346-.219-.472-.074Z" transform="translate(-607.161 -631.149)" fill="#161616"/>
    <path id="Path_7925" data-name="Path 7925" d="M980.651,831.017c-.092.118-.355.882-.023.485.04-.118.367-.777.023-.485Z" transform="translate(-645.159 -648.793)" fill="#161616"/>
    <path id="Path_7926" data-name="Path 7926" d="M973.474,834.668c-.068.117-.336.777,0,.474.067-.119.343-.788,0-.474Zm.07.288-.01.026.01-.026Z" transform="translate(-638.589 -652.136)" fill="#161616"/>
    <path id="Path_7927" data-name="Path 7927" d="M966.025,837.879c-.057.156-.365.415-.2.556.145.014.584-.913.2-.556Z" transform="translate(-631.68 -655.084)" fill="#161616"/>
    <path id="Path_7928" data-name="Path 7928" d="M1026.523,818.552c0,.126-.188.409-.024.457.143-.028.267-.837.024-.457Z" transform="translate(-687.344 -637.328)" fill="#161616"/>
    <path id="Path_7929" data-name="Path 7929" d="M1032.871,816.784c-.1-.007-.282.726-.128.682.123-.059.311-.658.128-.682Z" transform="translate(-693.082 -635.798)" fill="#161616"/>
    <path id="Path_7930" data-name="Path 7930" d="M1039.226,814.783c-.142.025-.245.54-.069.536.143-.031.256-.537.069-.536Z" transform="translate(-698.938 -633.963)" fill="#161616"/>
    <path id="Path_7931" data-name="Path 7931" d="M923.315,663.189c-2.965-.058-5.82.946-8.573,1.911-1.92.619-3.9,1.427-5.935.739a10.531,10.531,0,0,0-4.949-.762,22.422,22.422,0,0,0-6.741,1.949,25.217,25.217,0,0,1-5.231,1.163c-3.349-.061-6.6-1.6-9.987-1.2h.035a9.919,9.919,0,0,0-6.095,3.064,13.259,13.259,0,0,0-2.857,5.8h0c-.367,2.527-.133,5.352,1.531,7.385.324.342.739,1.05,1.268.967.025.187.047.376.065.535v0c-.019.336.872,7.068,1.229,4.635-.524-2.266-.723-4.56-1.106-6.845a15.014,15.014,0,0,0-.678-3.07c.04-.284-.4-.308-.472-.566-.551-.476-.316-1.9.568-1.3.188.189.437,1.133.647.4a27.349,27.349,0,0,1,.14-2.826,29.1,29.1,0,0,1,1.034-3.739,33.9,33.9,0,0,1,8.011-.973c.185.447.417.877.574,1.335a2.961,2.961,0,0,0-.972.414,7.74,7.74,0,0,0-1.51.929c-.2.13-.282.65.07.417a12.571,12.571,0,0,1,2.18-1.226h0a.031.031,0,0,0,.017-.007h0l.008,0h0c.123-.055.248-.072.368-.119.153.361.3.728.439,1.095-.159-.034-.221.2-.31.293a.715.715,0,0,0-.106-.045c.043-.089.121-.191.151-.264.095-.309-.206-.121-.254.056h0c-.032.043-.058.087-.09.133-1.132-.333-2.694,1.673-.957,1.876.781.006,1.848-.756,1.425-1.616a1.332,1.332,0,0,0,.187-.3c.59,2.252,1.15,4.864.184,7.077l.027-.063c-1.044,2.183-1.324,1.84-.776,4.336.169.427.678,4.084,1.306,3.56.366-.3-.014-.8-.065-1.152q-.454-1.735-.869-3.435a11.448,11.448,0,0,0,2.12-.084c5.244-1.192,6.064,2.294,10.619,1.778,4.277-.875,7.058-2.012,11.373-.13a13.27,13.27,0,0,0,5.3,1.291,17.052,17.052,0,0,0,8.448-2.208,9.114,9.114,0,0,0,3.062-4.241c.813-2.193,2.932-3.621,3.833-5.778a8.2,8.2,0,0,0-7.687-11.179Zm-38.138,11.368c.4,0,.479-.616.061-.66a.964.964,0,0,1,.32-.036c.049.161.3.148.4.243.23.267-.121.565-.363.665-.79.388-1.718-.3-.612-.784a.327.327,0,0,0,.193.572Zm.083-.234h-.032a.154.154,0,0,0,.032-.175.18.18,0,0,1,.021.172c-.007,0-.014,0-.021,0Z" transform="translate(-546.379 -494.836)" fill="#161616"/>
    <path id="Path_7932" data-name="Path 7932" d="M518.084,899.371c-.31.461.577.977.81,1.339a30.323,30.323,0,0,0,4.674,4.175,34.384,34.384,0,0,0,21.686,7.1l-.1,0a34.5,34.5,0,0,0,14.122-2.927,10.725,10.725,0,0,0,2.65-1.55c.3-.232,1.046-.448.759-.918-.438-.6-2.091,1.058-2.7,1.218a32.958,32.958,0,0,1-7.429,2.413c-7.78,1.528-16.156.93-23.332-2.592a45.89,45.89,0,0,1-8.027-5.361c-.94-.919-1.879-1.847-2.775-2.809-.079-.083-.224-.168-.337-.094Z" transform="translate(-220.751 -711.567)" fill="#161616"/>
    <path id="Path_7933" data-name="Path 7933" d="M477.249,925.711c.26,2.447,1.776,4.829,3.255,6.818a33.139,33.139,0,0,0,12.543,10.113,45.4,45.4,0,0,0,12.823,3.045,70.725,70.725,0,0,0,13.178-.871,35.34,35.34,0,0,0,9.687-2.566c.457-.357,2.41-.721,1.947-1.379-.4-.519-1.1.245-1.588.336-1.062.538-2.211.846-3.308,1.3a47.405,47.405,0,0,1-9.574,1.852,83,83,0,0,1-10.487.478,47.469,47.469,0,0,1-11.6-2.549c-7.09-3.019-13.6-8.491-16.388-15.811l.043.082c-.2-.249-.065-.943-.529-.846Z" transform="translate(-183.334 -735.758)" fill="#161616"/>
    <path id="Path_7934" data-name="Path 7934" d="M471.565,851.8a.868.868,0,0,0-.457.438c-.4-.835-1.228-.061-1.281.575-1.442-.687-1.39,2.39-1.2,3.218l0-.019c.121.378.435,2.893.967,2.508.174-.63-.415-1.508-.434-2.211l.018.112a5.5,5.5,0,0,1-.042-2.289c.083-.67.619-1.107.727-.17.075.457.531.383.458-.069-.133-.486-.27-1.236.355-1.429.383.148.055.943.521.893.217-.139.046-.43.183-.61,1.105-1.19.91,1.65.923,2.229a2.4,2.4,0,0,0,.742,1.567c.83.137-.193-1.2-.219-1.553-.143-1,.308-3.31-1.253-3.191Zm-.673,1.017.008.047-.008-.047Zm2.084,2.587.014.035-.014-.035Z" transform="translate(-175.33 -667.932)" fill="#161616"/>
    <path id="Path_7935" data-name="Path 7935" d="M680.276,1028.221a53.407,53.407,0,0,0-2.519,6.7c-.048.344-.459,1.764.264,1.422.227-.519.163-1.152.384-1.692.476-1.583,1.082-3.123,1.693-4.657l-.005.016c.132-.625.675-1.155.674-1.789a.245.245,0,1,0-.49,0Z" transform="translate(-367.203 -829.613)" fill="#161616"/>
    <path id="Path_7936" data-name="Path 7936" d="M742.186,1040.236c-.616,2.1-1.261,4.189-1.836,6.3.028.581-1.11,2.858-.091,2.757.4-.406.369-1.112.555-1.637.247-1.3.732-2.539.99-3.837.054-.417,1.725-4.6.382-3.583Z" transform="translate(-424.321 -840.727)" fill="#161616"/>
    <path id="Path_7937" data-name="Path 7937" d="M1042.7,951.168c-.492.035-1.412,0-1.1.754.257.373,1.051-.028,1.48.1,6.794.077,7.141,5.339,8.236,10.668.4,4.391.6,6.844,2.811,10.823.28.413,1.536,3.833,1.824,2.326-.385-1.236-1.144-2.368-1.638-3.577-2.031-3.54-1.884-6.565-2.46-10.395-1.15-5.9-1.918-10.738-9.152-10.7Z" transform="translate(-701.204 -759.129)" fill="#161616"/>
    <path id="Path_7938" data-name="Path 7938" d="M974.589,1151.011c-.174,1-.548,1.955-.644,2.972a19.788,19.788,0,0,0-1.687-2.935c-.594-.087,1.456,3.3,1.6,3.709.6.361.523-1.411.724-1.75.155-.238.788-3.033.007-2Z" transform="translate(-637.528 -942.323)" fill="#161616"/>
    <path id="Path_7939" data-name="Path 7939" d="M1034.809,959.407c.014.329-1.6,3.987-.593,3.231.345-.975.67-1.959,1.032-2.927.145-.28-.275-.668-.439-.3Zm.185.987-.009.025.009-.025Z" transform="translate(-694.184 -766.555)" fill="#161616"/>
    <path id="Path_7940" data-name="Path 7940" d="M993.5,1193.381c-.109.052-.119.207-.1.309.161.849.211,1.713.347,2.566a23.12,23.12,0,0,0,1,4.88l-.039-.114c1.563,6.753,13.933,3.559,16.973-.513l-.037.056.061-.092,0,.007a2.531,2.531,0,0,0-.207-2.883c-.879.009-.164,1.13,0,1.557l-.011-.032c.186,1.29-2.43,2.656-3.44,3.205-3.221,1.47-7.088,2.515-10.517,1.16-2.755-1.247-2.857-4.867-3.447-7.456-.19-.488-.137-2.624-.576-2.651Z" transform="translate(-657.024 -981.419)" fill="#161616"/>
    <path id="Path_7941" data-name="Path 7941" d="M881.017,1162.138c-.208,1.523,1.468,2.4,2.484,3.227.452.658-.058,1.646-.008,2.413-.064,1.071-.195,2.137-.264,3.208-.008,1.475-.859,4.139.052,5.292,2.171,1.6,6.9.468,8.607-1.467.987-.777.534-1.746.128-1.083a6.478,6.478,0,0,1-4.009,2.28l.029-.007c-1.449.316-5.227.93-4.6-1.557.236-1.731.366-3.472.529-5.209l0,.043c.083-.786.09-1.578.176-2.364.17-.981.18-2.089-.862-2.564-.724-.574-1.93-1.15-1.851-2.209a.2.2,0,1,0-.406,0Zm2.363,7.067-.009.086c0-.029.006-.057.009-.086Z" transform="translate(-553.874 -952.555)" fill="#161616"/>
    <path id="Path_7942" data-name="Path 7942" d="M865.764,981.964l-.039.015.008,0a9.169,9.169,0,0,0-4.242,3.422l.066-.1a3.716,3.716,0,0,0-.75,2.146c.649.368.67-.868.924-1.226l-.044.109a7.928,7.928,0,0,1,2.866-3.088c.424-.424,1.333-.445,1.479-1.063a.189.189,0,0,0-.268-.21Zm-.15.674-.035.014.035-.014Zm-3.552,2.987-.024.037.024-.037Zm3.671-3.649.045-.018-.045.018Z" transform="translate(-535.327 -787.37)" fill="#161616"/>
    <path id="Path_7943" data-name="Path 7943" d="M917.026,986.251c-.556.482.068,1.72.106,2.386.161.444.511,2.8,1.138,1.587a23.675,23.675,0,0,0-.653-2.374c-.2-.323-.1-1.8-.591-1.6Z" transform="translate(-586.727 -791.309)" fill="#161616"/>
    <path id="Path_7944" data-name="Path 7944" d="M920.281,984a.3.3,0,0,0-.148.32h0c.129.495,4.747,5.086,4.333,2.957-1.168-1.009-2.49-1.847-3.625-2.9-.185-.107-.322-.463-.559-.381Z" transform="translate(-589.783 -789.251)" fill="#161616"/>
    <path id="Path_7945" data-name="Path 7945" d="M997.727,961.68a31.853,31.853,0,0,1-2.548,2.969c-.311.547-1.769,1.319-1.335,1.977.132.07.268-.042.349-.135,1.071-1.12,2.1-2.283,3.091-3.477.231-.362,1.111-1.113.788-1.522-.14-.076-.279.082-.344.188Z" transform="translate(-657.363 -768.586)" fill="#161616"/>
    <path id="Path_7946" data-name="Path 7946" d="M871.317,1162.7c-.993.388.491,4.263.574,5.222a8.449,8.449,0,0,0,.558,2.077c.824.041.407-1.088.345-1.57-.214-1.473-.756-2.867-1.037-4.325-.2-.333.008-1.45-.439-1.4Z" transform="translate(-544.675 -953.265)" fill="#161616"/>
    <path id="Path_7947" data-name="Path 7947" d="M644.336,1237.572c-1.1.045-1.82.908-.673,1.643.241.183,2.2.675,1.49-.091-.341-.156-.733-.132-1.074-.279-.667-.482-.045-.816.527-.745,1.464.142,2.868.557,4.324.735a75.579,75.579,0,0,0,9.261.563,41.539,41.539,0,0,0,4.844-.423c.286-.047.784.071.847-.315,0-.206-.275-.281-.437-.277a66.846,66.846,0,0,1-15.373-.247l.138.012a24.521,24.521,0,0,0-3.874-.577Z" transform="translate(-335.525 -1021.976)" fill="#161616"/>
    <path id="Path_7948" data-name="Path 7948" d="M647.932,1256.5c-1.439.041-1.706,1.417-.21,1.724a.756.756,0,0,0-.3,1.384c1.291.561,2.65,1.016,3.984,1.489a46.888,46.888,0,0,0,7.118,2.193,25.976,25.976,0,0,0,7.012,1.144,9.525,9.525,0,0,0,2.347-.325.3.3,0,0,0-.011-.574c-.587-.181-1.194.256-1.8.258a23.769,23.769,0,0,1-7.038-.973,45.017,45.017,0,0,1-6.536-1.961c-1.088-.391-2.189-.742-3.26-1.175-.484-.207-1.549-.217-1.367-.965.317-.177.7-.212,1.011-.382.3-.461-1-.465-1.255-.719-.413-.265-.016-.651.343-.672.239-.037.582.121.736-.141.068-.381-.526-.289-.764-.305Zm3.489,3.992.038.012-.038-.012Z" transform="translate(-338.865 -1039.347)" fill="#161616"/>
    <path id="Path_7949" data-name="Path 7949" d="M880.219,1249.028c-.941.054.69,6.78.767,7.755v-.007l0,.037c0-.024,0-.048-.007-.072-.045.478.447.388.535.011a34.6,34.6,0,0,0-.439-3.475c-.138-1.216-.5-2.4-.612-3.614-.04-.211.1-.677-.247-.635Zm.769,7.776v0Zm0-.044,0,.016-.005-.057,0,.041Z" transform="translate(-552.89 -1032.487)" fill="#161616"/>
    <path id="Path_7950" data-name="Path 7950" d="M841.786,1252.655c-.872.093.417,5.252.387,6.2.155.338.223,2.038.689,1.829.588-.479-.215-2.3-.159-3.07,0,.038.007.075.01.112-.187-1.611-.593-3.205-.682-4.825a.212.212,0,0,0-.246-.25Z" transform="translate(-517.608 -1035.812)" fill="#161616"/>
    <path id="Path_7951" data-name="Path 7951" d="M817.621,1602.944c-.491.144-.434,1.088-.6,1.51a38.439,38.439,0,0,0-.7,5.064,113.666,113.666,0,0,0-.91,14.165c-.493,6.589.829,3.053-3.075,6.635-1,1.654,1.464,1.58,2.431,1.167a8.836,8.836,0,0,0,2.913-1.378l-.016.01a11.041,11.041,0,0,0,1.274-1.055c.128,1.7,1.367-.052,1.468-.809.563-1.912,1.193-3.8,1.766-5.71a177,177,0,0,1,5.67-17.317c.17-.47.3-.924.434-1.4.113-.228.438-.671.039-.769-.679.243-1.206,2.884-1.588,3.641a129.4,129.4,0,0,0-4.768,14.236c-.326,1.506-.816,2.993-1.261,4.466-.121.395-.234.817-.343,1.213-.23.07-.267.313-.41.465-1.578,1.4-4.09,2.838-6.227,2.857a.246.246,0,0,0,0-.121c.566-.4,1.141-.891,1.678-1.314.005.111.116.037.081-.034.226-.171.19-.382.23-.612.458-3.637.291-7.312.564-10.959.2-3.656.649-7.292,1.039-10.932.079-.677.2-1.349.307-2.022-.01-.3.385-.864,0-1Z" transform="translate(-490.651 -1357.294)" fill="#161616"/>
    <path id="Path_7952" data-name="Path 7952" d="M1139.672,1573.616c-4.487,1.384-8.878,3.092-13.312,4.645-3.469,1.11-7.149,2.461-10.837,2.074-2.141-.469-3.177-2.618-3.149-4.663-.1-.355.04-1.505-.517-1.364-.335.222-.128.567-.056.865l-.011-.062c-.05,4.165,1.91,6.546,6.25,6a40.77,40.77,0,0,0,10.177-2.618c2.478-.847,4.946-1.721,7.4-2.64,1.118-.315,2.179-.792,3.284-1.144.382-.136.918-.18,1-.665.046-.165-.018-.431-.222-.431Zm-25.678,5.95.025.019-.025-.019Z" transform="translate(-765.573 -1330.379)" fill="#161616"/>
    <path id="Path_7953" data-name="Path 7953" d="M1449.908,1507.872c-.136.261-.006.566.313.528a5.9,5.9,0,0,1,1.21.429,1.92,1.92,0,0,1-.289.063l.066-.01c-.559.022-1.219.339-.948,1a18.86,18.86,0,0,1,.526,3.134c.2,2.578.723,6-.881,1.061-.2-.325-.2-.784-.446-1.058-.814.037-.261,1.1-.1,1.542.375.756,1,4.209,2,2.118a21.03,21.03,0,0,0-.515-7.065c.589-.026,1.555-.712.923-1.284-.46-.174-1.569-1.166-1.857-.458Z" transform="translate(-1075.177 -1269.811)" fill="#161616"/>
    <path id="Path_7954" data-name="Path 7954" d="M1239.646,1522.14a2.8,2.8,0,0,0,.116,1.857c.459.047.426-.555.278-.842-.11-.165-.172-1.186-.394-1.015Z" transform="translate(-882.922 -1283.119)" fill="#161616"/>
    <path id="Path_7955" data-name="Path 7955" d="M1235.868,1515.631c-.238.305.133,3,.571,1.618-.008-.265-.113-.513-.127-.778a.43.43,0,0,0,.123-.414c-.087-.251-.266-.844-.566-.426Z" transform="translate(-879.485 -1277.03)" fill="#161616"/>
    <path id="Path_7956" data-name="Path 7956" d="M1249.333,1539.6c-.07.137.1.214.15.066.07-.137-.1-.214-.15-.066Z" transform="translate(-891.896 -1299.085)" fill="#161616"/>
    <path id="Path_7957" data-name="Path 7957" d="M1256.934,1505.682q-5.177.256-10.315.966l.1-.015c-.741.144-7.149,1.079-6,2.285h0c.169.038.394.1.5-.1,1-.3,2.02-.5,3.026-.767,2.568-.578,5.2-.724,7.8-1.111l-.093.015c2.674-.147,5.546-.87,8.13.067.246.191.516-.288.428-.505-.821-.991-2.408-.8-3.582-.837Z" transform="translate(-883.88 -1268.032)" fill="#161616"/>
    <path id="Path_7958" data-name="Path 7958" d="M1454.185,1509.376c-.59.23.235,3.7.167,4.469.173.644.078,5.366,1.1,4.708.442-.805-.019-1.878.035-2.772a38.7,38.7,0,0,0-.516-4.8.676.676,0,0,0,.766-.84c-.17-.061-.32-.284-.524-.2-.021-.2-.207-.389-.395-.231a.287.287,0,0,0-.013-.049h0a.236.236,0,0,0-.406-.078c.007-.118-.085-.249-.213-.2Z" transform="translate(-1079.717 -1271.413)" fill="#161616"/>
    <path id="Path_7959" data-name="Path 7959" d="M1472.691,1515.192c-.225.16-.435.515-.252.775.208.206.463-.093.6-.244.253-.286.034-.859-.353-.531Z" transform="translate(-1096.601 -1276.67)" fill="#161616"/>
    <path id="Path_7960" data-name="Path 7960" d="M455.33,1081.019c-.406.242-.385.782-.394,1.2-1.389-1.677-2.063.7.173.953a10.273,10.273,0,0,0,.826,1.587l-.016-.028c.781,1.267,2.6,3.358,4.11,3.3.215-.4-.483-.372-.68-.594a10.589,10.589,0,0,1-3.706-4.348c.242-.48.8-2.529-.313-2.061Zm-1.447,1.115-.022.012.022-.012Z" transform="translate(-161.682 -878.236)" fill="#161616"/>
    <path id="Path_7961" data-name="Path 7961" d="M739.279,1488.431c-.432.669.5,2.1.79,2.8.2.233.331,1.189.667,1.067.394-.338-.307-.979-.4-1.38a7.354,7.354,0,0,1-.882-2.057c-.057-.123.023-.454-.173-.426Z" transform="translate(-423.708 -1252.199)" fill="#161616"/>
    <path id="Path_7962" data-name="Path 7962" d="M731.09,1511.054c-.427.646.775,2.339,1.108,3,.13.271.442.916.661.347-.3-.763-.96-1.41-1.28-2.19-.2-.243-.282-1.128-.489-1.161Z" transform="translate(-416.212 -1272.963)" fill="#161616"/>
    <path id="Path_7963" data-name="Path 7963" d="M838.005,1661.924c-.493.554-.115,1.955-.252,2.718.011.289-.1.641.049.9.2.111.418-.154.411-.346a10.491,10.491,0,0,0-.208-3.269Z" transform="translate(-514.157 -1411.423)" fill="#161616"/>
    <path id="Path_7964" data-name="Path 7964" d="M825.323,1677.575c-.3.167-.081.623-.128.906.043,1.052-.055,2.1-.052,3.156.592.632.38-1.359.408-1.637-.075-.462.1-2.289-.228-2.426Z" transform="translate(-502.612 -1425.787)" fill="#161616"/>
    <path id="Path_7965" data-name="Path 7965" d="M1359.441,1483.463a18.924,18.924,0,0,0-3.587.539l.054-.011c-.288.077-.866.061-.769.5.551.146,1.271-.237,1.879-.254.339-.165,3.257-.122,2.424-.777Zm-3.83.591-.038.008.038-.008Z" transform="translate(-989.004 -1247.641)" fill="#161616"/>
    <path id="Path_7966" data-name="Path 7966" d="M1373.656,1470.656a17.6,17.6,0,0,0-2.424.329l.037-.008c-.26.093-.707.013-.818.319-.055.313,1.242-.158,1.5-.107a23.289,23.289,0,0,1,2.329-.151c.462-.417-.359-.387-.629-.382Z" transform="translate(-1003.066 -1235.885)" fill="#161616"/>
    <path id="Path_7967" data-name="Path 7967" d="M1396.053,640.647a13.647,13.647,0,0,0-4.2,1.745c-.055.022-.063.142.019.1a11.212,11.212,0,0,1,4.06-1.346c.415-.074.859.048,1.259-.042.639-.63-.785-.5-1.142-.456Zm-3.462,1.49-.012.006.012-.006Z" transform="translate(-1022.672 -474.11)" fill="#161616"/>
    <path id="Path_7968" data-name="Path 7968" d="M1445.263,622.12a7.885,7.885,0,0,0-2.372.442c-.33.313.434.046.566.035h0a7.947,7.947,0,0,1,2.9.067c.2.02.452.213.6,0,.341-.513-1.38-.536-1.689-.543Zm-1.782.472-.014,0,.014,0Z" transform="translate(-1069.473 -457.147)" fill="#161616"/>
    <path id="Path_7969" data-name="Path 7969" d="M1587.036,789.354c-.321.116-.17.49-.2.745a5.309,5.309,0,0,1-1.288,2.341c-.066.077-.124.246-.024.322.548.016.916-1.06,1.252-1.452.245-.338.8-1.832.265-1.956Z" transform="translate(-1200.395 -610.625)" fill="#161616"/>
    <path id="Path_7970" data-name="Path 7970" d="M1589.569,812.994a5.43,5.43,0,0,1-1.7,2.361c-.211.264-.742.455-.692.835.318.275,1.646-1.293,1.873-1.6.2-.161,1.379-2.338.516-1.591Z" transform="translate(-1201.966 -632.178)" fill="#161616"/>
    <path id="Path_7971" data-name="Path 7971" d="M1328.084,973.732c-.449.7,2.349.69,2.767.735l-.068-.006c.784.067,2.757.125,3.237-.507.071-.381-1.443,0-1.754-.081-1.134-.1-2.28.029-3.4-.127-.256-.013-.587-.281-.78-.014Z" transform="translate(-964.14 -779.729)" fill="#161616"/>
    <path id="Path_7972" data-name="Path 7972" d="M1384.775,980.724a21.576,21.576,0,0,1-4.96,1.255c-.269-.013-.6-.214-.791.074-1.151,1.586,7.091-.966,5.75-1.328Z" transform="translate(-1010.834 -786.254)" fill="#161616"/>
    <path id="Path_7973" data-name="Path 7973" d="M1396.425,143.292c-.953.25-5.894.37-6.005,1.208,1,.009,2.136-.373,3.2-.395.384-.067,3.635-.107,2.809-.814Zm-5.347.793-.023,0,.023,0Z" transform="translate(-1021.393 -17.704)" fill="#161616"/>
    <path id="Path_7974" data-name="Path 7974" d="M1434.513,124c-.583.063-5.807.317-5.236,1.134,1.836-.211,3.724-.509,5.593-.574a.37.37,0,0,0,.3-.455c-.152-.156-.448-.072-.653-.105Z" transform="translate(-1057.014)" fill="#161616"/>
    <path id="Path_7975" data-name="Path 7975" d="M700.581,141.667a17.126,17.126,0,0,0-4.328.941c-.539.542.415.142.64.086a18.048,18.048,0,0,1,3.87-.475c.909.016,1.812.138,2.717.213a.247.247,0,0,0,.232-.115c.5-.6-2.755-.634-3.131-.65Zm-1.9.68-.017,0,.017,0Z" transform="translate(-384.175 -16.213)" fill="#161616"/>
    <path id="Path_7976" data-name="Path 7976" d="M762.3,127.7c-.205.5,2.675.5,3.142.776.634.156,1.284.249,1.9.466.185.048.411-.308.2-.4a20.752,20.752,0,0,0-5.247-.84Zm1.515.161h0Zm.141.011h0Z" transform="translate(-444.926 -3.395)" fill="#161616"/>
    <path id="Path_7977" data-name="Path 7977" d="M1107.512,1128.465a4.711,4.711,0,0,1-1.807.427c-.233.016-.542-.208-.708.034-.313.529,1.008.372,1.3.393.3-.026,1.872-.478,1.218-.853Z" transform="translate(-759.404 -921.843)" fill="#161616"/>
    <path id="Path_7978" data-name="Path 7978" d="M917.637,1180.818c-.432.423,1.284,1.112,1.627,1.215a.26.26,0,0,0,.243-.127c.26-.372-.323-.386-.544-.513-.451-.034-.968-.777-1.326-.575Z" transform="translate(-587.435 -969.858)" fill="#161616"/>
    <path id="Path_7979" data-name="Path 7979" d="M927.572,1198.542c-.551.375.363.53.644.63.329,0,.779.4,1.035.114.254-.442-.591-.4-.85-.506-.284-.036-.553-.231-.83-.238Z" transform="translate(-596.457 -986.156)" fill="#161616"/>
    <path id="Path_7980" data-name="Path 7980" d="M1047.244,1094.638c-.225.279-1.643.842-1.382,1.035.187.077,2.174-1.058,1.382-1.035Z" transform="translate(-705.148 -890.798)" fill="#161616"/>
    <path id="Path_7981" data-name="Path 7981" d="M1046.935,1071.8a7.55,7.55,0,0,1-1.415,1.179c-.171.2-1,.425-.727.733.252.023,3.2-2.112,2.142-1.911Z" transform="translate(-704.146 -869.828)" fill="#161616"/>
    <path id="Path_7982" data-name="Path 7982" d="M1111.321,1266.529c-.522.338,1.438,1.923,1.541,1.207-.161-.41-.9-.4-1.148-.811l.024.028c-.149-.109-.2-.527-.418-.425Z" transform="translate(-765.17 -1048.536)" fill="#161616"/>
    <path id="Path_7983" data-name="Path 7983" d="M1131.025,1261.24c-.29.37,2.65,1.69,2.142.809a4.075,4.075,0,0,1-2.05-.83c-.028-.024-.071,0-.091.022Z" transform="translate(-783.316 -1043.668)" fill="#161616"/>
    <path id="Path_7984" data-name="Path 7984" d="M943.885,1287.894c-.151.325-1.193,1.528-.942,1.736.149.08,1.555-2.03.942-1.736Z" transform="translate(-610.687 -1068.132)" fill="#161616"/>
    <path id="Path_7985" data-name="Path 7985" d="M966.835,1285.4c-.042.409-.652,1.076-.334,1.4.141.035.29-.115.334-.233.051-.382.633-1.106.327-1.392-.139-.032-.286.112-.327.228Z" transform="translate(-632.259 -1065.659)" fill="#161616"/>
    <path id="Path_7986" data-name="Path 7986" d="M940.864,727.492c-1.543.19-4.412.473-5.364,1.739.136.073.253-.22.377-.277,5.753-2.542,8.33.519,13.684.743a20.476,20.476,0,0,0,7-1.275c.308-.209,2.382-.463,1.714-.91-3.892,1.2-8,2.444-12.038,1.129-1.776-.441-3.508-1.265-5.377-1.149Zm-2.585.7-.021,0,.021,0Zm-2.187.641-.012.006.012-.006Zm5.451-1.338.044,0-.049,0Z" transform="translate(-603.892 -553.841)" fill="#fefefe"/>
    <path id="Path_7987" data-name="Path 7987" d="M1199.781,714.832a16.836,16.836,0,0,0-5.312,1.087c-1.671.778-3.229,2.007-5.131,2.108-.045,0-.09.093-.028.1a8.445,8.445,0,0,0,3.2-.892l-.009,0,.038-.019h0l.021-.01-.016.008.005,0-.007,0,.035-.017-.014.007c.553-.28,1.126-.519,1.683-.792l-.025.012a15.109,15.109,0,0,1,4.009-1.019c.515-.175,1.279.058,1.659-.34.05-.091.029-.249-.1-.238Zm-5.457,1.545-.02.009.02-.009Zm-1.791.844-.012.006.012-.006Zm-.061.03.026-.013-.026.013Zm.064-.031h0l0,0,0,0Z" transform="translate(-836.797 -542.232)" fill="#fefefe"/>
    <path id="Path_7988" data-name="Path 7988" d="M1327.462,729.794a23.616,23.616,0,0,1-4.266.776c0,.319,5.438-.29,4.266-.776Z" transform="translate(-959.699 -555.964)" fill="#fefefe"/>
    <path id="Path_7989" data-name="Path 7989" d="M1396.279,692.592a10.9,10.9,0,0,0-5.219,1.288l0,0c-.145.134-1.324.4-.9.572a12.683,12.683,0,0,1,9.6-.87c.352.005.832.3,1.12.049.055-.074.112-.251-.02-.286a22.885,22.885,0,0,0-4.577-.751Z" transform="translate(-1021.072 -521.82)" fill="#fefefe"/>
    <path id="Path_7990" data-name="Path 7990" d="M1049.721,767.433c-.03.04-.067.151.011.167,1.594.364,2.431,2.089,3.864,2.806a10.276,10.276,0,0,0,5.937,1.685,12.246,12.246,0,0,0,2.665-.895c.112-.034.217-.211.122-.306-.211-.039-.437.111-.642.165-2.632,1.3-5.816.236-8.165-1.231-1.2-.6-2.43-2.519-3.793-2.391Z" transform="translate(-708.685 -590.501)" fill="#fefefe"/>
    <path id="Path_7991" data-name="Path 7991" d="M1171.126,778.315a22.9,22.9,0,0,0-4.933,1.139c.051.238.771-.078.978-.116a15.876,15.876,0,0,1,3.485-.764,28.862,28.862,0,0,1,5.463.455c1.075-.48-1.485-.484-1.75-.6a26.624,26.624,0,0,0-3.243-.118Zm-4.5,1.034-.011,0,.011,0Z" transform="translate(-815.61 -600.494)" fill="#fefefe"/>
    <path id="Path_7992" data-name="Path 7992" d="M1333.944,766.777c-2.005.114-3.772,1.222-5.749,1.459a26.157,26.157,0,0,1-7.443.185c-.021.027-.045.1.008.112a19.464,19.464,0,0,0,2.892.306,19.827,19.827,0,0,0,8.292-1.329,10.269,10.269,0,0,1,1.894-.36c.168,0,.342-.352.106-.372Zm-12.258,1.741h0Z" transform="translate(-957.434 -589.905)" fill="#fefefe"/>
    <path id="Path_7993" data-name="Path 7993" d="M1464.428,738.894a10.2,10.2,0,0,0-3.343.738,9.18,9.18,0,0,1,6.513.34c.271.093.464.355.712.453a.3.3,0,0,0,.12-.545,6.864,6.864,0,0,0-4-.985Z" transform="translate(-1086.246 -564.312)" fill="#fefefe"/>
    <path id="Path_7994" data-name="Path 7994" d="M1241.49,825.558a12.785,12.785,0,0,0-2.633.287c-.447.344.369.134.538.106a11.112,11.112,0,0,1,6,.76c1.656.534,3.244,1.5,5.038,1.4,1.151-.092,2.3-.249,3.451-.305.263-.048.653.112.791-.189.049-.091.03-.247-.1-.237-1.632-.041-3.256.4-4.884.252-2.781-.532-5.282-2.268-8.2-2.074Zm8.444,2.1.035,0-.035,0Z" transform="translate(-882.176 -643.837)" fill="#fefefe"/>
    <path id="Path_7995" data-name="Path 7995" d="M1430.81,818.621c-.587.123-2.27-.1-2.384.594a10.557,10.557,0,0,1,6,.38c1.539-.714-3.224-1.024-3.616-.974Z" transform="translate(-1056.273 -637.48)" fill="#fefefe"/>
    <path id="Path_7996" data-name="Path 7996" d="M1473.62,876.09c-.219,0-.574.069-.492.365.157.139.437-.035.638.013.223,0,.441.126.654.118.616-.438-.477-.567-.8-.5Z" transform="translate(-1097.286 -690.209)" fill="#fefefe"/>
    <path id="Path_7997" data-name="Path 7997" d="M1087.738,836.578c.044.563.883.976,1.318,1.34a6.249,6.249,0,0,0,4.23,1.909h0l.13.01-.037,0c.5-.084,2.341.628,2.409,0a12.436,12.436,0,0,0-3.089-.4l.036,0c-1.963-.2-3.648-1.584-4.992-2.862Zm.231.238,0,0,0,0Zm5.265,3.007.026,0-.026,0Zm.158.012.031,0-.031,0Zm-.082-.006-.025,0,.025,0Z" transform="translate(-743.608 -653.965)" fill="#fefefe"/>
    <path id="Path_7998" data-name="Path 7998" d="M1203.45,856.529a9.536,9.536,0,0,1,3.285.689l-.012-.006.067.032h0a29.955,29.955,0,0,0,3.51,1.439c.47.115,1.112.737,1.546.4.519-.441-2.374-1.121-2.72-1.292-1.767-.7-3.87-1.481-5.674-1.263Zm.663.037h0Zm2.663.672.036.018-.036-.018Zm-.029-.013-.01,0,.01,0Zm-.01,0h0Z" transform="translate(-849.802 -672.241)" fill="#fefefe"/>
    <path id="Path_7999" data-name="Path 7999" d="M1350.695,894.923c-.179.253,1.082.407,1.289.523.44.086,1.832.641,1.592-.246a5.747,5.747,0,0,1-1.835-.107c-.335-.016-.751-.3-1.047-.17Z" transform="translate(-984.92 -707.478)" fill="#fefefe"/>
    <path id="Path_8000" data-name="Path 8000" d="M1057.47,884.848c-.3.4,1.608.4,1.9.71.158.048.342.268.5.121.067-.059.129-.193.048-.263a4.488,4.488,0,0,0-2.446-.568Z" transform="translate(-715.801 -698.234)" fill="#fefefe"/>
    <path id="Path_8001" data-name="Path 8001" d="M1066.172,845.614c-.151.144.1.234.19.324a5.785,5.785,0,0,1,1.41,1.685c1.2,1.985,3.62,2.812,5.79,3.245a3.7,3.7,0,0,0,2.45-.108c.156-.432-1.01.01-1.261-.093l.036,0a10.9,10.9,0,0,1-6.118-2.382c-.876-.8-1.368-2.29-2.5-2.674Zm3.667,3.922.009,0-.009,0Z" transform="translate(-723.773 -662.258)" fill="#fefefe"/>
    <path id="Path_8002" data-name="Path 8002" d="M1236.1,899.383c-.254.347,2.192.636,1.975.124-.379-.135-.855.069-1.265-.038-.23.015-.524-.242-.71-.087Z" transform="translate(-879.745 -711.558)" fill="#fefefe"/>
    <path id="Path_8003" data-name="Path 8003" d="M1426.772,914.418a5.97,5.97,0,0,1-1.485.26c-.2.009-.6-.08-.536.246.466.068,2.012.192,2.2-.332a.137.137,0,0,0-.182-.174Z" transform="translate(-1052.894 -725.391)" fill="#fefefe"/>
    <path id="Path_8004" data-name="Path 8004" d="M891.519,776.8c-.633.53-1.2,1.133-1.794,1.709l.025-.028c-.376.825,1.006-.715,1.13-.843.066-.129,1.163-.971.639-.839Zm-1.769,1.682,0,0,0,0Z" transform="translate(-561.845 -599.087)" fill="#fefefe"/>
    <path id="Path_8005" data-name="Path 8005" d="M881.382,807.1a3.623,3.623,0,0,0-1.95,2.484c.076.02.155-.058.182-.121a5.368,5.368,0,0,1,1.083-1.7c.069-.142,1.146-.65.685-.666Zm-1.447,1.7-.007.012.007-.012Z" transform="translate(-552.436 -626.912)" fill="#fefefe"/>
    <path id="Path_8006" data-name="Path 8006" d="M889.126,858.479c-.726.091.242,4.34.586,2.928a4.077,4.077,0,0,1-.5-2.81.087.087,0,0,0-.084-.118Z" transform="translate(-561.09 -674.064)" fill="#fefefe"/>
    <path id="Path_8007" data-name="Path 8007" d="M914.011,1356.585c-.366.234-.309.858-.513,1.232-.065.171-.7,1.529-.136.975.111-.474.987-1.9.649-2.207Z" transform="translate(-583.364 -1131.199)" fill="#fefefe"/>
    <path id="Path_8008" data-name="Path 8008" d="M936.5,1382.268c-.343,1.1-.647,2.215-.93,3.334l.01-.039c-.085.629-.695,1.577-.554,2.1a19.057,19.057,0,0,0,1.226-4.024c.012-.149.542-1.714.247-1.369Z" transform="translate(-603.437 -1154.725)" fill="#fefefe"/>
    <path id="Path_8009" data-name="Path 8009" d="M989.637,1386.924c-.657,1.127-.212,2.712-.4,4,.061.393-.391,1.9-.027,1.964.3-.285.13-.863.241-1.252.131-1.533.052-3.293.181-4.709Z" transform="translate(-653.057 -1159.043)" fill="#fefefe"/>
    <path id="Path_8010" data-name="Path 8010" d="M1062.265,1367.775c-.515.314.564,3.406.719,4.1.165.3.641,3.394.964,1.976-.52-2.012-1.506-4.077-1.684-6.074Zm.68,2.987,0,.014,0-.014Z" transform="translate(-720.103 -1141.469)" fill="#fefefe"/>
    <path id="Path_8011" data-name="Path 8011" d="M1125.708,1358.65c-.27.138-.044.471-.017.691.3,1.339.995,2.528,1.358,3.837.176.612.435,1.2.642,1.8.59.165.127-.792.044-1.062-.413-1.193-.879-2.348-1.389-3.5-.167-.315-.4-1.755-.639-1.762Zm.113,1.112.005.016-.005-.016Z" transform="translate(-778.334 -1133.094)" fill="#fefefe"/>
    <path id="Path_8012" data-name="Path 8012" d="M1181,1344.858c-.229.206.21.45.293.651.888,1.094,1.656,2.276,2.489,3.41.129.138.242.373.438.4.166-.023.326-.283.186-.414a47.335,47.335,0,0,0-3.406-4.05Z" transform="translate(-829.136 -1120.437)" fill="#fefefe"/>
    <path id="Path_8013" data-name="Path 8013" d="M1167.308,1478.151c-.1.121.082.333.1.481v0c.086.3.173.593.274.884l-.005-.016q.064.2.129.406l0-.008c.177.286.36,1.812.669,1.7.236-.23-.107-.605-.149-.877a24.274,24.274,0,0,1-.957-2.493l0,.01c-.015-.029-.012-.1-.057-.085Zm.092.47,0,.007,0-.007Zm.145.172v0Zm.254,1.1,0-.012,0,.012Z" transform="translate(-816.607 -1242.764)" fill="#fefefe"/>
    <path id="Path_8014" data-name="Path 8014" d="M1244.249,1436.229c-.2.362.294.807.4,1.169.148.3.593,1.555.922.853-.315-.476-.706-.988-1-1.516-.141-.119-.117-.562-.319-.506Z" transform="translate(-887.202 -1204.288)" fill="#fefefe"/>
    <path id="Path_8015" data-name="Path 8015" d="M1079.106,1490.963c-.177.45.1,1.089.075,1.6.1.321-.086,2.447.471,1.98.087-.495-.208-1.053-.2-1.577a13.186,13.186,0,0,0-.341-2Z" transform="translate(-735.631 -1254.524)" fill="#fefefe"/>
    <path id="Path_8016" data-name="Path 8016" d="M986.769,1516.343c-.217.028-1.065,4.716-.376,3.541a12.064,12.064,0,0,1,.307-2.7c.005-.245.247-.677.068-.843Z" transform="translate(-650.356 -1277.817)" fill="#fefefe"/>
    <path id="Path_8017" data-name="Path 8017" d="M889.04,1520.285a35.148,35.148,0,0,0-1.53,3.744c-.028.067-.031.179.059.2.447-.152.524-1.486.778-1.941-.031-.194,1.111-2.478.693-2Z" transform="translate(-559.833 -1281.374)" fill="#fefefe"/>
    <path id="Path_8018" data-name="Path 8018" d="M983.694,851.126a11.987,11.987,0,0,0,1.7.616,2.17,2.17,0,0,0,1.733-.052,2.119,2.119,0,0,0,.655-2.07" transform="translate(-648.122 -665.934)" fill="none" stroke="#161616" stroke-miterlimit="10" stroke-width="1"/>
    <g id="Group_11327" data-name="Group 11327" transform="translate(292.926 136.777)">
      <path id="Path_8019" data-name="Path 8019" d="M470.311,323.772a7.749,7.749,0,0,1-2.758-.372l.363-2.861a8.8,8.8,0,0,0,2.406.328,8.4,8.4,0,0,0,2.378-.342,4.106,4.106,0,0,0,1.688-.848,1.035,1.035,0,0,0,.346-1.087,1.022,1.022,0,0,0-.808-.694,8.189,8.189,0,0,0-2.31-.039,12.815,12.815,0,0,1-3.308-.083,3.76,3.76,0,0,1-1.921-.874,3.848,3.848,0,0,1-.991-1.741,3.994,3.994,0,0,1,.041-2.48,4.952,4.952,0,0,1,1.541-2.171,7.577,7.577,0,0,1,2.8-1.452,10.358,10.358,0,0,1,3-.429,6.27,6.27,0,0,1,2.492.44l-.344,2.856a7.132,7.132,0,0,0-4.316-.124,3.094,3.094,0,0,0-1.486.852,1.194,1.194,0,0,0-.308,1.182.894.894,0,0,0,.393.541,2.251,2.251,0,0,0,.934.222,12.154,12.154,0,0,0,1.87-.054,12.135,12.135,0,0,1,3.233.116,3.924,3.924,0,0,1,1.914.886,3.655,3.655,0,0,1,.983,1.68,3.86,3.86,0,0,1-.624,3.627,7.634,7.634,0,0,1-4.048,2.434A12,12,0,0,1,470.311,323.772Z" transform="translate(-465.219 -306.216)" fill="#fff"/>
      <path id="Path_8020" data-name="Path 8020" d="M635.55,298.824l-1.913-14.2,3.705-.5,1.913,14.2Z" transform="translate(-619.784 -283.733)" fill="#fff"/>
      <path id="Path_8021" data-name="Path 8021" d="M739.16,286.1l-.447,7.159a10.949,10.949,0,0,1-2.586.653,14.8,14.8,0,0,1-2.918.1,8.749,8.749,0,0,1-3.991-1.135,6.145,6.145,0,0,1-2.468-2.7,8.8,8.8,0,0,1,.487-7.8,6.254,6.254,0,0,1,2.745-2.394,8.238,8.238,0,0,1,3.98-.647,10.3,10.3,0,0,1,2.905.589,6.183,6.183,0,0,1,2.151,1.254l-1.321,2.564a7.746,7.746,0,0,0-1.848-1.052,6.534,6.534,0,0,0-1.929-.406,3.625,3.625,0,0,0-2.937.9,4.921,4.921,0,0,0-1.149,3.247,5,5,0,0,0,.771,3.458,3.834,3.834,0,0,0,2.943,1.293,9.245,9.245,0,0,0,1.939-.082l.166-2.657-2.515-.157.16-2.555Z" transform="translate(-704.606 -279.323)" fill="#fff"/>
      <path id="Path_8022" data-name="Path 8022" d="M911.827,307.315l3.3,1.138L910.469,322l-2.613-.9-3.521-9.873-2.665,7.743-3.285-1.131,4.663-13.545,2.575.886,3.54,9.879Z" transform="translate(-862.755 -302.238)" fill="#fff"/>
      <path id="Path_8023" data-name="Path 8023" d="M1178.86,347.741a6.206,6.206,0,0,1-2.156-4.408l-.988-8.231,3.631-.436,1,8.373a3.63,3.63,0,0,0,.969,2.278,2.8,2.8,0,0,0,3.954-.474,3.631,3.631,0,0,0,.4-2.443l-1-8.373,3.652-.438.987,8.231a6.169,6.169,0,0,1-1.073,4.785,7.814,7.814,0,0,1-9.38,1.135Z" transform="translate(-1117.276 -329.126)" fill="#fff"/>
      <path id="Path_8024" data-name="Path 8024" d="M1349.3,304.669l6.682-1.833a5.278,5.278,0,0,1,3.886.188,4.915,4.915,0,0,1,1.766,6.479,5.257,5.257,0,0,1-3.234,2.151l-3.077.844,1.371,5-3.606.989Zm7.869,4.416a2.318,2.318,0,0,0,1.367-.817,1.646,1.646,0,0,0,.131-1.405,1.68,1.68,0,0,0-.832-1.152,2.28,2.28,0,0,0-1.6-.016l-2.587.709.93,3.39Z" transform="translate(-1276.58 -300.652)" fill="#fff"/>
    </g>
  </g>
</svg>
